<?xml version="1.0" standalone="no"?><!DOCTYPE svg PUBLIC "-//W3C//DTD SVG 1.1//EN" "http://www.w3.org/Graphics/SVG/1.1/DTD/svg11.dtd"><svg t="1603332604876" class="icon" viewBox="0 0 1102 1024" version="1.1" xmlns="http://www.w3.org/2000/svg" p-id="4199" xmlns:xlink="http://www.w3.org/1999/xlink" width="137.75" height="128"><defs><style type="text/css"></style></defs><path d="M286.404923 252.691692a189.44 189.44 0 0 0 189.203692 189.361231 189.44 189.44 0 0 0 189.282462-189.361231A189.44 189.44 0 0 0 475.608615 63.409231a189.44 189.44 0 0 0-189.203692 189.282461z m348.396308 285.380923a400.541538 400.541538 0 0 0-158.798769-32.531692 413.065846 413.065846 0 0 0-412.435693 412.593231 31.822769 31.822769 0 0 1-63.566769 0A476.868923 476.868923 0 0 1 336.108308 463.163077a252.534154 252.534154 0 0 1-113.270154-210.471385A253.006769 253.006769 0 0 1 475.608615 0a253.006769 253.006769 0 0 1 252.770462 252.691692 252.612923 252.612923 0 0 1-114.294154 211.101539c4.332308 1.339077 8.822154 1.811692 13.154462 3.308307a480.492308 480.492308 0 0 1 32.610461 12.603077 31.822769 31.822769 0 0 1-25.048615 58.368z m217.324307 175.104c17.486769 0 31.744 14.178462 31.744 31.744v102.084923a31.822769 31.822769 0 0 1-63.488 0V744.920615c0-17.565538 14.178462-31.744 31.744-31.744zM664.812308 926.798769l379.037538-4.647384-4.096-241.979077H664.812308v246.626461z m184.477538-476.081231c-46.237538 1.417846-83.731692 44.110769-83.731692 95.074462v70.892308h173.686154V537.206154c0-23.630769-9.294769-45.686154-26.151385-61.991385a87.276308 87.276308 0 0 0-63.803077-24.418461z m221.656616 165.96677c17.565538 0 31.822769 14.257231 31.822769 31.744v278.370461a58.919385 58.919385 0 0 1-58.919385 58.840616H660.243692a58.919385 58.919385 0 0 1-58.840615-58.840616V648.428308c0-17.486769 14.178462-31.744 31.822769-31.744h68.923077v-70.892308c0-84.992 65.142154-155.963077 145.092923-158.562462a151.315692 151.315692 0 0 1 110.198154 42.377847c29.144615 28.356923 45.449846 66.638769 45.449846 107.598769v79.556923h68.135385z" p-id="4200"></path></svg>