<?xml version="1.0" standalone="no"?><!DOCTYPE svg PUBLIC "-//W3C//DTD SVG 1.1//EN" "http://www.w3.org/Graphics/SVG/1.1/DTD/svg11.dtd"><svg t="1603334999450" class="icon" viewBox="0 0 1041 1024" version="1.1" xmlns="http://www.w3.org/2000/svg" p-id="32944" xmlns:xlink="http://www.w3.org/1999/xlink" width="130.125" height="128"><defs><style type="text/css"></style></defs><path d="M205.773432 288.861757a43.491545 43.491545 0 0 1 60.368861 0l140.860678 135.667657a12.982551 12.982551 0 0 0 17.526443 0L623.162443 233.036789l32.456377-31.158123a43.491545 43.491545 0 0 1 60.368862 0l116.19383 111.000811a44.140673 44.140673 0 0 1 0 64.912754 43.491545 43.491545 0 0 1-60.368861 0L694.566473 302.493436a12.333423 12.333423 0 0 0-16.877316 0L446.599751 524.495056a43.491545 43.491545 0 0 1-60.368862 0l-31.80725-30.508994-148.650207-142.80806a43.491545 43.491545 0 0 1 0-64.912755z" p-id="32945"></path><path d="M0 64.912754v729.619361a64.912754 64.912754 0 0 0 64.912754 64.912754h338.844579a38.298525 38.298525 0 0 0 38.298525-38.298525 38.947653 38.947653 0 0 0-38.298525-42.19329H99.965642a23.368592 23.368592 0 0 1-23.368592-22.719464V99.965642a23.368592 23.368592 0 0 1 23.368592-22.719464h838.672788a22.719464 22.719464 0 0 1 22.719464 22.719464v346.634109a38.947653 38.947653 0 0 0 38.298525 38.298525 38.298525 38.298525 0 0 0 38.947653-38.298525V64.912754a64.912754 64.912754 0 0 0-64.912755-64.912754H64.912754a64.912754 64.912754 0 0 0-64.912754 64.912754z m138.264167 915.269838a43.491545 43.491545 0 0 1 43.491546-42.842417h675.092646a43.491545 43.491545 0 1 1 0 86.333963H181.755713a43.491545 43.491545 0 0 1-43.491546-43.491546z" p-id="32946"></path><path d="M939.287557 643.285397h-4.543893A171.369672 171.369672 0 0 0 908.778563 584.21479l3.245637-3.894765a33.105505 33.105505 0 1 0-46.737183-46.737183 124.632489 124.632489 0 0 0-60.368862-23.368592v-1.947383a31.80725 31.80725 0 0 0-31.807249-32.456377h-3.245638a31.80725 31.80725 0 0 0-31.80725 32.456377v3.894766a259.651018 259.651018 0 0 0-60.368861 23.368591l-4.543893-4.543892a33.105505 33.105505 0 0 0-44.789801 0 33.754632 33.754632 0 0 0 0 45.438928L629.653718 584.21479a176.562692 176.562692 0 0 0-23.368591 59.719734h-4.543893a32.456377 32.456377 0 0 0-32.456377 32.456378 31.80725 31.80725 0 0 0 32.456377 31.807249h3.894765a242.773702 242.773702 0 0 0 23.368592 59.719734 32.456377 32.456377 0 0 0 0 47.386311 31.80725 31.80725 0 0 0 44.7898 0l4.543893-4.543893a118.141213 118.141213 0 0 0 60.368862 23.368592v4.543893a31.80725 31.80725 0 0 0 32.456377 31.807249 31.80725 31.80725 0 0 0 31.80725-31.807249 246.668467 246.668467 0 0 0 60.368861-23.368592l4.543893 4.543893a33.105505 33.105505 0 0 0 44.789801 0 32.456377 32.456377 0 0 0 0-45.438928l-3.894765-3.894765a159.685376 159.685376 0 0 0 23.368591-59.719735h4.543893a32.456377 32.456377 0 0 0 32.456377-32.456377 31.80725 31.80725 0 0 0-31.807249-32.456377z m-169.422289 118.79034a86.983091 86.983091 0 0 1-85.684836-85.035708 86.333963 86.333963 0 0 1 85.684836-85.684836 84.386581 84.386581 0 0 1 85.684836 85.684836 85.684836 85.684836 0 0 1-85.684836 85.035708z" p-id="32947"></path></svg>