<?xml version="1.0" standalone="no"?><!DOCTYPE svg PUBLIC "-//W3C//DTD SVG 1.1//EN" "http://www.w3.org/Graphics/SVG/1.1/DTD/svg11.dtd"><svg t="1603346293233" class="icon" viewBox="0 0 1024 1024" version="1.1" xmlns="http://www.w3.org/2000/svg" p-id="15508" xmlns:xlink="http://www.w3.org/1999/xlink" width="128" height="128"><defs><style type="text/css"></style></defs><path d="M822.784 0H199.68C89.6 0 0 90.112 0 200.192V824.32c0 109.568 90.112 199.68 200.192 199.68h623.616c110.08 0 200.192-90.112 200.192-200.192V200.192C1023.488 90.112 932.864 0 822.784 0zM419.328 234.496c38.4-66.048 120.832-46.592 134.144-22.016 78.848-13.824 75.776 103.936 65.024 135.68 0 0 7.168 1.024 5.632 30.208-1.536 26.624-23.04 45.056-26.624 47.616-0.512 2.048-1.024 4.096-2.048 6.144-0.512 1.024-0.512 2.048-1.024 3.072l-1.536 4.608c-4.608 11.776-10.24 22.528-17.408 31.744-15.872 21.504-37.888 34.304-62.464 34.304-23.552 0-45.056-12.288-60.928-32.768-10.752-13.312-18.944-30.72-23.552-49.664-4.096-1.536-9.728-5.12-13.312-9.216-8.192-10.752-15.872-34.304-14.336-50.688 1.536-16.896 6.656-11.776 6.656-14.336-14.848-36.864-7.168-81.92 11.776-114.688zM338.944 834.048h-25.6c-63.488 0-70.656-37.888-56.32-91.136l41.472-151.552c5.632-25.088 17.408-45.056 34.816-60.416l2.56-2.048 3.584-1.024 77.312-18.944c9.216-2.048 18.944-0.512 26.624 5.12 4.096 3.072 7.168 6.656 9.216 10.752l49.664 100.352H338.944v208.896z m328.192-6.144H356.352v-31.232h311.296v31.232z m43.008 6.144h-14.336v-208.384h-168.96l47.104-103.936c1.024-2.048 2.56-4.096 4.608-5.632l9.216-6.656c3.584-2.56 8.192-3.584 12.8-2.56l88.576 20.992c3.072 1.024 5.632 2.56 7.68 5.12 14.336 17.92 23.04 37.376 28.16 58.88l1.024-0.512 41.472 151.552c13.312 53.248 6.656 91.136-57.344 91.136z" p-id="15509"></path></svg>