<?xml version="1.0" standalone="no"?><!DOCTYPE svg PUBLIC "-//W3C//DTD SVG 1.1//EN" "http://www.w3.org/Graphics/SVG/1.1/DTD/svg11.dtd"><svg t="1603333421533" class="icon" viewBox="0 0 1117 1024" version="1.1" xmlns="http://www.w3.org/2000/svg" p-id="12708" xmlns:xlink="http://www.w3.org/1999/xlink" width="139.625" height="128"><defs><style type="text/css"></style></defs><path d="M46.824727 268.101818l446.836364 192.698182c64.232727 33.512727 120.087273 0 120.087273 0l452.421818-189.905455 2.792727-2.792727c11.170909-5.585455 16.756364-16.756364 16.756364-30.72 0-16.756364-11.170909-30.72-25.134546-33.512727L613.748364 11.170909c-61.44-25.134545-106.123636 0-106.123637 0l-458.007272 192.698182c-13.963636 5.585455-22.341818 19.549091-22.341819 33.512727s8.378182 25.134545 19.549091 30.72z m511.069091 413.323637c-2.792727 0-8.378182 0-11.170909-2.792728l-530.618182-234.589091c-13.963636-5.585455-19.549091-22.341818-13.963636-36.305454 5.585455-13.963636 22.341818-19.549091 36.305454-13.963637l519.447273 229.003637 519.447273-229.003637c13.963636-5.585455 30.72 0 36.305454 13.963637 5.585455 13.963636 0 30.72-13.963636 36.305454l-530.618182 234.589091c-2.792727 2.792727-8.378182 2.792727-11.170909 2.792728z m0 164.770909c-2.792727 0-8.378182 0-11.170909-2.792728L16.104727 608.814545c-13.963636-5.585455-19.549091-22.341818-13.963636-36.305454 5.585455-11.170909 22.341818-19.549091 36.305454-11.170909l519.447273 226.210909 519.447273-226.210909c13.963636-5.585455 30.72 0 36.305454 13.963636 5.585455 13.963636 0 30.72-13.963636 36.305455l-530.618182 234.589091h-11.170909z m0 164.770909c-2.792727 0-8.378182 0-11.170909-2.792728l-530.618182-234.58909c-13.963636-5.585455-19.549091-22.341818-13.963636-36.305455 5.585455-13.963636 22.341818-19.549091 36.305454-13.963636l519.447273 229.003636 519.447273-229.003636c13.963636-5.585455 30.72 0 36.305454 13.963636 5.585455 13.963636 0 30.72-13.963636 36.305455l-530.618182 234.58909c-2.792727 2.792727-8.378182 2.792727-11.170909 2.792728z" p-id="12709"></path></svg>