<?xml version="1.0" standalone="no"?><!DOCTYPE svg PUBLIC "-//W3C//DTD SVG 1.1//EN" "http://www.w3.org/Graphics/SVG/1.1/DTD/svg11.dtd"><svg t="1603333547552" class="icon" viewBox="0 0 1050 1024" version="1.1" xmlns="http://www.w3.org/2000/svg" p-id="15620" xmlns:xlink="http://www.w3.org/1999/xlink" width="131.25" height="128"><defs><style type="text/css"></style></defs><path d="M603.621053 121.263158h406.905263c13.473684 0 26.947368 10.778947 26.947368 26.947368v32.336842c0 13.473684-10.778947 26.947368-26.947368 26.947369H603.621053c-13.473684 0-26.947368-10.778947-26.947369-26.947369V148.210526c2.694737-16.168421 13.473684-26.947368 26.947369-26.947368zM603.621053 350.315789h406.905263c13.473684 0 26.947368 10.778947 26.947368 26.947369v32.336842c0 13.473684-10.778947 26.947368-26.947368 26.947368H603.621053c-13.473684 0-26.947368-10.778947-26.947369-26.947368V377.263158c2.694737-16.168421 13.473684-26.947368 26.947369-26.947369z" p-id="15621"></path><path d="M439.242105 474.273684H97.010526c-45.810526 0-86.231579-37.726316-86.231579-86.231579V99.705263C10.778947 51.2 48.505263 13.473684 97.010526 13.473684h342.231579c45.810526 0 86.231579 37.726316 86.231579 86.231579v288.336842c0 21.557895-8.084211 43.115789-24.252631 59.284211-16.168421 18.863158-37.726316 26.947368-61.978948 26.947368zM99.705263 94.315789c-2.694737 0-5.389474 2.694737-5.389474 5.389474v288.336842c0 2.694737 2.694737 5.389474 5.389474 5.389474H444.631579s2.694737-2.694737 2.694737-5.389474V99.705263c0-2.694737-2.694737-5.389474-5.389474-5.389474H99.705263zM439.242105 1013.221053H97.010526c-45.810526 0-86.231579-37.726316-86.231579-86.231579V638.652632c0-48.505263 37.726316-86.231579 86.231579-86.231579h342.231579c45.810526 0 86.231579 37.726316 86.231579 86.231579v288.336842c0 21.557895-8.084211 43.115789-24.252631 59.28421-16.168421 18.863158-37.726316 26.947368-61.978948 26.947369zM99.705263 633.263158c-2.694737 0-5.389474 2.694737-5.389474 5.389474v288.336842c0 2.694737 2.694737 5.389474 5.389474 5.389473H444.631579s2.694737-2.694737 2.694737-5.389473V638.652632c0-2.694737-2.694737-5.389474-5.389474-5.389474H99.705263z" p-id="15622"></path><path d="M603.621053 609.010526h406.905263c13.473684 0 26.947368 10.778947 26.947368 26.947369v32.336842c0 13.473684-10.778947 26.947368-26.947368 26.947368H603.621053c-13.473684 0-26.947368-10.778947-26.947369-26.947368v-32.336842c2.694737-16.168421 13.473684-26.947368 26.947369-26.947369zM603.621053 838.063158h406.905263c13.473684 0 26.947368 10.778947 26.947368 26.947368v32.336842c0 13.473684-10.778947 26.947368-26.947368 26.947369H603.621053c-13.473684 0-26.947368-10.778947-26.947369-26.947369v-32.336842c2.694737-16.168421 13.473684-26.947368 26.947369-26.947368z" p-id="15623"></path></svg>