<?xml version="1.0" standalone="no"?><!DOCTYPE svg PUBLIC "-//W3C//DTD SVG 1.1//EN" "http://www.w3.org/Graphics/SVG/1.1/DTD/svg11.dtd"><svg t="1590132167387" class="icon" viewBox="0 0 1024 1024" version="1.1" xmlns="http://www.w3.org/2000/svg" p-id="13173" xmlns:xlink="http://www.w3.org/1999/xlink" width="250" height="250"><defs><style type="text/css"></style></defs><path d="M832 682.666667h128v85.333333h-128z" fill="#515151" p-id="13174"></path><path d="M853.333333 704v42.666667h85.333334v-42.666667z" fill="#515151" p-id="13175"></path><path d="M844.032 736h103.936c18.944 0 28.245333 1.792 37.909333 6.954667 8.810667 4.714667 15.786667 11.690667 20.48 20.501333 5.184 9.664 6.976 18.965333 6.976 37.909333v131.285334c0 10.282667-1.066667 15.765333-4.117333 21.461333-2.837333 5.333333-7.104 9.6-12.437333 12.437333-5.696 3.050667-11.178667 4.117333-21.461334 4.117334h-158.634666c-10.282667 0-15.765333-1.066667-21.461334-4.117334a30.058667 30.058667 0 0 1-12.437333-12.437333c-3.050667-5.696-4.117333-11.178667-4.117333-21.461333v-131.285334c0-18.944 1.792-28.245333 6.954666-37.909333 4.714667-8.810667 11.690667-15.786667 20.501334-20.48 9.664-5.184 18.965333-6.976 37.909333-6.976z" fill="#515151" p-id="13176"></path><path d="M844.032 757.333333c-15.722667 0-21.696 1.152-27.84 4.437334a28.096 28.096 0 0 0-11.754667 11.754666c-3.285333 6.144-4.437333 12.117333-4.437333 27.84v131.285334c0 7.061333 0.426667 9.216 1.578667 11.413333 0.874667 1.6 2.090667 2.816 3.690666 3.690667 2.197333 1.173333 4.352 1.578667 11.413334 1.578666h158.634666c7.061333 0 9.216-0.426667 11.413334-1.578666a8.725333 8.725333 0 0 0 3.690666-3.690667c1.173333-2.197333 1.578667-4.352 1.578667-11.413333v-131.285334c0-15.722667-1.152-21.696-4.437333-27.84a28.096 28.096 0 0 0-11.754667-11.754666c-6.144-3.285333-12.117333-4.437333-27.84-4.437334h-103.936z" fill="#515151" p-id="13177"></path><path d="M859.349333 586.666667h115.968c10.282667 0 15.765333 1.066667 21.461334 4.117333 5.333333 2.837333 9.6 7.104 12.437333 12.437333 3.050667 5.696 4.117333 11.178667 4.117333 21.461334v51.968c0 10.282667-1.066667 15.765333-4.117333 21.461333-2.837333 5.333333-7.104 9.6-12.437333 12.437333-5.696 3.050667-11.178667 4.117333-21.461334 4.117334h-115.968c-10.282667 0-15.765333-1.066667-21.461333-4.117334a30.058667 30.058667 0 0 1-12.437333-12.437333c-3.050667-5.696-4.117333-11.178667-4.117334-21.461333v-51.968c0-10.282667 1.066667-15.765333 4.117334-21.461334 2.837333-5.333333 7.104-9.6 12.437333-12.437333 5.696-3.050667 11.178667-4.117333 21.461333-4.117333z" fill="#515151" p-id="13178"></path><path d="M859.349333 608c-7.061333 0-9.216 0.426667-11.413333 1.578667a8.725333 8.725333 0 0 0-3.690667 3.690666c-1.173333 2.197333-1.578667 4.352-1.578666 11.413334v51.968c0 7.061333 0.426667 9.216 1.578666 11.413333 0.874667 1.6 2.090667 2.816 3.690667 3.690667 2.197333 1.173333 4.352 1.578667 11.413333 1.578666h115.968c7.061333 0 9.216-0.426667 11.413334-1.578666a8.725333 8.725333 0 0 0 3.690666-3.690667c1.173333-2.197333 1.578667-4.352 1.578667-11.413333v-51.968c0-7.061333-0.426667-9.216-1.578667-11.413334a8.725333 8.725333 0 0 0-3.690666-3.690666c-2.197333-1.173333-4.352-1.578667-11.413334-1.578667h-115.968z" fill="#515151" p-id="13179"></path><path d="M707.84 93.589333l229.674667 229.696c6.869333 6.869333 10.026667 11.562667 11.861333 17.685334 1.770667 5.781333 1.770667 11.797333 0 17.6-1.856 6.101333-4.992 10.794667-11.861333 17.664l-7.402667 7.402666c-6.848 6.869333-11.541333 10.005333-17.664 11.861334a30.058667 30.058667 0 0 1-17.6 0c-6.101333-1.856-10.794667-4.992-17.664-11.861334L647.488 153.941333c-6.869333-6.869333-10.005333-11.562667-11.861333-17.664a30.058667 30.058667 0 0 1 0-17.6c1.856-6.122667 4.992-10.816 11.861333-17.664l7.402667-7.424c6.869333-6.848 11.562667-10.005333 17.664-11.84 5.802667-1.770667 11.818667-1.770667 17.6 0 6.122667 1.834667 10.816 4.992 17.664 11.84z" fill="#515151" p-id="13180"></path><path d="M692.736 108.693333c-4.565333-4.586667-6.421333-5.824-8.768-6.528a8.725333 8.725333 0 0 0-5.226667 0c-2.346667 0.704-4.181333 1.941333-8.746666 6.528l-7.424 7.402667c-4.565333 4.565333-5.824 6.4-6.528 8.746667a8.725333 8.725333 0 0 0 0 5.226666c0.704 2.346667 1.962667 4.202667 6.528 8.789334l229.696 229.696c4.586667 4.565333 6.421333 5.802667 8.768 6.528a8.725333 8.725333 0 0 0 5.226666 0c2.346667-0.725333 4.202667-1.962667 8.768-6.528l7.402667-7.402667c4.586667-4.586667 5.824-6.442667 6.528-8.789333a8.725333 8.725333 0 0 0 0-5.205334c-0.704-2.346667-1.941333-4.202667-6.528-8.768L692.736 108.693333z" fill="#515151" p-id="13181"></path><path d="M779.946667 623.232l66.730666-249.002667c2.666667-9.941333 5.12-14.933333 9.536-19.669333 4.117333-4.416 9.344-7.424 15.232-8.789333 6.293333-1.493333 11.861333-1.066667 21.781334 1.578666l29.610666 7.936c9.92 2.645333 14.933333 5.098667 19.669334 9.514667 4.416 4.138667 7.424 9.344 8.789333 15.232 1.472 6.314667 1.066667 11.882667-1.578667 21.802667L882.986667 650.837333c-2.666667 9.941333-5.098667 14.954667-9.514667 19.669334a30.058667 30.058667 0 0 1-15.253333 8.810666c-6.293333 1.472-11.861333 1.066667-21.781334-1.6l-29.610666-7.914666c-9.92-2.666667-14.933333-5.12-19.669334-9.536a30.058667 30.058667 0 0 1-8.789333-15.232c-1.472-6.293333-1.066667-11.861333 1.578667-21.802667z" fill="#515151" p-id="13182"></path><path d="M979.989333 374.314667a74.666667 74.666667 0 1 0-144.234666-38.656 74.666667 74.666667 0 0 0 144.234666 38.656zM902.698667 662.805333a74.666667 74.666667 0 1 0-144.256-38.656 74.666667 74.666667 0 0 0 144.256 38.656z" fill="#515151" p-id="13183"></path><path d="M865.301333 387.136a53.333333 53.333333 0 1 1 61.504 17.706667l-54.890666 204.928a53.333333 53.333333 0 1 1-62.122667-15.402667l55.509333-207.232zM908.8 386.133333a32 32 0 1 0 0-64 32 32 0 0 0 0 64z m-78.933333 290.133334a32 32 0 1 0 0-64 32 32 0 0 0 0 64z" fill="#515151" p-id="13184"></path><path d="M908.8 364.8a10.666667 10.666667 0 1 1 0-21.333333 10.666667 10.666667 0 0 1 0 21.333333zM829.866667 654.933333a10.666667 10.666667 0 1 1 0-21.333333 10.666667 10.666667 0 0 1 0 21.333333z" fill="#515151" p-id="13185"></path><path d="M653.653333 143.616l-73.898666 42.666667a32 32 0 1 1-32-55.424l73.898666-42.666667a32 32 0 0 1 32 55.424z" fill="#515151" p-id="13186"></path><path d="M642.986667 125.141333a10.666667 10.666667 0 1 0-10.666667-18.474666l-73.898667 42.666666a10.666667 10.666667 0 1 0 10.666667 18.474667l73.898667-42.666667z" fill="#515151" p-id="13187"></path><path d="M706.645333 138.389333l-44.949333 25.962667c-10.154667 5.866667-16.042667 7.893333-23.253333 8.128-6.72 0.213333-13.162667-1.493333-18.858667-5.056-6.144-3.797333-10.218667-8.512-16.085333-18.666667l-10.730667-18.581333c-5.866667-10.176-7.893333-16.064-8.128-23.274667-0.213333-6.72 1.493333-13.141333 5.034667-18.858666 3.84-6.122667 8.533333-10.197333 18.688-16.085334l44.949333-25.941333c10.176-5.866667 16.064-7.893333 23.274667-8.149333 6.72-0.213333 13.141333 1.514667 18.837333 5.056 6.144 3.818667 10.24 8.533333 16.085333 18.688l10.730667 18.581333c5.866667 10.154667 7.893333 16.042667 8.149333 23.253333 0.213333 6.72-1.493333 13.162667-5.056 18.858667-3.818667 6.144-8.533333 10.218667-18.688 16.085333z" fill="#515151" p-id="13188"></path><path d="M695.978667 119.914667c7.381333-4.266667 9.536-6.122667 11.242666-8.874667 1.322667-2.133333 1.92-4.394667 1.834667-6.890667-0.106667-3.221333-1.024-5.909333-5.290667-13.290666l-10.730666-18.581334c-4.266667-7.381333-6.101333-9.514667-8.874667-11.242666a11.968 11.968 0 0 0-6.869333-1.834667c-3.242667 0.106667-5.930667 1.024-13.312 5.290667l-44.949334 25.941333c-7.381333 4.266667-9.514667 6.122667-11.221333 8.874667a11.968 11.968 0 0 0-1.856 6.890666c0.106667 3.242667 1.045333 5.930667 5.290667 13.312l10.730666 18.56c4.266667 7.381333 6.122667 9.536 8.874667 11.242667 2.133333 1.322667 4.394667 1.92 6.890667 1.856 3.242667-0.106667 5.909333-1.045333 13.290666-5.290667l44.949334-25.962666z" fill="#515151" p-id="13189"></path><path d="M234.666667 682.666667H106.666667v85.333333h128z" fill="#515151" p-id="13190"></path><path d="M213.333333 704v42.666667H128v-42.666667z" fill="#515151" p-id="13191"></path><path d="M222.634667 736H118.698667c-18.944 0-28.245333 1.792-37.909334 6.954667-8.810667 4.714667-15.786667 11.690667-20.48 20.501333-5.184 9.664-6.976 18.965333-6.976 37.909333v131.285334c0 10.282667 1.066667 15.765333 4.117334 21.461333 2.837333 5.333333 7.104 9.6 12.437333 12.437333 5.696 3.050667 11.178667 4.117333 21.461333 4.117334h158.634667c10.282667 0 15.765333-1.066667 21.461333-4.117334 5.333333-2.837333 9.6-7.104 12.437334-12.437333 3.050667-5.696 4.117333-11.178667 4.117333-21.461333v-131.285334c0-18.944-1.792-28.245333-6.954667-37.909333a49.429333 49.429333 0 0 0-20.501333-20.48c-9.664-5.184-18.965333-6.976-37.909333-6.976z" fill="#515151" p-id="13192"></path><path d="M222.634667 757.333333c15.722667 0 21.696 1.152 27.84 4.437334 5.098667 2.730667 9.024 6.656 11.754666 11.754666 3.285333 6.144 4.437333 12.117333 4.437334 27.84v131.285334c0 7.061333-0.426667 9.216-1.578667 11.413333a8.725333 8.725333 0 0 1-3.690667 3.690667c-2.197333 1.173333-4.352 1.578667-11.413333 1.578666H91.349333c-7.061333 0-9.216-0.426667-11.413333-1.578666a8.725333 8.725333 0 0 1-3.690667-3.690667c-1.173333-2.197333-1.578667-4.352-1.578666-11.413333v-131.285334c0-15.722667 1.152-21.696 4.437333-27.84 2.730667-5.098667 6.656-9.024 11.754667-11.754666 6.144-3.285333 12.117333-4.437333 27.84-4.437334h103.936z" fill="#515151" p-id="13193"></path><path d="M207.317333 586.666667H91.349333c-10.282667 0-15.765333 1.066667-21.461333 4.117333-5.333333 2.837333-9.6 7.104-12.437333 12.437333-3.050667 5.696-4.117333 11.178667-4.117334 21.461334v51.968c0 10.282667 1.066667 15.765333 4.117334 21.461333 2.837333 5.333333 7.104 9.6 12.437333 12.437333 5.696 3.050667 11.178667 4.117333 21.461333 4.117334h115.968c10.282667 0 15.765333-1.066667 21.461334-4.117334 5.333333-2.837333 9.6-7.104 12.437333-12.437333 3.050667-5.696 4.117333-11.178667 4.117333-21.461333v-51.968c0-10.282667-1.066667-15.765333-4.117333-21.461334a30.058667 30.058667 0 0 0-12.437333-12.437333c-5.696-3.050667-11.178667-4.117333-21.461334-4.117333z" fill="#515151" p-id="13194"></path><path d="M207.317333 608c7.061333 0 9.216 0.426667 11.413334 1.578667 1.6 0.874667 2.816 2.090667 3.690666 3.690666 1.173333 2.197333 1.578667 4.352 1.578667 11.413334v51.968c0 7.061333-0.426667 9.216-1.578667 11.413333a8.725333 8.725333 0 0 1-3.690666 3.690667c-2.197333 1.173333-4.352 1.578667-11.413334 1.578666H91.349333c-7.061333 0-9.216-0.426667-11.413333-1.578666a8.725333 8.725333 0 0 1-3.690667-3.690667c-1.173333-2.197333-1.578667-4.352-1.578666-11.413333v-51.968c0-7.061333 0.426667-9.216 1.578666-11.413334a8.725333 8.725333 0 0 1 3.690667-3.690666c2.197333-1.173333 4.352-1.578667 11.413333-1.578667h115.968z" fill="#515151" p-id="13195"></path><path d="M311.530667 190.165333l-223.36 128.96c-8.405333 4.842667-12.650667 8.576-16.042667 13.994667-3.2 5.141333-4.736 10.944-4.544 17.002667 0.213333 6.4 2.026667 11.733333 6.890667 20.138666l5.226666 9.066667c4.842667 8.405333 8.576 12.650667 13.994667 16.021333 5.141333 3.2 10.944 4.757333 17.002667 4.565334 6.4-0.213333 11.733333-2.026667 20.138666-6.890667l223.36-128.96c8.405333-4.864 12.672-8.576 16.042667-13.994667 3.2-5.141333 4.736-10.944 4.544-17.002666-0.213333-6.4-2.026667-11.733333-6.869333-20.138667L362.666667 203.861333c-4.842667-8.405333-8.576-12.650667-13.994667-16.021333a30.058667 30.058667 0 0 0-17.002667-4.565333c-6.4 0.213333-11.733333 2.026667-20.138666 6.890666z" fill="#515151" p-id="13196"></path><path d="M322.197333 208.64c5.610667-3.242667 7.722667-3.968 10.176-4.053333a8.725333 8.725333 0 0 1 5.034667 1.365333c2.090667 1.28 3.541333 2.986667 6.784 8.576l5.248 9.066667c3.221333 5.610667 3.946667 7.722667 4.032 10.176a8.725333 8.725333 0 0 1-1.365333 5.034666c-1.28 2.069333-2.965333 3.541333-8.576 6.784l-223.36 128.96c-5.610667 3.242667-7.722667 3.946667-10.176 4.053334a8.725333 8.725333 0 0 1-5.034667-1.365334c-2.069333-1.28-3.541333-2.986667-6.784-8.576l-5.226667-9.066666c-3.242667-5.610667-3.968-7.722667-4.053333-10.176a8.725333 8.725333 0 0 1 1.365333-5.034667c1.28-2.090667 2.986667-3.541333 8.576-6.784l223.36-128.96z" fill="#515151" p-id="13197"></path><path d="M152.704 392.896a74.666667 74.666667 0 1 0-91.562667 54.741333L157.418667 614.4a74.666667 74.666667 0 1 0 93.184-51.925333l-97.898667-169.578667z" fill="#515151" p-id="13198"></path><path d="M241.237333 582.058667l-4.544-1.024-107.029333-185.365334 1.386667-4.437333a53.333333 53.333333 0 1 0-60.992 36.586667l4.8 0.917333 105.813333 183.253333-1.621333 4.608a53.333333 53.333333 0 1 0 62.165333-34.517333zM230.4 666.666667a32 32 0 1 1 0-64 32 32 0 0 1 0 64z m-149.333333-259.2a32 32 0 1 1 0-64 32 32 0 0 1 0 64z" fill="#515151" p-id="13199"></path><path d="M349.013333 250.282667l73.898667 42.666666a32 32 0 1 0 32-55.424l-73.898667-42.666666a32 32 0 0 0-32 55.424z" fill="#515151" p-id="13200"></path><path d="M359.68 231.808a10.666667 10.666667 0 1 1 10.666667-18.474667l73.898666 42.666667a10.666667 10.666667 0 1 1-10.666666 18.474667l-73.898667-42.666667z" fill="#515151" p-id="13201"></path><path d="M296.021333 245.056l44.949334 25.962667c10.154667 5.866667 16.042667 7.893333 23.253333 8.128 6.72 0.213333 13.162667-1.493333 18.858667-5.056 6.144-3.797333 10.218667-8.512 16.085333-18.666667l10.730667-18.581333c5.866667-10.176 7.893333-16.064 8.128-23.274667 0.213333-6.72-1.493333-13.141333-5.034667-18.858667-3.84-6.122667-8.533333-10.197333-18.688-16.085333l-44.949333-25.941333c-10.176-5.866667-16.064-7.893333-23.274667-8.149334-6.72-0.213333-13.141333 1.514667-18.837333 5.056-6.144 3.818667-10.24 8.533333-16.085334 18.688l-10.730666 18.581334c-5.866667 10.154667-7.893333 16.042667-8.149334 23.253333-0.213333 6.72 1.493333 13.162667 5.056 18.858667 3.818667 6.144 8.533333 10.218667 18.688 16.085333z" fill="#515151" p-id="13202"></path><path d="M306.688 226.581333c-7.381333-4.266667-9.536-6.122667-11.242667-8.874666a11.968 11.968 0 0 1-1.834666-6.890667c0.106667-3.221333 1.024-5.909333 5.290666-13.290667l10.730667-18.581333c4.266667-7.381333 6.101333-9.514667 8.874667-11.242667 2.112-1.301333 4.373333-1.92 6.869333-1.834666 3.242667 0.106667 5.930667 1.024 13.312 5.290666l44.949333 25.941334c7.381333 4.266667 9.514667 6.122667 11.221334 8.874666 1.322667 2.133333 1.92 4.394667 1.856 6.890667-0.106667 3.242667-1.045333 5.930667-5.290667 13.312l-10.730667 18.56c-4.266667 7.381333-6.122667 9.536-8.874666 11.242667a11.968 11.968 0 0 1-6.890667 1.856c-3.242667-0.106667-5.909333-1.045333-13.290667-5.290667l-44.949333-25.962667zM230.4 645.333333a10.666667 10.666667 0 1 0 0-21.333333 10.666667 10.666667 0 0 0 0 21.333333zM81.066667 386.133333a10.666667 10.666667 0 1 0 0-21.333333 10.666667 10.666667 0 0 0 0 21.333333z" fill="#515151" p-id="13203"></path><path d="M373.333333 885.333333h320a42.666667 42.666667 0 0 1 42.666667 42.666667v5.226667c0 9.706667-1.088 15.253333-4.117333 20.906666-2.837333 5.333333-7.104 9.578667-12.437334 12.416-5.632 3.029333-11.178667 4.117333-20.885333 4.117334h-330.453333c-9.706667 0-15.253333-1.088-20.906667-4.117334a30.058667 30.058667 0 0 1-12.416-12.437333c-3.029333-5.632-4.117333-11.178667-4.117333-20.885333V928a42.666667 42.666667 0 0 1 42.666666-42.666667z" fill="#515151" p-id="13204"></path><path d="M373.333333 906.666667a21.333333 21.333333 0 0 0-21.333333 21.333333v5.226667c0 6.485333 0.426667 8.661333 1.578667 10.837333 0.874667 1.6 2.090667 2.816 3.690666 3.690667 2.176 1.152 4.352 1.578667 10.837334 1.578666h330.453333c6.485333 0 8.661333-0.426667 10.837333-1.578666a8.725333 8.725333 0 0 0 3.690667-3.690667c1.152-2.176 1.578667-4.352 1.578667-10.837333V928a21.333333 21.333333 0 0 0-21.333334-21.333333h-320z" fill="#515151" p-id="13205"></path><path d="M394.666667 736a42.666667 42.666667 0 0 1 42.666666 42.666667v90.56c0 9.706667-1.088 15.253333-4.117333 20.906666-2.837333 5.333333-7.104 9.578667-12.437333 12.416-5.632 3.029333-11.178667 4.117333-20.885334 4.117334h-10.453333c-9.706667 0-15.253333-1.088-20.906667-4.117334a30.058667 30.058667 0 0 1-12.416-12.437333c-3.029333-5.632-4.117333-11.178667-4.117333-20.885333V778.666667a42.666667 42.666667 0 0 1 42.666667-42.666667z" fill="#515151" p-id="13206"></path><path d="M394.666667 757.333333a21.333333 21.333333 0 0 0-21.333334 21.333334v90.56c0 6.485333 0.426667 8.661333 1.578667 10.837333 0.874667 1.6 2.090667 2.816 3.690667 3.690667 2.176 1.152 4.352 1.578667 10.837333 1.578666h10.453333c6.485333 0 8.661333-0.426667 10.837334-1.578666a8.725333 8.725333 0 0 0 3.690666-3.690667c1.152-2.176 1.578667-4.352 1.578667-10.837333V778.666667a21.333333 21.333333 0 0 0-21.333333-21.333334z" fill="#515151" p-id="13207"></path><path d="M672 736a42.666667 42.666667 0 0 1 42.666667 42.666667v90.56c0 9.706667-1.088 15.253333-4.117334 20.906666-2.837333 5.333333-7.104 9.578667-12.437333 12.416-5.632 3.029333-11.178667 4.117333-20.885333 4.117334h-10.453334c-9.706667 0-15.253333-1.088-20.906666-4.117334a30.058667 30.058667 0 0 1-12.416-12.437333c-3.029333-5.632-4.117333-11.178667-4.117334-20.885333V778.666667a42.666667 42.666667 0 0 1 42.666667-42.666667z" fill="#515151" p-id="13208"></path><path d="M672 757.333333a21.333333 21.333333 0 0 0-21.333333 21.333334v90.56c0 6.485333 0.426667 8.661333 1.578666 10.837333 0.874667 1.6 2.090667 2.816 3.690667 3.690667 2.176 1.152 4.352 1.578667 10.837333 1.578666h10.453334c6.485333 0 8.661333-0.426667 10.837333-1.578666a8.725333 8.725333 0 0 0 3.690667-3.690667c1.152-2.176 1.578667-4.352 1.578666-10.837333V778.666667a21.333333 21.333333 0 0 0-21.333333-21.333334z" fill="#515151" p-id="13209"></path><path d="M668.586667 742.293333l-18.773334-89.706666A42.666667 42.666667 0 0 0 608.042667 618.666667h-149.418667a42.666667 42.666667 0 0 0-41.770667 33.92l-18.773333 89.706666a21.333333 21.333333 0 0 0-0.448 4.373334h-2.773333c-18.624 0-25.386667-1.898667-32.170667-5.44a37.504 37.504 0 0 1-15.786667-15.424c-3.626667-6.656-5.568-13.226667-5.568-31.424v-64.981334c0-17.408 1.770667-24.192 5.12-30.570666a42.666667 42.666667 0 0 1 1.344-2.901334l1.621334-1.962666c1.152-1.578667 2.389333-3.050667 3.754666-4.416 6.933333-8.106667 12.330667-13.973333 16.213334-17.514667 6.784-6.357333 12.245333-12.693333 15.317333-21.973333 0.533333-2.858667 7.210667-19.925333 20.074667-51.157334 5.504-9.429333 11.712-16.810667 18.346666-21.845333 6.549333-5.034667 21.674667-7.722667 30.549334-7.722667h158.784c8.874667 0 24 2.688 30.528 7.722667 6.656 5.034667 12.864 12.416 18.346666 21.845333 12.949333 31.573333 19.690667 48.874667 20.245334 51.882667 3.413333 9.28 9.066667 15.04 15.701333 21.248 3.882667 3.541333 9.28 9.386667 16.213333 17.514667 1.365333 1.365333 2.602667 2.837333 3.754667 4.416l1.621333 1.962666c0.490667 0.96 0.938667 1.92 1.344 2.922667 3.093333 5.866667 4.842667 12.096 5.098667 26.666667l0.021333 2.410666V694.378667c0 18.176-1.92 24.768-5.568 31.424-3.626667 6.656-8.981333 11.861333-15.786666 15.424-6.805333 3.541333-13.546667 5.44-32.149334 5.44h-2.794666c0-1.450667-0.149333-2.901333-0.469334-4.373334z" fill="#515151" p-id="13210"></path><path d="M694.101333 722.304a16.192 16.192 0 0 0 6.933334-6.741333c2.197333-3.989333 2.965333-7.893333 2.965333-21.184v-65.408-1.066667l-0.021333-2.005333c-0.192-10.112-0.896-13.717333-3.264-18.496l-0.789334-0.96a29.354667 29.354667 0 0 0-2.645333-3.050667c-6.421333-7.509333-11.306667-12.8-14.592-15.786667-10.944-10.261333-16.768-17.621333-21.12-29.44l-1.002667-3.626666a1691.989333 1691.989333 0 0 0-18.346666-46.101334c-3.968-6.528-8.106667-11.370667-12.245334-14.506666-1.322667-1.002667-11.242667-3.264-17.514666-3.264h-158.784c-6.272 0-16.192 2.261333-17.664 3.413333-3.989333 2.986667-8.149333 7.850667-12.096 14.357333a1839.466667 1839.466667 0 0 0-18.24 45.525334l-0.725334 2.794666c-4.032 12.202667-10.517333 21.056-21.12 30.997334-3.114667 2.837333-8.021333 8.128-15.488 16.789333-0.576 0.576-1.066667 1.173333-2.432 2.944l-0.554666 1.237333c-1.92 3.626667-2.688 7.829333-2.688 20.672v64.981334c0 13.290667 0.768 17.194667 2.965333 21.184a16.192 16.192 0 0 0 6.933333 6.741333c2.112 1.109333 4.181333 1.856 7.424 2.346667l16-76.416A64 64 0 0 1 458.602667 597.333333h149.418666a64 64 0 0 1 62.634667 50.901334l16 76.394666c3.221333-0.469333 5.333333-1.216 7.424-2.325333z" fill="#515151" p-id="13211"></path><path d="M469.333333 512h128a32 32 0 0 1 0 64h-128a32 32 0 0 1 0-64z" fill="#515151" p-id="13212"></path><path d="M469.333333 533.333333a10.666667 10.666667 0 1 0 0 21.333334h128a10.666667 10.666667 0 1 0 0-21.333334h-128z" fill="#515151" p-id="13213"></path><path d="M362.666667 778.666667h64a32 32 0 0 1 0 64h-64a32 32 0 0 1 0-64z" fill="#515151" p-id="13214"></path><path d="M362.666667 800a10.666667 10.666667 0 1 0 0 21.333333h64a10.666667 10.666667 0 1 0 0-21.333333h-64z" fill="#515151" p-id="13215"></path><path d="M640 778.666667h64a32 32 0 0 1 0 64h-64a32 32 0 0 1 0-64z" fill="#515151" p-id="13216"></path><path d="M640 800a10.666667 10.666667 0 1 0 0 21.333333h64a10.666667 10.666667 0 1 0 0-21.333333h-64z" fill="#515151" p-id="13217"></path><path d="M970.666667 917.333333v-53.333333a10.666667 10.666667 0 1 0-21.333334 0V917.333333a10.666667 10.666667 0 1 0 21.333334 0zM970.666667 832v-10.666667a10.666667 10.666667 0 1 0-21.333334 0v10.666667a10.666667 10.666667 0 1 0 21.333334 0zM245.333333 917.333333v-53.333333a10.666667 10.666667 0 1 0-21.333333 0V917.333333a10.666667 10.666667 0 1 0 21.333333 0zM245.333333 832v-10.666667a10.666667 10.666667 0 1 0-21.333333 0v10.666667a10.666667 10.666667 0 1 0 21.333333 0z" fill="#515151" p-id="13218"></path></svg>