<?xml version="1.0" standalone="no"?><!DOCTYPE svg PUBLIC "-//W3C//DTD SVG 1.1//EN" "http://www.w3.org/Graphics/SVG/1.1/DTD/svg11.dtd"><svg t="1603351192356" class="icon" viewBox="0 0 1024 1024" version="1.1" xmlns="http://www.w3.org/2000/svg" p-id="3091" xmlns:xlink="http://www.w3.org/1999/xlink" width="128" height="128"><defs><style type="text/css"></style></defs><path d="M484.8 676.8a27.2 27.2 0 1 0 54.4 0 27.2 27.2 0 1 0-54.4 0zM302.4 521.6C352 460.8 427.2 420.8 512 420.8s160 40 209.6 100.8l40-36.8C700.8 414.4 611.2 368 512 368c-100.8 0-188.8 46.4-248 116.8l38.4 36.8z" p-id="3092"></path><path d="M371.2 587.2c32-43.2 83.2-70.4 140.8-70.4 57.6 0 108.8 27.2 140.8 70.4l40-36.8c-41.6-52.8-107.2-88-179.2-88-73.6 0-137.6 33.6-179.2 88l36.8 36.8z" p-id="3093"></path><path d="M441.6 651.2c14.4-25.6 40-41.6 70.4-41.6 30.4 0 57.6 17.6 70.4 41.6l40-36.8c-24-35.2-64-57.6-110.4-57.6-46.4 0-86.4 22.4-110.4 57.6l40 36.8zM512 48c-56 0-104 41.6-110.4 96C246.4 192 132.8 332.8 128 504l64 1.6c3.2-137.6 94.4-254.4 219.2-296 17.6 36.8 56 64 100.8 64 62.4 0 112-49.6 112-112S574.4 48 512 48z m0 160c-27.2 0-48-20.8-48-48s20.8-48 48-48 48 20.8 48 48-20.8 48-48 48z m190.4 636.8l-32-56C548.8 859.2 400 840 300.8 752c12.8-17.6 19.2-40 19.2-64 0-62.4-49.6-112-112-112S96 625.6 96 688s49.6 112 112 112c14.4 0 28.8-3.2 41.6-8 120 112 304 139.2 452.8 52.8zM160 688c0-27.2 20.8-48 48-48s48 20.8 48 48-20.8 48-48 48-48-20.8-48-48z m724.8-88c38.4-163.2-33.6-337.6-185.6-422.4l-32 56c124.8 68.8 184 209.6 156.8 344h-9.6c-62.4 0-112 49.6-112 112s49.6 112 112 112 112-49.6 112-112c1.6-36.8-14.4-68.8-41.6-89.6zM816 736c-27.2 0-48-20.8-48-48s20.8-48 48-48 48 20.8 48 48-20.8 48-48 48z" p-id="3094"></path></svg>