<?xml version="1.0" standalone="no"?><!DOCTYPE svg PUBLIC "-//W3C//DTD SVG 1.1//EN" "http://www.w3.org/Graphics/SVG/1.1/DTD/svg11.dtd"><svg t="1603346929230" class="icon" viewBox="0 0 1024 1024" version="1.1" xmlns="http://www.w3.org/2000/svg" p-id="19288" xmlns:xlink="http://www.w3.org/1999/xlink" width="128" height="128"><defs><style type="text/css"></style></defs><path d="M120.4736 722.82112V632.4736H45.184a45.17376 45.17376 0 1 1 0-90.34752H120.47872V451.7632H45.184a45.17888 45.17888 0 0 1 0-90.35264H120.47872V271.05792H45.184a45.17376 45.17376 0 0 1-45.1584-45.19424 45.17376 45.17376 0 0 1 45.1584-45.1584H120.47872V120.46848C120.4736 53.9392 174.4128 0 240.9472 0h662.58944C970.06592 0 1024.00512 53.9392 1024.00512 120.46848V903.5264c0 66.5344-53.9392 120.4736-120.46848 120.4736H240.9472c-66.5344 0-120.46848-53.9392-120.46848-120.46848v-90.34752H45.184a45.184 45.184 0 0 1 0-90.36288h75.2896z m486.99904-421.64224h-276.1728a30.11584 30.11584 0 0 0 0 60.23168h276.1728c16.60928 47.07328 68.23936 71.76704 115.30752 55.15776a90.38848 90.38848 0 0 0 55.15776-55.15776h35.24096a30.11072 30.11072 0 0 0 30.10048-30.1312 30.11584 30.11584 0 0 0-30.10048-30.1056h-35.24096c-16.60928-47.07328-68.23424-71.77216-115.30752-55.15776a90.4192 90.4192 0 0 0-55.15776 55.16288z m85.23776 0a30.11584 30.11584 0 1 1 0.0256 60.2368h-0.0256a30.11584 30.11584 0 1 1 0-60.2368z m-326.17472 301.16864h-35.23584a30.12608 30.12608 0 0 0 0 60.24192h35.23584c16.60928 47.06816 68.23424 71.77216 115.30752 55.15776a90.39872 90.39872 0 0 0 55.16288-55.15776h276.17792a30.12096 30.12096 0 0 0 0-60.24192h-276.17792c-16.60928-47.06816-68.23936-71.76704-115.30752-55.15264a90.37824 90.37824 0 0 0-55.16288 55.15264z m85.23264 0a30.12608 30.12608 0 0 1 0.0256 60.24192h-0.02048a30.12608 30.12608 0 0 1-0.00512-60.24192z" p-id="19289"></path></svg>