<?xml version="1.0" standalone="no"?><!DOCTYPE svg PUBLIC "-//W3C//DTD SVG 1.1//EN" "http://www.w3.org/Graphics/SVG/1.1/DTD/svg11.dtd"><svg t="1603334236883" class="icon" viewBox="0 0 1024 1024" version="1.1" xmlns="http://www.w3.org/2000/svg" p-id="23428" xmlns:xlink="http://www.w3.org/1999/xlink" width="128" height="128"><defs><style type="text/css"></style></defs><path d="M645.23 929c-33.81 0-56.54-0.56-73.85-2.59-28.26-3.32-44.16-10.85-60.65-23.32-37-1.45-69.42-66.22-89.46-164.2 18.88-1.31 38.19-2.35 58.08-2.93 0.85-1.29 1.71-2.58 2.61-3.86a125.42 125.42 0 0 1 50.61-41.91q1.27-5.19 2.82-10.26-11.6-0.28-23.39-0.29c-34.61 0-67.85 1.84-99.84 4.78A1236.32 1236.32 0 0 1 400.25 512h223.5q0 29.89-1.34 58.43c5.61-3.26 11.42-6.29 17.43-9a195.73 195.73 0 0 1 39.21-13q0.57-18 0.57-36.37h223.5a378.73 378.73 0 0 1-20.28 122.34c2.73 4.26 5 8.21 6.93 11.71a147.61 147.61 0 0 1 40 25.09A445.84 445.84 0 0 0 959 512c0-246.86-200.13-447-447-447S65 265.14 65 512s200.12 447 447 447a445.82 445.82 0 0 0 161.5-30.1c-10.21 0.1-19.61 0.1-28.27 0.1zM401.86 456.12c1.71-41.5 5.55-80.37 10.65-116.63 31.85 3 65 4.86 99.49 4.86s67.64-1.86 99.5-4.86c5.09 36.26 8.92 75.13 10.64 116.63zM829.3 285.66c35.37 49.55 59.87 107.37 69 170.46h-220a1061.35 1061.35 0 0 0-13-123.22c66.15-10.12 122.57-26.55 164-47.24z m-19.95-25.1h-48c-29.63 8.26-65.9 14.95-106.4 19.78-13.79-60.34-32.68-111.65-55.28-148.79 83.66 19.24 156.22 65.77 209.68 129.01zM512 120.87c37.4 0 70 65.29 90.16 164.18-28.85 2-58.68 3.48-90.16 3.48s-61.3-1.45-90.16-3.48C442 186.16 474.6 120.87 512 120.87z m-87.68 10.68c-22.6 37.14-41.48 88.4-55.3 148.79-40.5-4.83-76.78-11.52-106.4-19.78h-48c53.49-63.24 126.05-109.77 209.7-129.01zM194.7 285.66c41.43 20.69 97.85 37.12 164.09 47.24a1061.35 1061.35 0 0 0-13 123.22h-220c9.04-63.12 33.54-120.92 68.91-170.46z m-1 450.93C148.46 673 120.88 596.06 120.88 512h223.5a1104.11 1104.11 0 0 0 14.21 178.83c-66.17 9.82-122.81 25.69-164.93 45.76z m20.06 26.85H259c30.58-8.41 68-15.24 110-20.08 13.85 60.49 32.76 111.89 55.4 149.06-83.85-19.24-156.96-65.67-210.68-128.98z" p-id="23429"></path><path d="M829.58 848.32c-234.83 0-250 6.91-272.46-9.77-47.18-34.95 7.92-107.47 55.09-70.06-46.27-152 187.37-203.35 217.49-54.56 88.74-3.15 95.76 134.41-0.12 134.41m34.89-174.2s-15.8-40.74-57.57-68.65c-97.3-64.91-228.72-4.34-243.57 110.42-0.12 0.83-1.35 0.88-0.68 0.72a90.33 90.33 0 0 0-52.08 35.63C485.47 787.89 488.33 840 527 871.37c35.83 29.07 46.82 21.83 299.79 21.83a121.78 121.78 0 0 0 79-29.1c67.52-57.89 42.29-164.64-41.27-190" p-id="23430"></path></svg>