<?xml version="1.0" standalone="no"?><!DOCTYPE svg PUBLIC "-//W3C//DTD SVG 1.1//EN" "http://www.w3.org/Graphics/SVG/1.1/DTD/svg11.dtd"><svg t="1590132280270" class="icon" viewBox="0 0 1024 1024" version="1.1" xmlns="http://www.w3.org/2000/svg" p-id="16771" xmlns:xlink="http://www.w3.org/1999/xlink" width="250" height="250"><defs><style type="text/css"></style></defs><path d="M835.072 1020.416H171.52c-46.08 0-82.944-37.376-82.944-82.944V88.576c0-46.08 37.376-82.944 82.944-82.944h663.552c46.08 0 82.944 37.376 82.944 82.944V936.96c0 46.08-36.864 83.456-82.944 83.456zM171.52 69.12c-10.24 0-19.456 8.704-19.456 19.456V936.96c0 10.24 8.704 19.456 19.456 19.456h663.552c10.24 0 19.456-8.704 19.456-19.456V88.576c0-10.24-8.704-19.456-19.456-19.456H171.52z" p-id="16772"></path><path d="M348.672 177.664h308.736v64H348.672zM243.2 336.384h520.192v64H243.2zM243.2 490.496h520.192v64H243.2zM631.808 920.576c-76.8 0-139.776-62.464-139.776-139.776s62.464-139.776 139.776-139.776 139.776 62.464 139.776 139.776-62.976 139.776-139.776 139.776z m0-215.552c-41.984 0-75.776 33.792-75.776 75.776s33.792 75.776 75.776 75.776 75.776-33.792 75.776-75.776-34.304-75.776-75.776-75.776z" p-id="16773"></path><path d="M599.552 748.544h64v64h-64zM244.736 748.544H399.36v64H244.736z" p-id="16774"></path></svg>