<?xml version="1.0" standalone="no"?><!DOCTYPE svg PUBLIC "-//W3C//DTD SVG 1.1//EN" "http://www.w3.org/Graphics/SVG/1.1/DTD/svg11.dtd"><svg t="1603334743188" class="icon" viewBox="0 0 1024 1024" version="1.1" xmlns="http://www.w3.org/2000/svg" p-id="28031" xmlns:xlink="http://www.w3.org/1999/xlink" width="128" height="128"><defs><style type="text/css"></style></defs><path d="M749.333333 421.333333H688a149.333333 149.333333 0 0 1-149.333333-149.333333V170.666667H298.666667a85.333333 85.333333 0 0 0-85.333334 85.333333v512a85.333333 85.333333 0 0 0 85.333334 85.333333h112v85.333334H298.666667a170.666667 170.666667 0 0 1-170.666667-170.666667V256a170.666667 170.666667 0 0 1 170.666667-170.666667h348.736a85.333333 85.333333 0 0 1 60.416 25.045334l163.242666 163.605333A85.333333 85.333333 0 0 1 896 334.250667v87.082666h-146.666667z m55.082667-93.333333L647.402667 170.666667h-15.402667v82.666666a74.666667 74.666667 0 0 0 74.666667 74.666667h97.749333zM301.333333 309.333333h176a42.666667 42.666667 0 0 1 0 85.333334h-176a42.666667 42.666667 0 0 1 0-85.333334z m0 149.333334h64a42.666667 42.666667 0 0 1 0 85.333333h-64a42.666667 42.666667 0 0 1 0-85.333333z" p-id="28032"></path><path d="M554.666667 647.466667v134.4l128 70.549333 128-70.549333v-134.4l-128-70.549334-128 70.549334z m165.888-147.114667l137.557333 75.818667c23.445333 12.928 37.888 36.821333 37.888 62.677333v151.637333c0 25.856-14.442667 49.749333-37.888 62.677334l-137.557333 75.818666a78.933333 78.933333 0 0 1-75.776 0l-137.557334-75.818666C483.776 840.234667 469.333333 816.341333 469.333333 790.485333v-151.637333c0-25.856 14.442667-49.749333 37.888-62.677333l137.557334-75.818667a78.933333 78.933333 0 0 1 75.776 0zM682.666667 778.666667a64 64 0 1 1 0-128 64 64 0 0 1 0 128z" p-id="28033"></path></svg>