<?xml version="1.0" standalone="no"?><!DOCTYPE svg PUBLIC "-//W3C//DTD SVG 1.1//EN" "http://www.w3.org/Graphics/SVG/1.1/DTD/svg11.dtd"><svg t="1603335231346" class="icon" viewBox="0 0 1029 1024" version="1.1" xmlns="http://www.w3.org/2000/svg" p-id="37232" xmlns:xlink="http://www.w3.org/1999/xlink" width="128.625" height="128"><defs><style type="text/css"></style></defs><path d="M1023.948392 368.44869a531.4813 531.4813 0 0 0-47.319725-115.413963 57.706982 57.706982 0 0 0-64.054749-27.122282 93.48531 93.48531 0 0 1-88.868752-23.659862 91.754101 91.754101 0 0 1-23.082792-84.252193 57.706982 57.706982 0 0 0-28.276421-63.47768A508.398507 508.398507 0 0 0 659.817339 2.586427a57.706982 57.706982 0 0 0-67.517169 27.122281 91.177031 91.177031 0 0 1-78.481495 43.857306A90.599961 90.599961 0 0 1 435.91425 32.016987 57.706982 57.706982 0 0 0 368.397082 2.586427 508.398507 508.398507 0 0 0 255.868468 51.637361 57.706982 57.706982 0 0 0 227.592047 118.00039a90.599961 90.599961 0 0 1-23.659862 85.983402A91.754101 91.754101 0 0 1 117.371712 227.643655a57.706982 57.706982 0 0 0-64.054749 27.122281 531.4813 531.4813 0 0 0-47.319725 115.413963A57.706982 57.706982 0 0 0 31.96538 435.388788a90.599961 90.599961 0 0 1 43.857306 77.904425 90.599961 90.599961 0 0 1-47.319725 79.635635A57.706982 57.706982 0 0 0 1.957749 657.560667a555.718232 555.718232 0 0 0 46.742655 115.413963A57.706982 57.706982 0 0 0 117.371712 798.942772a91.177031 91.177031 0 0 1 111.951544 111.951544 57.706982 57.706982 0 0 0 28.276421 64.05475 491.086413 491.086413 0 0 0 115.413963 46.742655 57.706982 57.706982 0 0 0 66.363029-27.699351 90.599961 90.599961 0 0 1 61.74647-42.126097 20.774513 20.774513 0 0 0 16.157955-20.774513v-230.827926a23.082793 23.082793 0 0 0-21.351583-22.505723A166.773177 166.773177 0 0 1 348.199638 513.293213a158.694199 158.694199 0 0 1 0-32.892979A166.196107 166.196107 0 0 1 481.502766 348.828316a156.38592 156.38592 0 0 1 32.315909 0 167.350246 167.350246 0 0 1 166.196107 145.421594 22.505723 22.505723 0 0 0 22.505723 21.351583h230.827926a19.043304 19.043304 0 0 0 19.620374-15.003815 91.754101 91.754101 0 0 1 42.703166-62.90061 57.706982 57.706982 0 0 0 28.276421-69.248378z" p-id="37233"></path><path d="M960.470712 631.015456h-339.317051a43.280236 43.280236 0 0 0 0 86.560472h339.317051a43.280236 43.280236 0 0 0 0-86.560472zM960.470712 778.168259h-339.317051a43.280236 43.280236 0 0 0 0 86.560472h339.317051a43.280236 43.280236 0 0 0 0-86.560472zM960.470712 925.898131h-339.317051a43.280236 43.280236 0 0 0 0 86.560473h339.317051a43.280236 43.280236 0 0 0 0-86.560473z" p-id="37234"></path></svg>