<?xml version="1.0" standalone="no"?><!DOCTYPE svg PUBLIC "-//W3C//DTD SVG 1.1//EN" "http://www.w3.org/Graphics/SVG/1.1/DTD/svg11.dtd"><svg t="1590132239894" class="icon" viewBox="0 0 1024 1024" version="1.1" xmlns="http://www.w3.org/2000/svg" p-id="15250" xmlns:xlink="http://www.w3.org/1999/xlink" width="250" height="250"><defs><style type="text/css"></style></defs><path d="M512.668219 383.119701c-70.609151 0-127.850853 57.240679-127.850853 127.850853s57.240679 127.850853 127.850853 127.850853 127.850853-57.240679 127.850853-127.850853S583.278393 383.119701 512.668219 383.119701L512.668219 383.119701zM512.668219 574.895469c-35.305087 0-63.925938-28.620851-63.925938-63.925938 0-35.304064 28.620851-63.924915 63.925938-63.924915 35.305087 0 63.925938 28.620851 63.925938 63.924915C576.594157 546.275641 547.973306 574.895469 512.668219 574.895469L512.668219 574.895469z" p-id="15251"></path><path d="M853.397461 560.061622l-23.118534-13.348006c2.679016-23.622 2.743484-47.614437 0.064468-71.523987l23.053042-13.310144c61.149708-35.305087 82.101903-113.496937 46.796816-174.646646-35.305087-61.149708-113.496937-82.101903-174.646646-46.796816l-23.053042 13.310144c-19.368116-14.275121-40.178071-26.216081-61.975517-35.706223l0-26.694989c0-70.610174-57.240679-127.850853-127.850853-127.850853s-127.848807 57.240679-127.848807 127.850853l0 26.675546c-10.82044 4.734838-21.494547 10.102079-31.961946 16.145725-10.469446 6.04467-20.453844 12.604062-29.964452 19.606547l-23.102161-13.337773c-61.148685-35.305087-139.341558-14.352893-174.646646 46.796816-35.305087 61.149708-14.352893 139.342582 46.795792 174.646646l23.119557 13.348006c-2.680039 23.623024-2.744507 47.615461-0.066515 71.523987l-23.053042 13.310144c-61.149708 35.305087-82.10088 113.49796-46.795792 174.646646 35.305087 61.149708 113.49796 82.101903 174.646646 46.796816l23.054065-13.310144c19.368116 14.274098 40.178071 26.215058 61.975517 35.706223l0 26.694989c0 70.610174 57.240679 127.850853 127.850853 127.850853s127.850853-57.240679 127.850853-127.850853l0-26.675546c10.82044-4.734838 21.494547-10.101055 31.961946-16.145725 10.469446-6.043646 20.453844-12.604062 29.964452-19.606547l23.102161 13.337773c61.149708 35.305087 139.341558 14.352893 174.646646-46.796816C935.499363 673.558559 914.548192 595.366709 853.397461 560.061622L853.397461 560.061622zM844.833411 702.746322c-17.653055 30.574343-56.748469 41.050951-87.323834 23.397896l-55.360865-31.961946 0 0 0 0-6.984065-4.03285c-15.84999 16.126282-34.109866 30.408567-54.647621 42.264593-20.535709 11.857049-42.034349 20.529569-63.924915 26.192545l0 8.064676 0 0 0 57.538461 0 6.386454c0 35.305087-28.620851 63.925938-63.925938 63.925938-35.304064 0-63.924915-28.620851-63.924915-63.925938l0-6.472412 0-57.45148 0 0 0-8.133238c-44.305065-11.44261-85.541235-34.68701-118.579699-68.384483l-6.975878 4.027733 0 0-55.361889 31.961946c-30.574343 17.653055-69.669756 7.176446-87.322811-23.397896s-7.17747-69.671803 23.397896-87.323834l5.542226-3.199878 0 0 56.794517-32.790824c-12.663414-45.461401-12.175297-92.794429 0.066515-136.885624l-7.043417-4.066619 0 0-55.360865-31.961946c-30.574343-17.653055-41.050951-56.748469-23.397896-87.323834 17.653055-30.574343 56.748469-41.049928 87.323834-23.396873l5.53097 3.193739 0 0 56.811914 32.80208c15.851013-16.126282 34.110889-30.408567 54.647621-42.264593 20.537755-11.856026 42.035372-20.529569 63.925938-26.193569l0-8.064676 0-57.538461 0-6.387477c0-35.305087 28.620851-63.924915 63.924915-63.924915 35.305087 0 63.925938 28.618804 63.925938 63.924915l0 6.472412 0 57.453527 0 8.133238c44.305065 11.44261 85.541235 34.68701 118.578676 68.38346l42.384319-24.470321 19.953448-11.520381c30.575366-17.653055 69.671803-7.176446 87.323834 23.397896 17.653055 30.575366 7.176446 69.671803-23.397896 87.323834l-26.943652 15.556301-28.417213 16.405645 0 0 0 0-6.976902 4.027733c12.664438 45.461401 12.175297 92.793406-0.066515 136.8846l56.798611 32.791847 0 0 5.605671 3.236718C852.010881 633.074519 862.486466 672.171979 844.833411 702.746322L844.833411 702.746322z" p-id="15252"></path></svg>