<?xml version="1.0" standalone="no"?><!DOCTYPE svg PUBLIC "-//W3C//DTD SVG 1.1//EN" "http://www.w3.org/Graphics/SVG/1.1/DTD/svg11.dtd"><svg t="1603346163685" class="icon" viewBox="0 0 1024 1024" version="1.1" xmlns="http://www.w3.org/2000/svg" p-id="11464" xmlns:xlink="http://www.w3.org/1999/xlink" width="128" height="128"><defs><style type="text/css"></style></defs><path d="M877.714286 0c80.822857 0 146.285714 65.536 146.285714 146.285714v731.428572a146.285714 146.285714 0 0 1-146.285714 146.285714H146.285714c-80.749714 0-146.285714-65.462857-146.285714-146.285714V146.285714a146.285714 146.285714 0 0 1 146.285714-146.285714z m-73.508572 119.661714h-584.411428c-50.029714 0-90.697143 40.667429-90.697143 90.770286v393.801143a90.697143 90.697143 0 0 0 90.697143 90.770286h584.411428a90.697143 90.697143 0 0 0 90.697143-90.697143V210.358857a90.697143 90.697143 0 0 0-90.697143-90.697143zM298.861714 259.072a36.571429 36.571429 0 0 1 36.571429 36.571429V549.302857a36.571429 36.571429 0 0 1-73.142857 0V295.643429a36.571429 36.571429 0 0 1 36.571428-36.571429z m213.138286 0a36.571429 36.571429 0 0 1 36.571429 36.571429V549.302857a36.571429 36.571429 0 0 1-73.142858 0V295.643429a36.571429 36.571429 0 0 1 36.571429-36.571429z m213.138286 0a36.571429 36.571429 0 0 1 36.571428 36.571429V549.302857a36.571429 36.571429 0 0 1-73.142857 0V295.643429a36.571429 36.571429 0 0 1 36.571429-36.571429z" p-id="11465"></path></svg>