<?xml version="1.0" standalone="no"?><!DOCTYPE svg PUBLIC "-//W3C//DTD SVG 1.1//EN" "http://www.w3.org/Graphics/SVG/1.1/DTD/svg11.dtd"><svg t="1603346703110" class="icon" viewBox="0 0 1024 1024" version="1.1" xmlns="http://www.w3.org/2000/svg" p-id="17039" xmlns:xlink="http://www.w3.org/1999/xlink" width="128" height="128"><defs><style type="text/css"></style></defs><path d="M832 128a64 64 0 0 1 64 64v512a64 64 0 0 1-64 64H192a64 64 0 0 1-64-64V192a64 64 0 0 1 64-64h640m0-64H192A128 128 0 0 0 64 192v512a128 128 0 0 0 128 128h640a128 128 0 0 0 128-128V192A128 128 0 0 0 832 64z m0 896H192a32 32 0 0 1 0-64h640a32 32 0 0 1 0 64z" p-id="17040"></path><path d="M761.6 392v-8H752a78.4 78.4 0 0 1-65.6-36.8A75.2 75.2 0 0 1 688 272l3.2-6.4-6.4-6.4a252.8 252.8 0 0 0-96-56h-8L576 208a72 72 0 0 1-128 0l-4.8-6.4h-8a252.8 252.8 0 0 0-96 56l-6.4 6.4 3.2 6.4a75.2 75.2 0 0 1 1.6 75.2A78.4 78.4 0 0 1 272 384h-8v8a222.4 222.4 0 0 0-8 56 222.4 222.4 0 0 0 6.4 56v8h9.6a78.4 78.4 0 0 1 65.6 36.8A75.2 75.2 0 0 1 336 624l-3.2 6.4 6.4 6.4a252.8 252.8 0 0 0 96 56h8l4.8-4.8a72 72 0 0 1 128 0l4.8 6.4h8a252.8 252.8 0 0 0 96-56l6.4-6.4-3.2-8a75.2 75.2 0 0 1-1.6-75.2A78.4 78.4 0 0 1 752 512h8v-8a222.4 222.4 0 0 0 8-56 222.4 222.4 0 0 0-6.4-56zM584 448a72 72 0 1 1-72-72 72 72 0 0 1 72 72z" p-id="17041"></path></svg>