<?xml version="1.0" encoding="utf-8"?>
<!-- Generator: Adobe Illustrator 23.0.2, SVG Export Plug-In . SVG Version: 6.00 Build 0)  -->
<svg version="1.1" xmlns="http://www.w3.org/2000/svg" xmlns:xlink="http://www.w3.org/1999/xlink" x="0px" y="0px"
	 viewBox="0 0 400 400" style="enable-background:new 0 0 400 400;" xml:space="preserve">
<style type="text/css">
	.st0{display:none;}
	.st1{display:inline;opacity:0.23;fill:#DADADA;}
	.st2{display:inline;fill:#FFFFFF;}
	.st3{display:inline;}
	.st4{opacity:0.37;fill:#7F95FF;}
	.st5{fill:none;stroke:#4E4F57;stroke-width:1.4;stroke-miterlimit:10;}
	.st6{opacity:0.45;}
	.st7{fill:none;stroke:#0A0B1F;stroke-miterlimit:10;}
	.st8{fill:none;stroke:#0A0B1F;stroke-miterlimit:10;stroke-dasharray:5.2501,5.2501;}
	.st9{fill:none;stroke:#7F95FF;stroke-width:1.4;stroke-miterlimit:10;}
	.st10{fill:#7F95FF;}
	.st11{fill:#FFAA00;}
	.st12{fill:#FFFFFF;}
	.st13{display:inline;fill:none;stroke:#0A0B1F;stroke-width:1.4;stroke-miterlimit:10;}
	.st14{display:inline;opacity:0.41;}
	.st15{fill:none;stroke:#0A0B1F;stroke-width:1.4;stroke-miterlimit:10;}
	.st16{fill:none;stroke:#0A0B1F;stroke-width:1.4;stroke-miterlimit:10;stroke-dasharray:3.0474,3.0474;}
	.st17{fill:#FF7447;stroke:#28282D;stroke-miterlimit:10;}
	.st18{fill:none;stroke:#FFFFFF;stroke-width:1.4;stroke-miterlimit:10;}
	.st19{fill:#010048;}
	.st20{fill:#0A0B1F;}
	.st21{display:none;fill:none;stroke:#010048;stroke-width:1.4;stroke-miterlimit:10;}
	.st22{fill:#FFFFFF;stroke:#28282D;stroke-miterlimit:10;}
	.st23{opacity:0.39;}
	.st24{fill:none;stroke:#0A0B1F;stroke-width:1.4;stroke-miterlimit:10;stroke-dasharray:4.9919,4.9919;}
	.st25{fill:none;stroke:#0A0B1F;stroke-width:1.4;stroke-miterlimit:10;stroke-dasharray:5.0137,5.0137;}
	.st26{fill:#FFFFFF;stroke:#28282D;stroke-width:1.4;stroke-miterlimit:10;}
	.st27{fill:#28282D;}
	.st28{fill:#FFFFFF;stroke:#0A0B1F;stroke-width:1.4;stroke-miterlimit:10;}
	.st29{display:inline;fill:none;stroke:#7F95FF;stroke-width:1.4;stroke-miterlimit:10;}
	.st30{display:inline;opacity:0.45;fill:none;stroke:#0A0B1F;stroke-width:1.4;stroke-miterlimit:10;}
	.st31{display:inline;opacity:0.37;fill:#7F95FF;}
	.st32{display:inline;fill:#7F95FF;}
	.st33{display:inline;fill:#0A0B1F;}
	.st34{display:inline;fill:none;stroke:#28282D;stroke-width:1.4;stroke-miterlimit:10;}
	.st35{opacity:0.45;fill:none;stroke:#0A0B1F;stroke-width:1.4;stroke-miterlimit:10;}
	.st36{fill:none;stroke:#0A0B1F;stroke-width:1.4;stroke-miterlimit:10;stroke-dasharray:5.4118,5.4118;}
	.st37{display:inline;opacity:0.57;fill:none;stroke:#FFAA00;stroke-width:1.4;stroke-miterlimit:10;}
	.st38{display:inline;fill:#FFAA00;}
	.st39{fill:#FF7447;}
	.st40{fill:none;stroke:#28282D;stroke-width:1.4;stroke-miterlimit:10;}
	.st41{display:inline;fill:#161413;stroke:#28282D;stroke-miterlimit:10;}
	.st42{display:inline;fill:none;stroke:#25262E;stroke-miterlimit:10;}
	.st43{display:inline;fill:#FFFFFF;stroke:#28282D;stroke-miterlimit:10;}
	.st44{display:inline;fill:#FF7447;stroke:#28282D;stroke-miterlimit:10;}
	.st45{display:inline;fill:none;stroke:#FFFFFF;stroke-width:1.4;stroke-miterlimit:10;}
	.st46{display:inline;fill:#28282D;}
	.st47{display:inline;fill:#FFFFFF;stroke:#040405;stroke-miterlimit:10;}
	.st48{display:inline;fill:none;stroke:#040405;stroke-miterlimit:10;}
	.st49{opacity:0.23;fill:#DADADA;}
	.st50{fill:none;stroke:#0A0B1F;stroke-width:1.4;stroke-miterlimit:10;stroke-dasharray:4.8509,4.8509;}
	.st51{display:none;opacity:0.45;fill:none;stroke:#0A0B1F;stroke-width:1.4;stroke-miterlimit:10;}
	.st52{fill:none;stroke:#0A0B1F;stroke-width:1.4;stroke-miterlimit:10;stroke-dasharray:4.5266,4.5266;}
	.st53{fill:#161413;stroke:#28282D;stroke-miterlimit:10;}
	.st54{fill:#FFFFFF;stroke:#25262E;stroke-miterlimit:10;}
	.st55{fill:none;stroke:#25262E;stroke-miterlimit:10;}
	.st56{display:none;fill:#FFFFFF;stroke:#28282D;stroke-miterlimit:10;}
	.st57{opacity:0.57;fill:none;stroke:#FFAA00;stroke-width:1.4;stroke-miterlimit:10;}
	.st58{fill:#CDD8FF;}
</style>
<g id="图层_1" class="st0">
	<path class="st1" d="M277.67,46.08c-5.92-0.29-11.83,0.67-17.35,2.81C234.8,58.79,142.03,92.78,79,89.73
		C5.31,86.16,3.5,254.62,105.46,253.75c101.96-0.87,85.01,81.54,85.01,81.54s129.43,63.61,172.55-26.48
		C404.64,221.87,373.03,50.79,277.67,46.08z"/>
	<path class="st1" d="M33,299.89c0,0-4.73,25.81,27.57,37.47c0,0,3.76,0.87,1.51-4.27c-2.25-5.15-20.66,0.26-26.53-28.76
		C35.55,304.33,35.28,297.63,33,299.89z"/>
	<path class="st1" d="M44.57,298c0,0-3.26,17.82,19.04,25.88c0,0,2.6,0.6,1.04-2.95c-1.55-3.55-14.26,0.18-18.32-19.86
		C46.33,301.07,46.15,296.44,44.57,298z"/>
	<path class="st2" d="M224.72,188H58.69c-4.22,0-7.68-3.45-7.68-7.68V77.41c0-4.22,3.45-7.68,7.68-7.68h166.03
		c4.22,0,7.68,3.45,7.68,7.68v102.91C232.4,184.55,228.95,188,224.72,188z"/>
	<g class="st3">
		<path class="st4" d="M82.93,136.28h-9.1c-1.39,0-2.53-1.14-2.53-2.53v-9.1c0-1.39,1.14-2.53,2.53-2.53h9.1
			c1.39,0,2.53,1.14,2.53,2.53v9.1C85.46,135.14,84.32,136.28,82.93,136.28z"/>
		<path class="st5" d="M79.11,132.74H67.9c-1.39,0-2.53-1.14-2.53-2.53V119c0-1.39,1.14-2.53,2.53-2.53h11.21
			c1.39,0,2.53,1.14,2.53,2.53v11.21C81.64,131.6,80.5,132.74,79.11,132.74z"/>
		<path class="st4" d="M130.6,136.28h-9.1c-1.39,0-2.53-1.14-2.53-2.53v-9.1c0-1.39,1.14-2.53,2.53-2.53h9.1
			c1.39,0,2.53,1.14,2.53,2.53v9.1C133.13,135.14,131.99,136.28,130.6,136.28z"/>
		<path class="st5" d="M126.78,132.74h-11.21c-1.39,0-2.53-1.14-2.53-2.53V119c0-1.39,1.14-2.53,2.53-2.53h11.21
			c1.39,0,2.53,1.14,2.53,2.53v11.21C129.31,131.6,128.17,132.74,126.78,132.74z"/>
		<g class="st6">
			<g>
				<line class="st7" x1="66.37" y1="152.81" x2="68.87" y2="152.81"/>
				<line class="st8" x1="74.12" y1="152.81" x2="144.99" y2="152.81"/>
				<line class="st7" x1="147.62" y1="152.81" x2="150.12" y2="152.81"/>
			</g>
		</g>
		<path class="st9" d="M163,183H50.18c-5.07,0-9.18-4.11-9.18-9.18v-12.66"/>
		<path class="st9" d="M41,121V57.45c0-0.05,0.07-0.07,0.09-0.02C41.84,59.56,45.35,70,50.18,70h168.65c5.07,0,9.18,4.11,9.18,9.18
			v41.02"/>
		<path class="st10" d="M228,94H41l0-37.55c0-0.05,0.07-0.07,0.09-0.02C41.84,58.56,45.35,69,50.18,69h168.65
			c5.07,0,9.18,4.11,9.18,9.18V94z"/>
		<circle class="st11" cx="209.5" cy="79.5" r="4.5"/>
		<circle class="st12" cx="189.5" cy="79.5" r="4.5"/>
		<circle class="st12" cx="167.5" cy="79.5" r="4.5"/>
	</g>
	<path class="st13" d="M347.71,119.4l-4.46-16.31c-0.11-0.43-0.67-0.52-0.91-0.15l-4.35,5.93l-6.49,3.45
		c-0.4,0.18-0.39,0.76,0.02,0.93l15.5,6.75C347.41,120.16,347.81,119.81,347.71,119.4z"/>
	<line class="st13" x1="347.61" y1="119.98" x2="338.19" y2="109.1"/>
	<g class="st14">
		<g>
			<path class="st15" d="M336.99,107.47c0,0-0.34-0.44-0.97-1.14"/>
			<path class="st16" d="M333.84,104.21c-4.47-3.95-13.35-9.48-24.47-4.52c-10.65,4.75-16.96,2.83-20.03,0.96"/>
			<path class="st15" d="M288.09,99.77c-0.73-0.6-1.07-1.05-1.07-1.05"/>
		</g>
	</g>
	<g class="st3">
		<path class="st17" d="M247.81,189.39c0,0-43.54,7.46-47.62,19.88l13.31-35.67c0,0-2.48-4.26-2.31-6.74s-7.27-5.32-8.52-5.32
			c-1.24,0-13.49-0.53-15.97-16.15c0,0-23.78,30.34-21.65,72.75s50.92,24.31,50.92,24.31l2.79-16.19l-10.91,92.36h92.36
			l-11.18-91.16l8.25,57.89c0,0,15.3,26.08,34.33,6.25c0,0,12.11-8.38,1.06-46.18l-5.34-17.87c-1.35-4.51-3.91-8.55-7.43-11.68
			c-9.57-8.5-29.84-24.85-45.54-26.03l-13.73,20.56L247.81,189.39z"/>
		<line class="st15" x1="159.8" y1="318.61" x2="352.23" y2="318.61"/>
		<line class="st18" x1="260.43" y1="212.03" x2="260.43" y2="252.88"/>
		<path class="st19" d="M243.48,160.73c0,0,5.22,1.6,6.1-9.23c0,0,10.28,0.66,17.92-2.95l0.89-3.26l-13.84-2.48l-5.32,3.35
			L243.48,160.73z"/>
		<path class="st20" d="M242.97,163.21c0,0-6.08-17.39,1.64-20.76c6.54-2.86,30.08-17.57,30.34,0c0,0,7.98,5.06,4.52,12.78
			c0,0,0.71,5.32-2.75,7.98c0,0,0.09-14.95-9.23-14.66C258.18,148.84,251.76,149.37,242.97,163.21z"/>
		<path class="st15" d="M277.14,165.14c0,0,2.69-1.26,3.8,1.53c1.11,2.79-1.97,4.9-4.22,5.21"/>
		<path class="st21" d="M295.14,150.14c0,0,2.69-1.26,3.8,1.53c1.11,2.79-1.97,4.9-4.22,5.21"/>
		<path class="st15" d="M243.14,165c0,0-3-1.03-3.98,1.85c-0.98,2.88,2.52,4.72,4.97,4.84"/>
		<path class="st22" d="M243.48,163.21c0,0-0.37,24.62,11.86,26.17c3.53,0.45,12.05,0.98,15.61-1.31c2.63-1.68,5.23-3.57,6.39-27.7
			S243.83,146.71,243.48,163.21"/>
		<g class="st23">
			<rect x="220.54" y="148.55" class="st12" width="89.86" height="70.18"/>
		</g>
		<g>
			<g>
				<polyline class="st15" points="310.4,216.23 310.4,218.73 307.9,218.73 				"/>
				<line class="st24" x1="302.91" y1="218.73" x2="225.53" y2="218.73"/>
				<polyline class="st15" points="223.04,218.73 220.54,218.73 220.54,216.23 				"/>
				<line class="st25" x1="220.54" y1="211.22" x2="220.54" y2="153.56"/>
				<polyline class="st15" points="220.54,151.05 220.54,148.55 223.04,148.55 				"/>
				<line class="st24" x1="228.03" y1="148.55" x2="305.4" y2="148.55"/>
				<polyline class="st15" points="307.9,148.55 310.4,148.55 310.4,151.05 				"/>
				<line class="st25" x1="310.4" y1="156.06" x2="310.4" y2="213.72"/>
			</g>
		</g>
		<path class="st26" d="M322.8,234.73c0,0-4.49,7.57-20.01,7.4c-0.89-0.01-1.67-0.69-2.11-1.47c-0.77-1.35-0.36-2.89,0.6-3.23
			c4.39-1.57,3.14-0.82,4.4-1.69s-9.87,3.47-12.45-0.18c-2.62-3.7,2.38-5.17,3.46-5.33c1.46-0.21,2.53-0.62,11.18-0.84
			c0,0-25.26,3.75-30.1-2.32c-4.19-5.26,3.68-5.8,5.95-6.12c0.34-0.05,0.67-0.06,1.01-0.04c2.74,0.18,21.24-0.16,24.72-1.12
			c0,0,1.82-0.35,1.44-1.79c-0.38-1.44-1.83-10.7,3.8-16.35c4.08-4.1,7.91,2.96,6.06,7.03c-0.84,1.84-1.2,4.1-1.35,5.64
			c-0.1,1.04,0.05,2.07,0.48,3.02C321.5,221.05,327.01,230.11,322.8,234.73z"/>
		<path class="st27" d="M185.88,146.58c0,0,3.88,14.14,15.62,16.94c11.75,2.8,12.09,9.63,12.09,9.63s5.59-4.11-10.68-22.39
			C189.47,135.67,185.88,146.58,185.88,146.58z"/>
		<path class="st26" d="M212.01,163.5c0,0,4.88-1.61,8.98,4.01c4.11,5.62,7.21,5.14,8.72,1.06c1.52-4.08-0.58-9.57-12.61-14.28
			c0,0-0.34-1.34,3.89-2.01c4.24-0.67,22.02-6.61,22.42-9.91c0,0,2.77-4.39-2.16-7.25c-0.39-0.22-0.84-0.32-1.28-0.32
			c-0.69,0-1.7,0.06-2.19,0.38c-0.78,0.51-16.78,9.74-22.8,10.98c0,0,10.14-3.32,12.99-6.2c2.84-2.88-0.79-5.57-3.49-5.99
			s-9.69,5.41-9.69,5.41l5.27-4.09c0,0,0.44-5.45-7.97-2.46c-8.41,2.99-10.53,6.31-13.39,8.44c-2.96,2.21-8.32,8.92-4.75,14.31
			c4.15,6.27,7.96,7,7.96,7C204.51,162.56,211.01,163.68,212.01,163.5z"/>
		<path class="st15" d="M260.43,162.67c0,0,1.22,8.45-0.86,10.7c-0.13,0.14-0.16,0.34-0.05,0.49c0.38,0.55,1.39,1.66,3.02,1.05"/>
		<path class="st15" d="M259.45,180.09c0,0,2.35,3.22,7.53-1.15"/>
		<path class="st20" d="M252.66,166.46L252.66,166.46c-0.68,0-1.24-0.56-1.24-1.24l0,0c0-0.68,0.56-1.24,1.24-1.24l0,0
			c0.68,0,1.24,0.56,1.24,1.24l0,0C253.9,165.9,253.34,166.46,252.66,166.46z"/>
		<path class="st20" d="M268.22,166.46L268.22,166.46c-0.68,0-1.24-0.56-1.24-1.24l0,0c0-0.68,0.56-1.24,1.24-1.24l0,0
			c0.68,0,1.24,0.56,1.24,1.24l0,0C269.46,165.9,268.9,166.46,268.22,166.46z"/>
		<polygon class="st28" points="250.4,188.77 249.33,190.1 247.87,190.1 241.62,197.29 247.74,228.03 260.65,210.06 260.65,208.4 		
			"/>
		<polygon class="st28" points="271.75,188.77 272.9,190.1 274.48,190.1 281.26,197.29 274.63,228.03 260.65,210.06 260.65,208.4 		
			"/>
	</g>
	<path class="st2" d="M245.26,306.8H107.08c-6.6,0-12-5.4-12-12v-23.91c0-6.6,5.4-12,12-12h138.18c6.6,0,12,5.4,12,12v23.91
		C257.26,301.4,251.86,306.8,245.26,306.8z"/>
	<path class="st29" d="M242.26,308.8H104.08c-6.6,0-12-5.4-12-12v-23.91c0-6.6,5.4-12,12-12h138.18c6.6,0,12,5.4,12,12v23.91
		C254.26,303.4,248.86,308.8,242.26,308.8z"/>
	<line class="st30" x1="142.73" y1="277.84" x2="170.5" y2="277.84"/>
	<line class="st30" x1="177.12" y1="277.84" x2="220" y2="277.84"/>
	<line class="st30" x1="142.73" y1="289.84" x2="187.52" y2="289.84"/>
	<path class="st31" d="M128.93,295.28h-9.1c-1.39,0-2.53-1.14-2.53-2.53v-9.1c0-1.39,1.14-2.53,2.53-2.53h9.1
		c1.39,0,2.53,1.14,2.53,2.53v9.1C131.46,294.14,130.32,295.28,128.93,295.28z"/>
	<path class="st32" d="M125.11,291.74H113.9c-1.39,0-2.53-1.14-2.53-2.53V278c0-1.39,1.14-2.53,2.53-2.53h11.21
		c1.39,0,2.53,1.14,2.53,2.53v11.21C127.64,290.6,126.5,291.74,125.11,291.74z"/>
	<circle class="st13" cx="110.75" cy="223.36" r="13.35"/>
	<path class="st31" d="M112.27,236.46L112.27,236.46c-6.51,0-11.84-5.33-11.84-11.84v0c0-6.51,5.33-11.84,11.84-11.84h0
		c6.51,0,11.84,5.33,11.84,11.84v0C124.12,231.13,118.79,236.46,112.27,236.46z"/>
	<path class="st33" d="M123.33,236.56L123.33,236.56c-0.41,0.34-1.03,0.29-1.37-0.12l-2.04-2.44c-0.34-0.41-0.29-1.03,0.12-1.37l0,0
		c0.41-0.34,1.03-0.29,1.37,0.12l2.04,2.44C123.8,235.6,123.74,236.22,123.33,236.56z"/>
</g>
<g id="图层_2" class="st0">
	<path class="st1" d="M293.29,71.75c-11.84-7.51-30.56-14.96-36.68-15.72c-58.68-7.29-238.97,1.55-222.1,155.1
		C49.26,345.5,226.31,360.62,313.54,353.74c48.76-3.85,68.18-65.9,37.09-106.84c-0.6-0.79-1.21-1.58-1.83-2.38
		c-11.18-14.34-27.22-43.25-24.55-61.8C328.64,152.23,354.42,110.54,293.29,71.75z"/>
	<path class="st34" d="M76.71,319.58c-20.08,0,33.72,0,266.69,0"/>
	<path class="st2" d="M289.49,247.32H86.68c-6.6,0-12-4.15-12-9.22V129.19c0-5.07,5.4-9.22,12-9.22h201.81c6.6,0,12,4.15,12,9.22
		l1,108.91C301.49,243.17,296.09,247.32,289.49,247.32z"/>
	<path class="st29" d="M176.6,124.53h105.3c6.6,0,12,4.15,12,9.22l1,108.91c0,5.07-5.4,9.22-12,9.22H93.54"/>
	<path class="st29" d="M68.09,223.81v-90.06c0-5.07,5.4-9.22,12-9.22h69.54"/>
	<g class="st3">
		<path class="st4" d="M175.52,184.05h-9.1c-1.39,0-2.53-1.14-2.53-2.53v-9.1c0-1.39,1.14-2.53,2.53-2.53h9.1
			c1.39,0,2.53,1.14,2.53,2.53v9.1C178.05,182.91,176.91,184.05,175.52,184.05z"/>
		<path class="st5" d="M171.69,180.51h-11.21c-1.39,0-2.53-1.14-2.53-2.53v-11.21c0-1.39,1.14-2.53,2.53-2.53h11.21
			c1.39,0,2.53,1.14,2.53,2.53v11.21C174.23,179.37,173.09,180.51,171.69,180.51z"/>
		<line class="st35" x1="189.82" y1="167.23" x2="232.71" y2="167.23"/>
		<line class="st35" x1="190.09" y1="178.89" x2="222.77" y2="178.89"/>
	</g>
	<g class="st3">
		<path class="st4" d="M175.52,218.42h-9.1c-1.39,0-2.53-1.14-2.53-2.53v-9.1c0-1.39,1.14-2.53,2.53-2.53h9.1
			c1.39,0,2.53,1.14,2.53,2.53v9.1C178.05,217.28,176.91,218.42,175.52,218.42z"/>
		<path class="st5" d="M171.69,214.88h-11.21c-1.39,0-2.53-1.14-2.53-2.53v-11.21c0-1.39,1.14-2.53,2.53-2.53h11.21
			c1.39,0,2.53,1.14,2.53,2.53v11.21C174.23,213.74,173.09,214.88,171.69,214.88z"/>
		<g class="st6">
			<g>
				<line class="st15" x1="189.82" y1="201.6" x2="192.32" y2="201.6"/>
				<line class="st36" x1="197.74" y1="201.6" x2="227.5" y2="201.6"/>
				<line class="st15" x1="230.21" y1="201.6" x2="232.71" y2="201.6"/>
			</g>
		</g>
		<line class="st35" x1="190.09" y1="213.27" x2="222.77" y2="213.27"/>
	</g>
	<path class="st31" d="M129.67,191.25c0,9.98-8.09,18.06-18.06,18.06s-18.06-8.09-18.06-18.06c0-9.98,8.09-18.06,18.06-18.06v18.06
		H129.67z"/>
	<path class="st32" d="M131.67,187.2c0-9.01-6.85-16.31-15.3-16.31v16.31H131.67z"/>
	<path class="st32" d="M33.82,124.68l35.86-60.44c1-1.68,2.53-3.02,4.38-3.63c1.38-0.45,3.08-0.6,4.89,0.15
		c1.59,0.66,2.83,1.95,3.55,3.51l18.32,39.2c0,0,1.99,3.25,5.24,0c2.81-2.81,9.84-18.23,11.71-22.38c0.48-1.07,1.39-1.92,2.53-2.21
		c1.01-0.25,2.29-0.12,3.59,1.18c2.89,2.89,31.46,44.61,31.46,44.61H33.82z"/>
	<path class="st29" d="M96.65,78.96l0.6,1.29l12.17,26.05c0,0,1.99,3.25,5.24,0c2.81-2.81,9.84-18.23,11.71-22.38
		c0.48-1.07,1.39-1.92,2.53-2.21c1.01-0.25,2.29-0.12,3.59,1.18c2.89,2.89,31.46,41.94,31.46,41.94H42.42l35.86-57.77
		c1-1.68,2.53-3.02,4.38-3.63c1.38-0.45,3.08-0.6,4.89,0.15c1.59,0.66,2.83,1.95,3.55,3.51l1.58,3.37"/>
	<circle class="st37" cx="113.17" cy="53.68" r="7.35"/>
	<circle class="st38" cx="107.99" cy="51.85" r="7.35"/>
	<g class="st3">
		<path class="st10" d="M68.7,238.02c0,0-19.23,52.58,19.75,51.32C88.45,289.34,92.83,274.81,68.7,238.02z"/>
		<path class="st10" d="M76.01,297.44c0,0-14.74-2.68-6.82,18.17C69.19,315.61,82.03,311.61,76.01,297.44z"/>
		<path class="st39" d="M100.19,303.48c0,0,26.93,3.68,30.12-33.94c0,0-22.08-0.92-26.83,27.22c-4.75,28.14,0,0,0,0L100.19,303.48z"
			/>
		<path class="st40" d="M90.67,319.83c0,0-0.08-18.83-1.9-34.02c-2.01-16.77-6.18-36.53-14.82-45.49c0,0-23.6,47.87,13.81,49.19
			l1.43,0.21C89.2,289.71,91.01,293.31,90.67,319.83z"/>
		<path class="st40" d="M87.76,319.58c0,0-3.13-18.36-9.39-21.6c0,0-1.97-0.53-1.3,1.98c0.67,2.51,5.28,6.26-7.88,15.66
			c0,0-7.53-20.03,5-17.63l2.09,0.31C76.28,298.29,81.5,290.93,87.76,319.58z"/>
		<path class="st40" d="M90.89,319.97l15.58-22.22c0,0,2.1-3.43,2.65-5.75c0.55-2.32-3.45-16.93,22.54-19.08
			c0,0,4.79,28.88-31.16,33.34C100.51,306.27,100.73,305.27,90.89,319.97z"/>
	</g>
	<path class="st41" d="M276.46,286.33c-1.3-1.01-75.02,0-75.02,0s-19.43,2.81-21.05,32.61h56.13
		C236.52,318.95,289.41,296.45,276.46,286.33z"/>
	<path class="st41" d="M267.59,290.15h-45.88c0,0-21.35-2.25-22.82,28.68h56.28c0,0-12.95-2.95-16.19-7.17c0,0,9.72,6.12,19.84,7.17
		h38.66c0,0,16.19-4.22,6.88-25.3l-0.61-3.41C303.75,290.12,302.06,298.8,267.59,290.15z"/>
	<path class="st42" d="M261.09,174.82c0,0-3.48,33.22,13.24,26.78l-2,17.86c0,0,5.8,4.53,10.29-2.41s3.8-12.43,3.8-12.43l7.13-13.48
		l-8.98-16.33H261.09z"/>
	<path class="st42" d="M267.27,196.08c0,0,3.15,0.98,4.39-1.73"/>
	<ellipse class="st33" cx="271.16" cy="186.12" rx="0.89" ry="1.08"/>
	<ellipse class="st33" cx="262.16" cy="187.12" rx="0.89" ry="1.08"/>
	<path class="st33" d="M277.47,166.25c0,0-14.14-7.35-19.86,13.88h6.13l3.8-4.49v4.49h7.63c0,0,7.35-3.27,5.72,3.68
		c0,0,8.58-0.82,7.35,4.49c-1.23,5.31-6.53,4.49-6.53,4.49l3.27,6.41l1.23,6.25l10.62,17.15l10.43-5.15c0,0,10.6,12.56,10.6,17.05
		c0,4.08,7.73,6.98,8.92,0.65c0.25-1.32,1.35-2.3,2.68-2.49c3.37-0.47,5.12-1.99,4.12-4.34c-1.23-2.86-7.35-6.94-5.31-13.07
		c2.04-6.13-4.49-13.32-9.8-16.05c-5.31-2.73-17.97-8.04-19.6-13.76S285.89,161.75,277.47,166.25z"/>
	<path class="st43" d="M247.39,278.12l-5.19,9.32c0,0-19.56,1.86-19.56,1.33s-0.93-10.65-0.93-10.65H247.39z"/>
	<path class="st43" d="M307.57,297.42c0.13,0.52,2.71,7.62,2.71,7.62s-0.3,4.07-4.45,9.45c0,0-3.35,2.08-5,1.49
		c-2.59-0.92-2.04,3.76,6,3.46c0.51-0.02,1-0.19,1.43-0.47c1.76-1.15,6.89-4.17,10.21-2.68c0,0,22.27,5.59,24.79,1.25
		c1.97-3.39-18.08-3.49-22.6-4.36l-0.15-0.26c0,0,23.31,3.53,20.46-1.24c-0.14-0.24-0.68-0.16-1.47-0.23
		c-1.01-0.1-4.88-0.48-17.21-0.88l-0.07-0.61c0,0,14.35,1.77,14.01,0.22c-0.22-1.03-1.71-0.98-4.7-1.26
		c-2.64-0.24-7.74-4.71-7.74-4.71c-0.33-0.65-2.03-6.1-2.03-6.1L307.57,297.42z"/>
	<path class="st44" d="M273.01,207.05c-3.25,0.48-17.26,3.69-25.78,23.77c-0.19,0.45-0.32,0.93-0.39,1.41
		c-0.41,2.99-2.46,15.1-9.78,21.79c-6.33,5.78-16.11,29.72-16.11,29.72l25.41,0.24l13.05-14.74l1.02-7.85l0.18-8.79l-1.37-21.22
		c0,0,2.85,28.62,0.18,38.88c0,0,0,10.85-3.92,15.63c0,0,9.48,4.93,16.97,6.09c7.49,1.16,9.72,1.25,10.34,2.67
		c0.62,1.43,19.77,0.03,21.19-1.13c1.43-1.16-7.8-62.98-9.59-62.89l-0.13-0.6c0,0,11.42,51.55,9.86,64.78v11.05
		c0,0,21.62,0.89,30.53-4.64c0,0-3.21-39.9-16.76-73.78c0,0-9.93-23.78-32.05-22.35c0,0-0.39,13.26-9.01,12.31
		c0,0-4.2-0.62-3.23-9.75C273.66,207.31,273.37,207,273.01,207.05z"/>
	<polygon class="st2" points="276.49,236.78 273.65,232.2 280.6,232.2 	"/>
	<line class="st45" x1="276.63" y1="235.6" x2="276.63" y2="242.99"/>
	<path class="st43" d="M228.79,289.71h-60.63c-4.45,0-6.89-3.7-8.17-7.89c-0.05-0.15-0.1-0.3-0.16-0.45l-13.05-32.47
		c-0.51-1.27-0.62-2.68-0.19-3.97c1.08-3.25,4.19-5.62,7.84-5.62h60.63c4.53,0,6.52,3.18,8.24,8.11l13.14,32.69
		c0.51,1.27,0.62,2.68,0.19,3.97C235.55,287.35,232.44,289.71,228.79,289.71z"/>
	<path class="st46" d="M266.15,290.68c-14.11,0-84.42,0-98.54,0c-1.36,0-2.47-0.69-2.47-1.53v-1.93c0-0.84,1.11-1.53,2.48-1.53
		l98.54,0c1.36,0,2.47,0.69,2.47,1.53v1.93C268.62,290,267.51,290.68,266.15,290.68z"/>
	<path class="st46" d="M225.7,289.5h-60.63c-4.45,0-6.89-3.75-8.17-8c-0.05-0.16-0.1-0.32-0.16-0.47l-13.01-32.87
		c-0.59-1.5-0.64-3.18-0.04-4.67c1.22-3.02,4.2-5.17,7.65-5.17h60.63c4.53,0,6.52,3.23,8.24,8.24l13.1,33.1
		c0.59,1.5,0.64,3.18,0.04,4.67C232.13,287.35,229.15,289.5,225.7,289.5z"/>
	
		<ellipse transform="matrix(0.838 -0.5457 0.5457 0.838 -113.0517 144.2373)" class="st47" cx="186.39" cy="262.51" rx="3.54" ry="4.52"/>
	<path class="st48" d="M189.17,266.06c-1.12-0.26-2.23-1.04-2.99-2.22c-1.28-1.96-1.16-4.33,0.21-5.5"/>
</g>
<g id="图层_3">
	<path class="st49" d="M66.03,105.95c2.89-30.89,36.4-33.16,51.23-30.21c21.15,4.21,64.02,10.73,116.67,7.95
		c75.56-3.99,168.75,14.16,140.2,105.29C345.6,280.12,265,259.02,292.71,316.68c27.06,56.31-186.88,47.73-205.53,22.75
		c-1.2-1.61-2.76-2.93-4.42-4.12c-32.75-23.36-109.57-78.66-5.02-153.43C92.76,172.36,63.97,127.96,66.03,105.95z"/>
	<path class="st40" d="M350.04,331.97c-74.91,0-237.63,0-278.97,0"/>
	<path class="st9" d="M282.13,262.56l-5.16,47.44c0,1.38-1.15,2.51-2.55,2.51H90.59c-1.63,0-2.95-1.3-2.95-2.9l14.44-113.7
		c0-7.14,5.95-12.98,13.21-12.98h35.7c1.62,0,3.19,0.56,4.43,1.59l11.89,10.41h16.1h7.06h84.39c7.27,0,13.21,5.84,13.21,12.98
		l-3.81,35.06"/>
	<path class="st39" d="M43.29,265.6c0,0,1.1,54.92,45.8,44.99C89.09,310.59,86.49,265.33,43.29,265.6z"/>
	<path class="st10" d="M66.33,250.54c0,0-10.23,4.29,10.38,27.69C76.71,278.23,88.4,277.92,66.33,250.54z"/>
	<path class="st15" d="M77.65,310.66c0,0-22.01-0.29-31.59-52.72C46.05,257.94,109.24,284.61,77.65,310.66z"/>
	<path class="st12" d="M264.97,289.22h-94.64c-6.6,0-12-5.4-12-12V142.16c0-6.6,5.4-12,12-12h94.64c6.6,0,12,5.4,12,12v135.06
		C276.97,283.82,271.57,289.22,264.97,289.22z"/>
	<g class="st6">
		<g>
			<line class="st15" x1="203.65" y1="153.56" x2="206.15" y2="153.6"/>
			<line class="st50" x1="211" y1="153.69" x2="257.08" y2="154.45"/>
			<line class="st15" x1="259.5" y1="154.49" x2="262" y2="154.54"/>
		</g>
	</g>
	<line class="st51" x1="176" y1="171.65" x2="244.11" y2="172.78"/>
	<line class="st51" x1="176" y1="188.39" x2="251.59" y2="188.99"/>
	<g class="st6">
		<g>
			<line class="st15" x1="203.43" y1="166.89" x2="205.93" y2="166.93"/>
			<line class="st52" x1="210.45" y1="167" x2="235.35" y2="167.42"/>
			<line class="st15" x1="237.61" y1="167.46" x2="240.11" y2="167.5"/>
		</g>
	</g>
	<path class="st4" d="M192.28,171.68l-10.66-0.18c-1.39-0.02-2.51-1.18-2.49-2.57l0.18-10.66c0.02-1.39,1.18-2.51,2.57-2.49
		l10.66,0.18c1.39,0.02,2.51,1.18,2.49,2.57l-0.18,10.66C194.83,170.58,193.67,171.7,192.28,171.68z"/>
	<path class="st10" d="M188.11,167.68l-13.01-0.22c-1.39-0.02-2.51-1.18-2.49-2.57l0.22-13.01c0.02-1.39,1.18-2.51,2.57-2.49
		l13.01,0.22c1.39,0.02,2.51,1.18,2.49,2.57l-0.22,13.01C190.66,166.58,189.5,167.7,188.11,167.68z"/>
	<path class="st53" d="M291.71,250c0,0,24.22,0.93,34.84-10.84c0,0-8.07,50.02-13.97,68.67c0,0-1.83,6.06-6.43,22.92h-14.68
		c0,0-0.84-19.84-0.82-34.46C289.89,284.06,291.71,250,291.71,250z"/>
	<path class="st54" d="M270.12,150.76c0,0,1.64,29.34,15.26,21.41l0.77,15.8c0,0,5.67,3.12,8.6-3.53
		c2.93-6.66,1.55-11.33,1.55-11.33l4.3-12.7l-10.09-12.93L270.12,150.76z"/>
	<path class="st55" d="M278.48,168.36c0,0,2.87,0.41,3.57-2.12"/>
	
		<ellipse transform="matrix(0.9872 -0.1595 0.1595 0.9872 -21.7929 46.7607)" class="st20" cx="280.46" cy="159.17" rx="0.78" ry="0.95"/>
	
		<ellipse transform="matrix(0.9872 -0.1595 0.1595 0.9872 -22.231 45.5638)" class="st20" cx="272.78" cy="161.3" rx="0.78" ry="0.95"/>
	<path class="st56" d="M272.71,242.41l-3.2,8.82c0,0-16.73,4.36-16.8,3.9c-0.07-0.46-2.3-9.12-2.3-9.12L272.71,242.41z"/>
	<path class="st17" d="M324.05,247.84l8.41-3.64c0.8,8.22-7.19-65.67-23.25-70.02c0,0-3.5-2.23-13.32-0.6c0,0,1.52,11.57-6.09,11.95
		c0,0-3.73,0.05-4.17-8.01c-0.02-0.31-0.32-0.54-0.61-0.44c-2.76,0.88-9.37-2-19.05,24.26c-2.28,6.2-27.8,11.87-27.8,11.87
		l-0.49,14.63c0,0,40.23,1.87,41.47-18.22"/>
	<path class="st17" d="M324.05,247.84L324.05,247.84c-0.57,0.28-16.88,3.95-18.25,3.95c-1.36,0.01-4.64-0.08-9.36-0.87
		c-6.58-1.1-15.59-2.91-15.59-2.91c2.74-4.71,1.21-14.13,1.21-14.13c0.88-9.28-2.93-24.26-2.93-24.26"/>
	<path class="st17" d="M314.66,178.04c0,0,28.31,29.93-30.53,74.81l-11.31-14.37c0,0,34.48-24.9,33.02-41.85"/>
	<path class="st20" d="M325.73,208.08c3.41,2.88,9.85,0.27,12.18-5.99c1.25-3.36-2.6-5.46-0.31-8.69c1.73-2.45,4.17-2.45,2.97-4.35
		c-1.46-2.31-7.36-8-6.44-13.6c0.91-5.61-5.77-10.94-10.76-12.57c-4.99-1.63-16.73-4.46-18.95-9.2
		c-2.22-4.74-14.58-18.75-21.27-13.67c0,0-13.31-4.4-15.3,14.84l5.32-0.86l2.67-4.43l0.63,3.9l6.63-0.07c0,0,5.93-3.87,5.48,2.39
		c0,0,4.33-2.91,4.01,1.87c-0.32,4.78-2.04,4.82-2.04,4.82l3.74,5.11l1.94,5.26c0,0-0.5,6.3,3.23,11.15
		c3.73,4.86,8.32,1.53,10.85,6.65c2.53,5.12,9.05,12.9,12.71,10.98S323.15,205.89,325.73,208.08z"/>
	<path class="st53" d="M300.78,251.83c0,0,26.1-0.25,31.45-9.77c0,0,4.75,17.85,4.09,33.99c-0.74,17.84,1.33,54.96,1.33,54.96
		h-13.58L300.78,251.83z"/>
	<path class="st12" d="M274.42,313.61H90.98H80.6c-1.63,0-2.95-1.26-2.95-2.81l-1.55-19.93l-7.34-94.57
		c0-6.92,5.95-12.59,13.21-12.59h35.7c1.62,0,3.19,0.55,4.43,1.54l15.22,15.39h115.32c7.27,0,13.21,5.66,13.21,12.59l11.1,97.96
		C276.97,312.52,275.82,313.61,274.42,313.61z"/>
	<path class="st9" d="M94.52,313.61H80.6c-1.63,0-2.95-1.32-2.95-2.95l-1.02-13.84l-0.93-12.64l-0.45-6.12l-6.47-87.59
		c0-7.27,5.95-13.21,13.21-13.21h35.7c1.62,0,3.19,0.57,4.43,1.62l15.22,16.15h115.32c7.27,0,13.21,5.95,13.21,13.21l11.1,102.83
		c0,1.4-1.15,2.55-2.55,2.55H120.01"/>
	<path class="st4" d="M144.63,275.11h-3.16c-3.1,0-5.63-1.89-5.63-4.19l-2.47-8.79c0-2.31,2.53-4.19,5.63-4.19h3.16
		c3.1,0,5.63,1.89,5.63,4.19l2.47,8.79C150.26,273.22,147.73,275.11,144.63,275.11z"/>
	<path class="st5" d="M136.62,269.71h-3.16c-3.1,0-5.63-1.89-5.63-4.19l-2.47-8.79c0-2.31,2.53-4.19,5.63-4.19h3.16
		c3.1,0,5.63,1.89,5.63,4.19l2.47,8.79C142.25,267.83,139.71,269.71,136.62,269.71z"/>
	<path class="st4" d="M180.38,275.11h-3.16c-3.1,0-5.63-1.89-5.63-4.19l-2.47-8.79c0-2.31,2.53-4.19,5.63-4.19h3.16
		c3.1,0,5.63,1.89,5.63,4.19l2.47,8.79C186.01,273.22,183.48,275.11,180.38,275.11z"/>
	<path class="st5" d="M172.37,269.71h-3.16c-3.1,0-5.63-1.89-5.63-4.19l-2.47-8.79c0-2.31,2.53-4.19,5.63-4.19h3.16
		c3.1,0,5.63,1.89,5.63,4.19l2.47,8.79C178,267.83,175.47,269.71,172.37,269.71z"/>
	<path class="st4" d="M216.14,275.11h-3.16c-3.1,0-5.63-1.89-5.63-4.19l-2.47-8.79c0-2.31,2.53-4.19,5.63-4.19h3.16
		c3.1,0,5.63,1.89,5.63,4.19l2.47,8.79C221.77,273.22,219.23,275.11,216.14,275.11z"/>
	<path class="st5" d="M208.12,269.71h-3.16c-3.1,0-5.63-1.89-5.63-4.19l-2.47-8.79c0-2.31,2.53-4.19,5.63-4.19h3.16
		c3.1,0,5.63,1.89,5.63,4.19l2.47,8.79C213.75,267.83,211.22,269.71,208.12,269.71z"/>
	<path class="st10" d="M266.57,219.01H70.87c0,0-0.78-11.11-0.78-12.74l-1.33-15.81c0-7.27,5.95-13.21,13.21-13.21h35.7
		c1.62,0,3.19,0.57,4.43,1.62l15.22,16.15h115.32c7.27,0,13.21,5.95,13.21,13.21L266.57,219.01z"/>
	<path class="st12" d="M240.4,120.24H86.27c-6.6,0-12-5.4-12-12V75.66c0-6.6,5.4-12,12-12H240.4c6.6,0,12,5.4,12,12v32.57
		C252.4,114.84,247,120.24,240.4,120.24z"/>
	<path class="st26" d="M281.73,250.93c-1.09-4.37-3.98-7.04-6.16-8.98c-0.56-0.5-0.73-0.42-0.97-1.13c-0.36-1.05-3.58,0.97-5.94-0.6
		c-4.39-2.93-6.79-1.14-5.32,1.84c1.14,2.32,5.87,2.17,6.55,3s-0.41,1.6-0.41,1.6c-10.34,6.18-22.64,8.47-19.54,12.72
		c2.96,4.05,20.41-7.49,20.41-7.49c-4.69,2.79-6.01,3.32-7.07,3.9c-0.69,0.38-10.42,4.47-7.52,8.22c1.58,2.04,15.91-8.01,15.07-7.31
		c-0.88,0.73,0,0-2.75,1.84c-0.61,0.41-8.75,4.43-7.76,6.11c0,0,0.55,4.11,12.08-4.88c0,0-8.55,4.34-6.12,5.09
		c2.29,0.7,9.85-4.53,9.85-4.53S282.95,255.83,281.73,250.93z"/>
	<path class="st9" d="M239.9,116.6H85.76c-6.6,0-12-5.4-12-12V72.03c0-6.6,5.4-12,12-12H239.9c6.6,0,12,5.4,12,12v11.16l7,5.13
		l-7,3.35v12.94C251.9,111.2,246.5,116.6,239.9,116.6z"/>
	<line class="st35" x1="166.42" y1="77.47" x2="186.29" y2="77.47"/>
	<line class="st35" x1="192.97" y1="77.47" x2="224.86" y2="77.47"/>
	<line class="st35" x1="166.42" y1="96.06" x2="224.86" y2="96.06"/>
	<polyline class="st9" points="96.91,93.61 112.6,77.63 129.16,95.78 147.5,77.47 	"/>
	<circle class="st57" cx="96.91" cy="97.22" r="4.55"/>
	<circle class="st11" cx="94.98" cy="95.78" r="4.55"/>
	<circle class="st57" cx="113.87" cy="78.19" r="4.55"/>
	<circle class="st11" cx="111.95" cy="76.75" r="4.55"/>
	<circle class="st57" cx="130.11" cy="96.5" r="4.55"/>
	<circle class="st11" cx="128.18" cy="95.06" r="4.55"/>
	<circle class="st57" cx="149.11" cy="79.73" r="4.55"/>
	<circle class="st11" cx="147.18" cy="78.29" r="4.55"/>
	<path class="st4" d="M115.65,312.17l-6-3.89l-19.74-33.81c-0.14-0.25,0.11-0.62,0.57-0.84l3.77-1.83c0.49-0.24,1.03-0.22,1.18,0.04
		l19.98,33.75L115.65,312.17z"/>
	<path class="st10" d="M120.07,314.39l-6-3.89l-19.74-33.81c-0.14-0.25,0.11-0.62,0.57-0.84l3.77-1.83
		c0.49-0.24,1.03-0.22,1.18,0.04l19.98,33.75L120.07,314.39z"/>
	<path class="st58" d="M113.87,310.36c0.03,0.04,2.53-0.36,2.94-1.7c0,0,0.05-0.11,0.14-0.06s2.32,0.58,2.87-0.81l0.25,6.59
		L113.87,310.36z"/>
	<g>
		<path class="st39" d="M243.26,303c0,0-31.4-3.06-28.45,26.66C214.81,329.67,242.08,336.54,243.26,303z"/>
		<path class="st10" d="M186.07,314.25c0,0,9.1-11.67,27.9,13.23C213.97,327.48,208.88,341.03,186.07,314.25z"/>
		<g>
			<path class="st40" d="M215.2,329.25c0,0,4.33-9.54,11.65-14.86"/>
			<path class="st40" d="M213.32,329.77c0,0,0.43-35.88,29.94-26.86c0,0-10.44,31.06-27.51,28.51h-2.43V329.77z"/>
		</g>
		<g>
			<path class="st40" d="M214.73,331.17c0,0-5.25-27.19-24.6-18.6C190.13,312.57,202.88,334.04,214.73,331.17L214.73,331.17
				L214.73,331.17z"/>
		</g>
	</g>
</g>
</svg>
