<?xml version="1.0" standalone="no"?><!DOCTYPE svg PUBLIC "-//W3C//DTD SVG 1.1//EN" "http://www.w3.org/Graphics/SVG/1.1/DTD/svg11.dtd"><svg t="1603332716083" class="icon" viewBox="0 0 1024 1024" version="1.1" xmlns="http://www.w3.org/2000/svg" p-id="6499" xmlns:xlink="http://www.w3.org/1999/xlink" width="128" height="128"><defs><style type="text/css"></style></defs><path d="M789.943 566.857c-3.657 0-40.229 7.314-14.629-65.828 51.2-73.143 91.429-135.315 91.429-223.086 0-131.657-87.772-197.486-190.172-197.486-18.285 0-36.571 3.657-51.2 7.314C665.6 124.343 691.2 175.543 691.2 252.343c0 95.086-21.943 182.857-80.457 263.314-21.943 29.257-14.629 73.143 7.314 80.457C742.4 629.03 848.457 713.143 877.714 793.6l3.657 21.943c0 32.914-40.228 62.171-54.857 80.457 113.372-10.971 193.829-40.229 193.829-109.714v-25.6c3.657-69.486-120.686-157.257-230.4-193.829z" p-id="6500"></path><path d="M530.286 632.686C522.97 629.029 490.057 614.4 512 548.57c58.514-58.514 102.4-157.257 102.4-252.342 0-146.286-95.086-223.086-208.457-223.086C292.57 76.8 197.486 153.6 197.486 296.229c0 95.085 43.885 190.171 102.4 252.342 21.943 58.515-18.286 80.458-25.6 84.115-117.029 43.885-256 120.685-256 197.485v29.258c-3.657 106.057 201.143 128 387.657 128s387.657-21.943 387.657-128V830.17c0-76.8-138.971-157.257-263.314-197.485m0 0z" p-id="6501"></path></svg>