<?xml version="1.0" encoding="utf-8"?>
<!-- Generator: Adobe Illustrator 23.0.2, SVG Export Plug-In . SVG Version: 6.00 Build 0)  -->
<svg version="1.1" id="图层_1" xmlns="http://www.w3.org/2000/svg" xmlns:xlink="http://www.w3.org/1999/xlink" x="0px" y="0px"
	 viewBox="0 0 400 400" style="enable-background:new 0 0 400 400;" xml:space="preserve">
<style type="text/css">
	.st0{opacity:0.23;fill:#DADADA;}
	.st1{fill:#FFFFFF;}
	.st2{opacity:0.37;fill:#7F95FF;}
	.st3{fill:none;stroke:#4E4F57;stroke-width:1.4;stroke-miterlimit:10;}
	.st4{opacity:0.45;}
	.st5{fill:none;stroke:#0A0B1F;stroke-miterlimit:10;}
	.st6{fill:none;stroke:#0A0B1F;stroke-miterlimit:10;stroke-dasharray:5.2501,5.2501;}
	.st7{fill:none;stroke:#7F95FF;stroke-width:1.4;stroke-miterlimit:10;}
	.st8{fill:#7F95FF;}
	.st9{fill:#FFAA00;}
	.st10{fill:none;stroke:#0A0B1F;stroke-width:1.4;stroke-miterlimit:10;}
	.st11{opacity:0.41;}
	.st12{fill:none;stroke:#0A0B1F;stroke-width:1.4;stroke-miterlimit:10;stroke-dasharray:3.0474,3.0474;}
	.st13{fill:#FF7447;stroke:#28282D;stroke-miterlimit:10;}
	.st14{fill:none;stroke:#FFFFFF;stroke-width:1.4;stroke-miterlimit:10;}
	.st15{fill:#010048;}
	.st16{fill:#0A0B1F;}
	.st17{display:none;fill:none;stroke:#010048;stroke-width:1.4;stroke-miterlimit:10;}
	.st18{fill:#FFFFFF;stroke:#28282D;stroke-miterlimit:10;}
	.st19{opacity:0.39;}
	.st20{fill:none;stroke:#0A0B1F;stroke-width:1.4;stroke-miterlimit:10;stroke-dasharray:4.9919,4.9919;}
	.st21{fill:none;stroke:#0A0B1F;stroke-width:1.4;stroke-miterlimit:10;stroke-dasharray:5.0137,5.0137;}
	.st22{fill:#FFFFFF;stroke:#28282D;stroke-width:1.4;stroke-miterlimit:10;}
	.st23{fill:#28282D;}
	.st24{fill:#FFFFFF;stroke:#0A0B1F;stroke-width:1.4;stroke-miterlimit:10;}
	.st25{opacity:0.45;fill:none;stroke:#0A0B1F;stroke-width:1.4;stroke-miterlimit:10;}
</style>
<path class="st0" d="M277.67,46.08c-5.92-0.29-11.83,0.67-17.35,2.81C234.8,58.79,142.03,92.78,79,89.73
	C5.31,86.16,3.5,254.62,105.46,253.75c101.96-0.87,85.01,81.54,85.01,81.54s129.43,63.61,172.55-26.48
	C404.64,221.87,373.03,50.79,277.67,46.08z"/>
<path class="st0" d="M33,299.89c0,0-4.73,25.81,27.57,37.47c0,0,3.76,0.87,1.51-4.27c-2.25-5.15-20.66,0.26-26.53-28.76
	C35.55,304.33,35.28,297.63,33,299.89z"/>
<path class="st0" d="M44.57,298c0,0-3.26,17.82,19.04,25.88c0,0,2.6,0.6,1.04-2.95c-1.55-3.55-14.26,0.18-18.32-19.86
	C46.33,301.07,46.15,296.44,44.57,298z"/>
<path class="st1" d="M224.72,188H58.69c-4.22,0-7.68-3.45-7.68-7.68V77.41c0-4.22,3.45-7.68,7.68-7.68h166.03
	c4.22,0,7.68,3.45,7.68,7.68v102.91C232.4,184.55,228.95,188,224.72,188z"/>
<g>
	<path class="st2" d="M82.93,136.28h-9.1c-1.39,0-2.53-1.14-2.53-2.53v-9.1c0-1.39,1.14-2.53,2.53-2.53h9.1
		c1.39,0,2.53,1.14,2.53,2.53v9.1C85.46,135.14,84.32,136.28,82.93,136.28z"/>
	<path class="st3" d="M79.11,132.74H67.9c-1.39,0-2.53-1.14-2.53-2.53V119c0-1.39,1.14-2.53,2.53-2.53h11.21
		c1.39,0,2.53,1.14,2.53,2.53v11.21C81.64,131.6,80.5,132.74,79.11,132.74z"/>
	<path class="st2" d="M130.6,136.28h-9.1c-1.39,0-2.53-1.14-2.53-2.53v-9.1c0-1.39,1.14-2.53,2.53-2.53h9.1
		c1.39,0,2.53,1.14,2.53,2.53v9.1C133.13,135.14,131.99,136.28,130.6,136.28z"/>
	<path class="st3" d="M126.78,132.74h-11.21c-1.39,0-2.53-1.14-2.53-2.53V119c0-1.39,1.14-2.53,2.53-2.53h11.21
		c1.39,0,2.53,1.14,2.53,2.53v11.21C129.31,131.6,128.17,132.74,126.78,132.74z"/>
	<g class="st4">
		<g>
			<line class="st5" x1="66.37" y1="152.81" x2="68.87" y2="152.81"/>
			<line class="st6" x1="74.12" y1="152.81" x2="144.99" y2="152.81"/>
			<line class="st5" x1="147.62" y1="152.81" x2="150.12" y2="152.81"/>
		</g>
	</g>
	<path class="st7" d="M163,183H50.18c-5.07,0-9.18-4.11-9.18-9.18v-12.66"/>
	<path class="st7" d="M41,121V57.45c0-0.05,0.07-0.07,0.09-0.02C41.84,59.56,45.35,70,50.18,70h168.65c5.07,0,9.18,4.11,9.18,9.18
		v41.02"/>
	<path class="st8" d="M228,94H41l0-37.55c0-0.05,0.07-0.07,0.09-0.02C41.84,58.56,45.35,69,50.18,69h168.65
		c5.07,0,9.18,4.11,9.18,9.18V94z"/>
	<circle class="st9" cx="209.5" cy="79.5" r="4.5"/>
	<circle class="st1" cx="189.5" cy="79.5" r="4.5"/>
	<circle class="st1" cx="167.5" cy="79.5" r="4.5"/>
</g>
<path class="st10" d="M347.71,119.4l-4.46-16.31c-0.11-0.43-0.67-0.52-0.91-0.15l-4.35,5.93l-6.49,3.45
	c-0.4,0.18-0.39,0.76,0.02,0.93l15.5,6.75C347.41,120.16,347.81,119.81,347.71,119.4z"/>
<line class="st10" x1="347.61" y1="119.98" x2="338.19" y2="109.1"/>
<g class="st11">
	<g>
		<path class="st10" d="M336.99,107.47c0,0-0.34-0.44-0.97-1.14"/>
		<path class="st12" d="M333.84,104.21c-4.47-3.95-13.35-9.48-24.47-4.52c-10.65,4.75-16.96,2.83-20.03,0.96"/>
		<path class="st10" d="M288.09,99.77c-0.73-0.6-1.07-1.05-1.07-1.05"/>
	</g>
</g>
<g>
	<path class="st13" d="M247.81,189.39c0,0-43.54,7.46-47.62,19.88l13.31-35.67c0,0-2.48-4.26-2.31-6.74s-7.27-5.32-8.52-5.32
		c-1.24,0-13.49-0.53-15.97-16.15c0,0-23.78,30.34-21.65,72.75s50.92,24.31,50.92,24.31l2.79-16.19l-10.91,92.36h92.36l-11.18-91.16
		l8.25,57.89c0,0,15.3,26.08,34.33,6.25c0,0,12.11-8.38,1.06-46.18l-5.34-17.87c-1.35-4.51-3.91-8.55-7.43-11.68
		c-9.57-8.5-29.84-24.85-45.54-26.03l-13.73,20.56L247.81,189.39z"/>
	<line class="st10" x1="159.8" y1="318.61" x2="352.23" y2="318.61"/>
	<line class="st14" x1="260.43" y1="212.03" x2="260.43" y2="252.88"/>
	<path class="st15" d="M243.48,160.73c0,0,5.22,1.6,6.1-9.23c0,0,10.28,0.66,17.92-2.95l0.89-3.26l-13.84-2.48l-5.32,3.35
		L243.48,160.73z"/>
	<path class="st16" d="M242.97,163.21c0,0-6.08-17.39,1.64-20.76c6.54-2.86,30.08-17.57,30.34,0c0,0,7.98,5.06,4.52,12.78
		c0,0,0.71,5.32-2.75,7.98c0,0,0.09-14.95-9.23-14.66C258.18,148.84,251.76,149.37,242.97,163.21z"/>
	<path class="st10" d="M277.14,165.14c0,0,2.69-1.26,3.8,1.53c1.11,2.79-1.97,4.9-4.22,5.21"/>
	<path class="st17" d="M295.14,150.14c0,0,2.69-1.26,3.8,1.53c1.11,2.79-1.97,4.9-4.22,5.21"/>
	<path class="st10" d="M243.14,165c0,0-3-1.03-3.98,1.85c-0.98,2.88,2.52,4.72,4.97,4.84"/>
	<path class="st18" d="M243.48,163.21c0,0-0.37,24.62,11.86,26.17c3.53,0.45,12.05,0.98,15.61-1.31c2.63-1.68,5.23-3.57,6.39-27.7
		S243.83,146.71,243.48,163.21"/>
	<g class="st19">
		<rect x="220.54" y="148.55" class="st1" width="89.86" height="70.18"/>
	</g>
	<g>
		<g>
			<polyline class="st10" points="310.4,216.23 310.4,218.73 307.9,218.73 			"/>
			<line class="st20" x1="302.91" y1="218.73" x2="225.53" y2="218.73"/>
			<polyline class="st10" points="223.04,218.73 220.54,218.73 220.54,216.23 			"/>
			<line class="st21" x1="220.54" y1="211.22" x2="220.54" y2="153.56"/>
			<polyline class="st10" points="220.54,151.05 220.54,148.55 223.04,148.55 			"/>
			<line class="st20" x1="228.03" y1="148.55" x2="305.4" y2="148.55"/>
			<polyline class="st10" points="307.9,148.55 310.4,148.55 310.4,151.05 			"/>
			<line class="st21" x1="310.4" y1="156.06" x2="310.4" y2="213.72"/>
		</g>
	</g>
	<path class="st22" d="M322.8,234.73c0,0-4.49,7.57-20.01,7.4c-0.89-0.01-1.67-0.69-2.11-1.47c-0.77-1.35-0.36-2.89,0.6-3.23
		c4.39-1.57,3.14-0.82,4.4-1.69s-9.87,3.47-12.45-0.18c-2.62-3.7,2.38-5.17,3.46-5.33c1.46-0.21,2.53-0.62,11.18-0.84
		c0,0-25.26,3.75-30.1-2.32c-4.19-5.26,3.68-5.8,5.95-6.12c0.34-0.05,0.67-0.06,1.01-0.04c2.74,0.18,21.24-0.16,24.72-1.12
		c0,0,1.82-0.35,1.44-1.79c-0.38-1.44-1.83-10.7,3.8-16.35c4.08-4.1,7.91,2.96,6.06,7.03c-0.84,1.84-1.2,4.1-1.35,5.64
		c-0.1,1.04,0.05,2.07,0.48,3.02C321.5,221.05,327.01,230.11,322.8,234.73z"/>
	<path class="st23" d="M185.88,146.58c0,0,3.88,14.14,15.62,16.94c11.75,2.8,12.09,9.63,12.09,9.63s5.59-4.11-10.68-22.39
		C189.47,135.67,185.88,146.58,185.88,146.58z"/>
	<path class="st22" d="M212.01,163.5c0,0,4.88-1.61,8.98,4.01c4.11,5.62,7.21,5.14,8.72,1.06c1.52-4.08-0.58-9.57-12.61-14.28
		c0,0-0.34-1.34,3.89-2.01c4.24-0.67,22.02-6.61,22.42-9.91c0,0,2.77-4.39-2.16-7.25c-0.39-0.22-0.84-0.32-1.28-0.32
		c-0.69,0-1.7,0.06-2.19,0.38c-0.78,0.51-16.78,9.74-22.8,10.98c0,0,10.14-3.32,12.99-6.2c2.84-2.88-0.79-5.57-3.49-5.99
		s-9.69,5.41-9.69,5.41l5.27-4.09c0,0,0.44-5.45-7.97-2.46c-8.41,2.99-10.53,6.31-13.39,8.44c-2.96,2.21-8.32,8.92-4.75,14.31
		c4.15,6.27,7.96,7,7.96,7C204.51,162.56,211.01,163.68,212.01,163.5z"/>
	<path class="st10" d="M260.43,162.67c0,0,1.22,8.45-0.86,10.7c-0.13,0.14-0.16,0.34-0.05,0.49c0.38,0.55,1.39,1.66,3.02,1.05"/>
	<path class="st10" d="M259.45,180.09c0,0,2.35,3.22,7.53-1.15"/>
	<path class="st16" d="M252.66,166.46L252.66,166.46c-0.68,0-1.24-0.56-1.24-1.24l0,0c0-0.68,0.56-1.24,1.24-1.24l0,0
		c0.68,0,1.24,0.56,1.24,1.24l0,0C253.9,165.9,253.34,166.46,252.66,166.46z"/>
	<path class="st16" d="M268.22,166.46L268.22,166.46c-0.68,0-1.24-0.56-1.24-1.24l0,0c0-0.68,0.56-1.24,1.24-1.24l0,0
		c0.68,0,1.24,0.56,1.24,1.24l0,0C269.46,165.9,268.9,166.46,268.22,166.46z"/>
	<polygon class="st24" points="250.4,188.77 249.33,190.1 247.87,190.1 241.62,197.29 247.74,228.03 260.65,210.06 260.65,208.4 	
		"/>
	<polygon class="st24" points="271.75,188.77 272.9,190.1 274.48,190.1 281.26,197.29 274.63,228.03 260.65,210.06 260.65,208.4 	
		"/>
</g>
<path class="st1" d="M245.26,306.8H107.08c-6.6,0-12-5.4-12-12v-23.91c0-6.6,5.4-12,12-12h138.18c6.6,0,12,5.4,12,12v23.91
	C257.26,301.4,251.86,306.8,245.26,306.8z"/>
<path class="st7" d="M242.26,308.8H104.08c-6.6,0-12-5.4-12-12v-23.91c0-6.6,5.4-12,12-12h138.18c6.6,0,12,5.4,12,12v23.91
	C254.26,303.4,248.86,308.8,242.26,308.8z"/>
<line class="st25" x1="142.73" y1="277.84" x2="170.5" y2="277.84"/>
<line class="st25" x1="177.12" y1="277.84" x2="220" y2="277.84"/>
<line class="st25" x1="142.73" y1="289.84" x2="187.52" y2="289.84"/>
<path class="st2" d="M128.93,295.28h-9.1c-1.39,0-2.53-1.14-2.53-2.53v-9.1c0-1.39,1.14-2.53,2.53-2.53h9.1
	c1.39,0,2.53,1.14,2.53,2.53v9.1C131.46,294.14,130.32,295.28,128.93,295.28z"/>
<path class="st8" d="M125.11,291.74H113.9c-1.39,0-2.53-1.14-2.53-2.53V278c0-1.39,1.14-2.53,2.53-2.53h11.21
	c1.39,0,2.53,1.14,2.53,2.53v11.21C127.64,290.6,126.5,291.74,125.11,291.74z"/>
<circle class="st10" cx="110.75" cy="223.36" r="13.35"/>
<path class="st2" d="M112.27,236.46L112.27,236.46c-6.51,0-11.84-5.33-11.84-11.84v0c0-6.51,5.33-11.84,11.84-11.84h0
	c6.51,0,11.84,5.33,11.84,11.84v0C124.12,231.13,118.79,236.46,112.27,236.46z"/>
<path class="st16" d="M123.33,236.56L123.33,236.56c-0.41,0.34-1.03,0.29-1.37-0.12l-2.04-2.44c-0.34-0.41-0.29-1.03,0.12-1.37l0,0
	c0.41-0.34,1.03-0.29,1.37,0.12l2.04,2.44C123.8,235.6,123.74,236.22,123.33,236.56z"/>
</svg>
