<?xml version="1.0" standalone="no"?><!DOCTYPE svg PUBLIC "-//W3C//DTD SVG 1.1//EN" "http://www.w3.org/Graphics/SVG/1.1/DTD/svg11.dtd"><svg t="1603335269039" class="icon" viewBox="0 0 1024 1024" version="1.1" xmlns="http://www.w3.org/2000/svg" p-id="38803" xmlns:xlink="http://www.w3.org/1999/xlink" width="128" height="128"><defs><style type="text/css"></style></defs><path d="M250.311111 284.444444h45.511111v73.955556h-45.511111V284.444444zM250.311111 403.911111h45.511111v73.955556h-45.511111V403.911111zM250.311111 517.688889h45.511111v73.955555h-45.511111V517.688889zM250.311111 204.8h45.511111v45.511111h-45.511111v-45.511111zM768 204.8h73.955556v45.511111h-73.955556v-45.511111zM654.222222 204.8h73.955556v45.511111h-73.955556v-45.511111zM250.311111 853.333333h45.511111v45.511111h-45.511111V853.333333zM250.311111 745.244444h45.511111v73.955556h-45.511111v-73.955556zM250.311111 631.466667h45.511111v73.955555h-45.511111v-73.955555zM438.044444 204.8H512v45.511111H438.044444v-45.511111zM546.133333 204.8h73.955556v45.511111H546.133333v-45.511111zM864.711111 204.8h45.511111v45.511111h-45.511111v-45.511111zM864.711111 284.444444h45.511111v73.955556h-45.511111V284.444444zM864.711111 403.911111h45.511111v73.955556h-45.511111V403.911111zM329.955556 204.8h73.955555v45.511111H329.955556v-45.511111zM329.955556 853.333333h73.955555v45.511111H329.955556V853.333333zM438.044444 853.333333H512v45.511111H438.044444V853.333333zM130.844444 56.888889h73.955556v45.511111H130.844444V56.888889zM56.888889 705.422222h45.511111v45.511111H56.888889v-45.511111zM671.288889 56.888889h45.511111v45.511111h-45.511111V56.888889zM563.2 56.888889h73.955556v45.511111H563.2V56.888889zM56.888889 591.644444h45.511111v73.955556H56.888889v-73.955556zM671.288889 136.533333h45.511111v45.511111h-45.511111v-45.511111zM130.844444 705.422222h85.333334v45.511111H130.844444v-45.511111zM238.933333 56.888889h73.955556v45.511111H238.933333V56.888889zM347.022222 56.888889h73.955556v45.511111H347.022222V56.888889zM455.111111 56.888889h73.955556v45.511111H455.111111V56.888889zM56.888889 56.888889h45.511111v45.511111H56.888889V56.888889zM56.888889 250.311111h45.511111v73.955556H56.888889V250.311111zM56.888889 364.088889h45.511111v73.955555H56.888889V364.088889zM56.888889 130.844444h45.511111v73.955556H56.888889V130.844444zM56.888889 477.866667h45.511111v73.955555H56.888889V477.866667z" fill="#555555" p-id="38804"></path><path d="M796.444444 733.866667c-22.755556-11.377778-51.2 0-62.577777 22.755555-11.377778 22.755556 0 51.2 22.755555 62.577778 5.688889 0 11.377778 0 11.377778 5.688889 22.755556 5.688889 39.822222-5.688889 51.2-22.755556 11.377778-17.066667 5.688889-39.822222-5.688889-51.2-5.688889-11.377778-11.377778-17.066667-17.066667-17.066666z" fill="#555555" p-id="38805"></path><path d="M927.288889 796.444444c17.066667-5.688889 28.444444-5.688889 39.822222-11.377777v-34.133334c-11.377778 0-22.755556-5.688889-39.822222-5.688889 0-11.377778-5.688889-17.066667-5.688889-28.444444l28.444444-28.444444c-5.688889-11.377778-11.377778-17.066667-17.066666-28.444445-11.377778 5.688889-22.755556 5.688889-39.822222 11.377778-5.688889-5.688889-11.377778-11.377778-22.755556-17.066667 5.688889-17.066667 5.688889-28.444444 11.377778-39.822222-11.377778-5.688889-22.755556-11.377778-28.444445-17.066667l-5.688889 5.688889c-5.688889 5.688889-11.377778 17.066667-22.755555 28.444445h-11.377778c-5.688889-5.688889-11.377778-5.688889-17.066667-5.688889-5.688889-17.066667-5.688889-28.444444-11.377777-39.822222h-34.133334-5.688889c0 11.377778-5.688889 22.755556-5.688888 39.822222-5.688889 0-17.066667 5.688889-22.755556 5.688889l-28.444444-28.444445c-5.688889 5.688889-11.377778 5.688889-17.066667 11.377778-5.688889 0-5.688889 5.688889-11.377778 5.688889 5.688889 11.377778 5.688889 22.755556 11.377778 39.822222l-17.066667 17.066667h-5.688889c-11.377778-5.688889-28.444444-5.688889-34.133333-11.377778 0 0 0 5.688889-5.688889 11.377778s-5.688889 17.066667-11.377778 22.755555l11.377778 11.377778c5.688889 5.688889 11.377778 11.377778 17.066667 11.377778 0 11.377778-5.688889 17.066667-5.688889 28.444444-17.066667 5.688889-28.444444 5.688889-39.822222 11.377778v34.133333c11.377778 0 22.755556 5.688889 39.822222 5.688889 0 5.688889 5.688889 11.377778 5.688889 11.377778 0 5.688889 0 11.377778 5.688889 11.377778l-17.066667 17.066667-11.377778 11.377777c5.688889 11.377778 11.377778 17.066667 17.066667 28.444445 11.377778-5.688889 22.755556-5.688889 39.822222-11.377778 5.688889 5.688889 11.377778 11.377778 22.755556 17.066667-5.688889 17.066667-5.688889 28.444444-11.377778 39.822222 11.377778 5.688889 22.755556 11.377778 28.444444 17.066667l28.444445-28.444445c11.377778 0 17.066667 5.688889 28.444444 5.688889 5.688889 17.066667 5.688889 28.444444 11.377778 39.822222h34.133333c0-11.377778 5.688889-22.755556 5.688889-39.822222 11.377778 0 17.066667-5.688889 28.444445-5.688889l28.444444 28.444445c11.377778-5.688889 17.066667-11.377778 28.444445-17.066667-5.688889-11.377778-5.688889-22.755556-11.377778-39.822222 5.688889-5.688889 11.377778-11.377778 17.066666-22.755556 17.066667 5.688889 28.444444 5.688889 39.822223 11.377778 5.688889-11.377778 11.377778-22.755556 17.066666-28.444445l-28.444444-28.444444V796.444444z m-136.533333 91.022223c-34.133333 5.688889-68.266667-5.688889-91.022223-28.444445-11.377778-11.377778-17.066667-17.066667-22.755555-28.444444-5.688889-11.377778-11.377778-22.755556-11.377778-34.133334-5.688889-28.444444 5.688889-51.2 17.066667-73.955555 11.377778-17.066667 28.444444-28.444444 45.511111-39.822222 11.377778-5.688889 22.755556-11.377778 34.133333-11.377778 17.066667 0 34.133333 0 51.2 5.688889 11.377778 5.688889 22.755556 11.377778 28.444445 17.066666 22.755556 17.066667 39.822222 45.511111 39.822222 73.955556 11.377778 56.888889-28.444444 108.088889-91.022222 119.466667z" fill="#555555" p-id="38806"></path></svg>