<?xml version="1.0" standalone="no"?><!DOCTYPE svg PUBLIC "-//W3C//DTD SVG 1.1//EN" "http://www.w3.org/Graphics/SVG/1.1/DTD/svg11.dtd"><svg t="1603335249323" class="icon" viewBox="0 0 1024 1024" version="1.1" xmlns="http://www.w3.org/2000/svg" p-id="38012" xmlns:xlink="http://www.w3.org/1999/xlink" width="128" height="128"><defs><style type="text/css"></style></defs><path d="M819.2 307.2C819.2 140.8 684.8 0 512 0S204.8 140.8 204.8 307.2c0 153.6 115.2 288 275.2 300.8L480 1024l64 0 0-128L704 896l0-64L544 832l0-64L704 768l0-64L544 704 544 608C697.6 595.2 819.2 467.2 819.2 307.2zM262.4 307.2c0-134.4 108.8-249.6 249.6-249.6s256 121.6 256 256-115.2 249.6-256 249.6S262.4 441.6 262.4 307.2z" p-id="38013"></path></svg>