<?xml version="1.0" standalone="no"?><!DOCTYPE svg PUBLIC "-//W3C//DTD SVG 1.1//EN" "http://www.w3.org/Graphics/SVG/1.1/DTD/svg11.dtd"><svg t="1602229369243" class="icon" viewBox="0 0 1024 1024" version="1.1" xmlns="http://www.w3.org/2000/svg" p-id="4488" xmlns:xlink="http://www.w3.org/1999/xlink" width="128" height="128"><defs><style type="text/css"></style></defs><path d="M350.72 308.053333a32 32 0 0 1 45.226667 45.226667L279.893333 469.333333h520.106667a32 32 0 0 1 31.701333 27.648l0.298667 4.352a32 32 0 0 1-32 32H279.893333l116.053334 116.053334a32 32 0 0 1 3.114666 41.642666l-3.114666 3.584a32 32 0 0 1-45.226667 0l-170.666667-170.666666-2.730666-3.072A32.085333 32.085333 0 0 1 170.666667 501.333333l0.170666 3.285334a32.170667 32.170667 0 0 1-0.170666-2.56v-0.725334a32.64 32.64 0 0 1 5.504-17.92 31.914667 31.914667 0 0 1 3.84-4.693333l-2.901334 3.328a32.170667 32.170667 0 0 1 2.944-3.328z" fill="#000000" p-id="4489"></path></svg>