<?xml version="1.0" standalone="no"?><!DOCTYPE svg PUBLIC "-//W3C//DTD SVG 1.1//EN" "http://www.w3.org/Graphics/SVG/1.1/DTD/svg11.dtd"><svg t="1603332792759" class="icon" viewBox="0 0 1024 1024" version="1.1" xmlns="http://www.w3.org/2000/svg" p-id="8066" xmlns:xlink="http://www.w3.org/1999/xlink" width="128" height="128"><defs><style type="text/css"></style></defs><path d="M718.656 705.856c0 66.624-54.208 120.768-120.768 120.768-66.624 0-120.768-54.208-120.768-120.768 0-66.624 54.208-120.768 120.768-120.768C664.512 585.088 718.656 639.232 718.656 705.856zM965.824 579.904l0 311.68c0 40.96-33.216 74.24-74.24 74.24L304.128 965.824c-40.96 0-74.24-33.216-74.24-74.24l0-311.68c0-40.96 33.216-74.24 74.24-74.24l93.888 0 34.304-90.816c6.464-17.088 26.688-31.104 44.992-31.104l221.056 0c18.304 0 38.528 14.016 45.056 31.104l34.304 90.816 113.92 0C932.544 505.664 965.824 538.88 965.824 579.904zM795.136 705.856c0-108.8-88.512-197.312-197.312-197.312-108.8 0-197.312 88.512-197.312 197.312 0 108.8 88.512 197.312 197.312 197.312C706.624 903.168 795.136 814.656 795.136 705.856zM415.68 120.896l116.544 0 292.352 292.352 46.592 0c7.552 0 14.272-4.544 17.152-11.52 2.88-6.976 1.28-14.912-4.032-20.224L566.464 63.616C562.816 60.032 558.08 58.176 553.344 58.176l0 0L394.88 58.176c0 0 0 0-0.064 0-0.064 0-0.128 0-0.192 0-4.736 0-9.536 1.792-13.12 5.44L63.616 381.504C58.304 386.816 56.704 394.816 59.584 401.728c2.88 6.976 9.6 11.52 17.152 11.52l35.072 0 0 424.896c0 3.648 2.944 6.592 6.592 6.592l49.728 0c3.648 0 6.592-2.944 6.592-6.592L174.72 361.792 415.68 120.896z" p-id="8067"></path></svg>