<?xml version="1.0" standalone="no"?><!DOCTYPE svg PUBLIC "-//W3C//DTD SVG 1.1//EN" "http://www.w3.org/Graphics/SVG/1.1/DTD/svg11.dtd"><svg t="1603334753090" class="icon" viewBox="0 0 1024 1024" version="1.1" xmlns="http://www.w3.org/2000/svg" p-id="28815" xmlns:xlink="http://www.w3.org/1999/xlink" width="128" height="128"><defs><style type="text/css"></style></defs><path d="M956.814222 946.346667L847.644444 836.266667a236.088889 236.088889 0 1 0-197.233777 106.951111 234.154667 234.154667 0 0 0 130.332444-39.822222l109.226667 109.966222a34.929778 34.929778 0 0 0 49.379555 0l17.521778-17.635556a35.384889 35.384889 0 0 0 0-49.720889z m-178.688-179.882667a142.961778 142.961778 0 0 1-82.488889 73.955556 113.038222 113.038222 0 0 1-45.511111 7.907555 143.928889 143.928889 0 1 1 127.772445-81.635555z m-436.337778-16.668444H226.133333a36.295111 36.295111 0 0 1 0-72.533334h113.777778a311.523556 311.523556 0 0 1 24.462222-96.711111H226.190222a36.295111 36.295111 0 0 1 0-72.533333h182.044445a310.215111 310.215111 0 0 1 135.566222-96.711111H226.190222a36.295111 36.295111 0 0 1 0-72.590223h554.837334a36.295111 36.295111 0 0 1 0 72.590223h-27.192889a312.206222 312.206222 0 0 1 196.494222 220.046222V110.023111A109.909333 109.909333 0 0 0 841.045333 0H166.058667A109.909333 109.909333 0 0 0 56.888889 109.909333v785.066667a109.909333 109.909333 0 0 0 109.226667 109.966222h395.889777a312.092444 312.092444 0 0 1-220.16-255.089778zM226.133333 169.528889h554.894223a36.295111 36.295111 0 0 1 0 72.533333H226.133333a36.295111 36.295111 0 0 1 0-72.533333z m0 0" p-id="28816"></path></svg>