<?xml version="1.0" standalone="no"?><!DOCTYPE svg PUBLIC "-//W3C//DTD SVG 1.1//EN" "http://www.w3.org/Graphics/SVG/1.1/DTD/svg11.dtd"><svg t="1603332923771" class="icon" viewBox="0 0 1024 1024" version="1.1" xmlns="http://www.w3.org/2000/svg" p-id="12311" xmlns:xlink="http://www.w3.org/1999/xlink" width="128" height="128"><defs><style type="text/css"></style></defs><path d="M397.4 736.2h-79.9c-4.4 0-8 3.6-8 8v79.9c0 4.4 3.6 8 8 8h79.9c4.4 0 8-3.6 8-8v-79.9c0-4.5-3.6-8-8-8z m0-147.9h-79.9c-4.4 0-8 3.6-8 8v79.9c0 4.4 3.6 8 8 8h79.9c4.4 0 8-3.6 8-8v-79.9c0-4.4-3.6-8-8-8z m0-147.9h-79.9c-4.4 0-8 3.6-8 8v79.9c0 4.4 3.6 8 8 8h79.9c4.4 0 8-3.6 8-8v-79.9c0-4.4-3.6-8-8-8z m328 511.3c-13.6 0-27.4-1.2-40.8-3.6l-1.4-0.3c-10.4-1.9-18.8-10.2-20.7-20.7l-6.7-36.5c-14.8-6.1-28.8-14.2-41.6-24.2l-35 12.4c-2.8 1-5.7 1.5-8.6 1.5-7.6 0-14.7-3.3-19.6-9.1l-0.9-1c-17.8-21.1-31.6-44.9-40.9-70.9l-0.5-1.4c-3.5-9.9-0.5-21.3 7.5-28.2l28.3-24.2c-1-7.8-1.6-15.9-1.6-24s0.5-16.2 1.6-24l-28.3-24.2c-8.1-6.9-11.1-18.3-7.5-28.2l0.5-1.3c9.3-25.9 23.1-49.8 40.9-70.9l0.9-1.1c4.8-5.7 12-9.1 19.6-9.1 2.9 0 5.8 0.5 8.6 1.5l35 12.4c12.8-9.9 26.8-18 41.6-24.2l6.7-36.5c1.9-10.4 10.2-18.7 20.7-20.7l1.3-0.2c13.4-2.4 27.1-3.6 40.8-3.6 13.8 0 27.5 1.2 40.8 3.6l1.4 0.3c10.4 1.9 18.8 10.2 20.7 20.7l6.7 36.3c15 6.2 29.1 14.3 42 24.3l34.7-12.3c2.8-1 5.7-1.5 8.6-1.5 7.6 0 14.7 3.3 19.6 9.1l0.9 1c17.9 21.1 31.6 44.9 40.9 70.9l0.5 1.3c3.6 10 0.5 21.4-7.5 28.2l-27.9 23.9c1.1 8.1 1.6 16.3 1.6 24.4 0 8.1-0.5 16.3-1.6 24.4l27.9 23.9c8.1 7 11.1 18.3 7.5 28.2l-0.5 1.3c-9.3 25.9-23.1 49.8-40.9 70.9l-0.9 1.1c-4.8 5.7-12 9.1-19.6 9.1-2.9 0-5.8-0.5-8.6-1.5l-34.7-12.3c-12.9 9.9-26.9 18.1-42 24.3l-6.7 36.3c-1.9 10.4-10.2 18.7-20.7 20.7l-1.3 0.2c-13.4 2.2-27.2 3.5-40.8 3.5zM712.9 896c4.1 0.3 8.3 0.4 12.4 0.4s8.3-0.1 12.4-0.4l8.4-45.8 24-9c13-4.9 25.2-11.9 36.1-20.9L826 804l43.7 15.5c4.7-6.9 8.8-14.1 12.4-21.5L847 767.9l4.2-25.3c1.1-7 1.7-14 1.7-21s-0.6-14.1-1.7-21l-4.1-25.2 35.2-30.1c-3.7-7.5-7.8-14.7-12.4-21.5L826 639.3 806.3 623c-10.9-8.9-23-15.9-36.1-20.9l-24-9-8.4-45.8c-4.1-0.3-8.3-0.4-12.4-0.4s-8.3 0.1-12.4 0.4l-8.4 45.9-23.9 9c-12.9 4.9-25 11.9-35.8 20.8l-19.8 16.3-44.1-15.6c-4.7 6.9-8.8 14.1-12.4 21.5l35.6 30.4-4.1 25.2c-1.1 6.7-1.7 13.7-1.7 20.8 0 6.8 0.6 13.8 1.7 20.8l4.1 25.2-35.6 30.4c3.7 7.5 7.8 14.7 12.4 21.5l44-15.7 19.8 16.3c10.8 8.9 22.8 15.9 35.8 20.8l23.8 9.2 8.5 45.9z" fill="#2c2c2c" p-id="12312"></path><path d="M725.4 682.4c17.6 0 32 14.4 32 32.1s-14.3 32.1-32 32.1-32-14.4-32-32.1 14.3-32.1 32-32.1m0-56c-48.6 0-88 39.4-88 88.1s39.4 88.1 88 88.1 88-39.4 88-88.1-39.5-88.1-88-88.1z" p-id="12313"></path><path d="M474.3 889H235.5V366.9l278.9-213.5 278.6 216v92.4c0 4.4 3.6 8 8 8h53c4.4 0 8-3.6 8-8v-38.9l38.8 30.1c3.5 2.7 8.5 2.1 11.2-1.4l34.3-44.2c2.7-3.5 2.1-8.5-1.4-11.2L534.2 77.7c-11.5-8.9-27.5-8.9-39-0.1l-416 318.5c-3.5 2.7-4.2 7.7-1.5 11.2l34 44.4c2.7 3.5 7.7 4.2 11.2 1.5l43.7-33.5V921c0 17.7 14.3 32 32 32h275.7c4.4 0 8-3.6 8-8v-48c0-4.4-3.6-8-8-8z" fill="#2c2c2c" p-id="12314"></path></svg>