<?xml version="1.0" standalone="no"?><!DOCTYPE svg PUBLIC "-//W3C//DTD SVG 1.1//EN" "http://www.w3.org/Graphics/SVG/1.1/DTD/svg11.dtd"><svg t="1603332864593" class="icon" viewBox="0 0 1025 1024" version="1.1" xmlns="http://www.w3.org/2000/svg" p-id="10342" xmlns:xlink="http://www.w3.org/1999/xlink" width="128.125" height="128"><defs><style type="text/css"></style></defs><path d="M810.690316 331.580952l14.628572 9.752381c34.133333 24.380952 58.514286 56.07619 65.828571 95.085715v4.87619c39.009524-9.752381 82.895238-7.314286 117.028571 9.752381l4.876191 2.438095 12.190476 9.752381-7.314286 12.190476c-29.257143 56.07619-90.209524 73.142857-151.161904 70.704762-92.647619 216.990476-287.695238 316.952381-526.628572 316.952381-121.904762 0-234.057143-43.885714-297.447619-143.847619l-2.438095-4.87619v-2.438095l-14.628571-19.504762c-19.504762-43.885714-29.257143-92.647619-24.380953-138.971429v-7.314286l2.438095-14.628571h685.104762c24.380952 0 48.761905-2.438095 70.704762-9.752381 9.752381-4.87619 24.380952-9.752381 34.133334-14.628571-12.190476-19.504762-19.504762-43.885714-21.942858-68.266667-2.438095-29.257143 4.87619-68.266667 24.380953-92.647619l14.628571-14.628572zM206.042697 619.27619c-31.695238 0-56.07619 24.380952-56.07619 51.2s24.380952 48.761905 53.638095 51.2h2.438095c29.257143 0 56.07619-24.380952 56.076191-51.2s-24.380952-51.2-56.076191-51.2z m341.333333-216.990476v99.961905h-104.838095v-99.961905h104.838095z m129.219048 0v99.961905h-102.4v-99.961905h102.4z m-385.219048 0v99.961905H188.97603v-99.961905h102.4z m129.219048 0v99.961905H318.195078v-99.961905h102.4z m-256 0v99.961905H62.195078v-99.961905h102.4z m382.780952-126.780952v99.961905h-104.838095v-99.961905h104.838095z m-126.780952 0v99.961905H318.195078v-99.961905h102.4z m-129.219048 0v99.961905H188.97603v-99.961905h102.4zM549.814126 146.285714v99.961905h-104.838096V146.285714h104.838096z" p-id="10343"></path></svg>