<?xml version="1.0" standalone="no"?><!DOCTYPE svg PUBLIC "-//W3C//DTD SVG 1.1//EN" "http://www.w3.org/Graphics/SVG/1.1/DTD/svg11.dtd"><svg t="1603332833023" class="icon" viewBox="0 0 1024 1024" version="1.1" xmlns="http://www.w3.org/2000/svg" p-id="9236" xmlns:xlink="http://www.w3.org/1999/xlink" width="128" height="128"><defs><style type="text/css"></style></defs><path d="M515.3 506.4c-4 0-8-0.9-11.7-2.7l-361-173.1c-9.5-4.5-15.4-14.1-15.4-24.5s6-20 15.4-24.5l360.9-173.1c7.5-3.5 16.2-3.6 23.6 0.1l356.2 173.1c9.3 4.5 15.3 14 15.3 24.5 0 10.4-5.9 19.9-15.3 24.5L527 503.7c-3.6 1.8-7.7 2.7-11.7 2.7z m0 0M515.3 917.8c-4.1 0-8.1-0.9-11.9-2.7L147.2 742c-13.5-6.6-19.1-22.8-12.6-36.4 6.6-13.5 22.8-19.1 36.3-12.6l344.3 167.3L859.5 693c13.5-6.5 29.8-0.9 36.4 12.6 6.5 13.5 0.9 29.8-12.6 36.4L527.2 915.1c-3.8 1.8-7.9 2.7-11.9 2.7z m0 0" p-id="9237"></path><path d="M871.3 736.8c-15 0-27.2-12.2-27.2-27.2V310.9c0-15 12.2-27.2 27.2-27.2s27.2 12.2 27.2 27.2v398.8c0 15-12.2 27.1-27.2 27.1z m0 0" p-id="9238"></path><path d="M515.3 884.6c-15 0-27.2-12.2-27.2-27.2V458.6c0-15 12.2-27.2 27.2-27.2s27.2 12.2 27.2 27.2v398.8c-0.1 15-12.2 27.2-27.2 27.2z m0 0M151.1 739.9c-15 0-27.2-12.2-27.2-27.2V310.9c0-15 12.2-27.2 27.2-27.2s27.2 12.2 27.2 27.2v401.9c-0.1 15-12.2 27.1-27.2 27.1z m0 0" p-id="9239"></path></svg>