<?xml version="1.0" standalone="no"?><!DOCTYPE svg PUBLIC "-//W3C//DTD SVG 1.1//EN" "http://www.w3.org/Graphics/SVG/1.1/DTD/svg11.dtd"><svg t="1603334174660" class="icon" viewBox="0 0 1024 1024" version="1.1" xmlns="http://www.w3.org/2000/svg" p-id="21271" xmlns:xlink="http://www.w3.org/1999/xlink" width="128" height="128"><defs><style type="text/css"></style></defs><path d="M512 1024a512 512 0 0 1-512-512C0 240.704 211.136 19.264 478.016 1.728V0h64v1.536C810.752 17.152 1024 239.36 1024 512a512 512 0 0 1-512 512z m190.656-480.576h-160.64v97.664c53.824 1.792 104.448 7.872 149.76 17.92a973.44 973.44 0 0 0 10.88-115.584zM332.16 659.008c44.16-9.792 93.504-15.808 145.856-17.728V543.424H321.344c1.216 40.448 5.312 78.784 10.816 115.584z m-10.752-179.584h156.608V382.72a818.752 818.752 0 0 1-145.856-17.728 982.656 982.656 0 0 0-10.752 114.432z m220.608 0h160.576a982.4 982.4 0 0 0-10.816-114.432c-45.312 10.048-95.936 16.128-149.76 17.92v96.512z m414.848 64h-189.632a983.68 983.68 0 0 1-13.248 132.48c61.952 20.992 106.88 50.048 127.936 83.136a443.52 443.52 0 0 0 74.944-215.616zM875.968 768h-63.552c-15.232-12.864-39.744-24.384-70.336-34.048-19.392 80.704-48.768 150.016-85.44 200.32A447.744 447.744 0 0 0 875.968 768z m-195.264-49.088a884.992 884.992 0 0 0-138.688-14.208v248.512c60.672-22.464 111.168-111.936 138.688-234.304zM478.016 952.32v-247.488c-49.344 1.6-94.912 6.528-134.784 14.08 26.88 120 75.776 208.576 134.784 233.408z m-110.656-18.048c-36.672-50.304-66.048-119.616-85.44-200.32-30.592 9.664-55.104 21.184-70.336 34.048h-63.552a447.744 447.744 0 0 0 219.328 166.272zM142.08 759.04c21.056-33.088 65.984-62.144 127.936-83.136a983.68 983.68 0 0 1-13.248-132.48H67.136A443.52 443.52 0 0 0 142.08 759.04z m114.752-279.616c1.408-45.76 6.144-89.6 13.184-131.328-61.952-20.992-106.816-50.048-127.936-83.136a442.816 442.816 0 0 0-74.816 214.464h189.568zM148.096 256h63.488c15.232 12.864 39.68 24.32 70.336 34.048 19.392-80.704 48.768-150.016 85.44-200.32A447.232 447.232 0 0 0 148.096 256z m195.136 49.088c39.872 7.552 85.44 12.48 134.784 14.08V71.68c-59.008 24.768-107.904 113.408-134.784 233.408z m198.784-234.304v248.512c50.816-1.472 97.792-6.4 138.688-14.208-27.52-122.368-78.016-211.84-138.688-234.304z m114.624 18.944c36.672 50.304 66.048 119.616 85.44 200.32 30.656-9.728 55.104-21.184 70.336-34.048h63.488a447.232 447.232 0 0 0-219.264-166.272z m225.28 175.232c-21.12 33.088-65.984 62.144-127.936 83.136 7.04 41.728 11.776 85.568 13.184 131.328h189.568A442.816 442.816 0 0 0 881.92 264.96z" p-id="21272"></path></svg>