<?xml version="1.0" standalone="no"?><!DOCTYPE svg PUBLIC "-//W3C//DTD SVG 1.1//EN" "http://www.w3.org/Graphics/SVG/1.1/DTD/svg11.dtd"><svg t="1603333843470" class="icon" viewBox="0 0 1024 1024" version="1.1" xmlns="http://www.w3.org/2000/svg" p-id="18743" xmlns:xlink="http://www.w3.org/1999/xlink" width="128" height="128"><defs><style type="text/css"></style></defs><path d="M1016.98048 510.44864c0-278.44608-226.5344-504.97024-504.9856-504.97024-278.44096 0-504.97536 226.52416-504.97536 504.97024 0 278.44096 226.5344 504.97024 504.97536 504.97024 41.94304 0 82.69824-5.19168 121.69216-14.87872l7.67488 17.98144 103.7056 0 33.51552-78.6688 0.66048-0.24064c8.6784-3.15904 15.60064-6.00064 21.74976-8.94976l0.6656-0.31232 79.19616 31.97952 73.24672-73.4208-31.9744-79.16032 0.28672-0.61952c3.47648-7.65952 6.41536-14.80192 8.98048-21.84192l0.24064-0.65024 78.48448-33.00864 0-103.69024-11.47392-4.85888C1010.52416 602.1888 1016.98048 557.07136 1016.98048 510.44864zM941.00992 546.35008l2.08896 0c-1.9968 23.5776-5.98528 46.97088-11.79136 69.87776l-0.10752-0.30208c-3.2256-8.81152-6.06208-15.7184-8.93952-21.77024l-0.31232-0.64L941.00992 546.35008zM943.0784 474.56768l-28.82048 0-33.5872-33.65376-79.17056 31.97952-0.64512-0.29696c-6.51264-3.0208-13.06624-5.7344-19.93216-8.32-3.14368-63.54432-12.46208-128.08192-26.42944-181.80608 36.224-9.29792 70.30784-20.81792 101.60128-34.33472C905.57952 313.05216 936.14592 392.66304 943.0784 474.56768zM464.14336 594.2016l-0.29184 0.62976c-3.14368 6.81984-5.98016 13.69088-8.44288 20.41856l-0.24064 0.67072-79.01184 34.35008 0 67.79904c-11.91424 1.57184-23.77728 3.27168-35.5072 5.26848-14.48448-53.78048-23.69024-115.74784-26.27584-176.98816L445.2864 546.35008 464.14336 594.2016zM607.34464 463.74912l-0.66048 0.24576c-6.48192 2.31424-13.16864 5.07904-20.41856 8.43264l-0.64 0.29696-79.86176-31.47776-33.28512 33.29024L314.39872 474.53696c2.5856-61.2608 11.79136-123.23328 26.27584-176.99328 111.45216 18.95936 231.26528 18.95424 342.66112 0 7.36256 27.35104 13.33248 56.87296 17.7664 87.36256l-59.57632 0L607.34464 463.74912zM804.75136 191.53408c-22.38464 8.48384-46.57152 16.01024-72.20736 22.47168-14.86848-39.12704-32.53248-73.51808-52.77184-102.80448C725.55008 130.54464 767.99488 157.80352 804.75136 191.53408zM511.99488 77.2864c55.07072 0 109.94176 56.22784 148.39296 151.28064-96.49152 15.18592-200.26368 15.18592-296.80128 0C402.05824 133.51936 456.9344 77.2864 511.99488 77.2864zM344.192 111.22176c-20.20864 29.22496-37.86752 63.62112-52.77184 102.784-25.58976-6.4512-49.7664-13.96736-72.19712-22.45632C255.95904 157.81888 298.40384 130.56512 344.192 111.22176zM167.84384 248.1152c31.34976 13.52192 65.43872 25.0368 101.62688 34.33984-14.4896 56.13568-24.31488 126.14144-26.9312 192.08704L80.90112 474.54208C87.82848 392.63232 118.3744 313.03168 167.84384 248.1152zM80.9216 546.35008l161.62304 0c2.60096 65.99168 12.43648 135.98208 26.95168 192.06144-36.24448 9.34912-70.32832 20.87936-101.59616 34.37056C118.41536 707.90144 87.85408 628.29056 80.9216 546.35008zM219.2128 829.35808c22.40512-8.48896 46.58688-16.01024 72.20736-22.47168 14.88384 39.1424 32.55296 73.53856 52.7872 102.79936C298.42432 890.34752 255.96928 863.09888 219.2128 829.35808zM363.59168 792.33024c26.69056-4.18816 53.94432-7.1424 81.41312-9.00096l9.99936 4.33152 0.23552 0.67072c2.29376 6.42048 4.97664 12.90752 8.43264 20.41856l0.29184 0.62976-31.4624 79.872 48.49152 48.49152C436.8384 921.04192 394.81344 869.46816 363.59168 792.33024zM949.82656 714.0096l-67.73248 28.48768-4.0192 13.69088c-3.81952 13.09184-9.088 25.91232-15.616 38.0416l-6.94272 12.57984 27.4688 68.09088-16.81408 16.8192-68.07552-27.48928-12.5696 6.95808c-11.17696 6.24128-23.97696 11.48928-38.05184 15.5904l-13.71648 4.02944-28.66688 67.56864-23.72096 0-28.84096-67.57888-13.71136-4.0192c-13.44512-3.94752-26.0864-9.09824-37.5296-15.2576l-12.42112-6.7584-68.58752 27.13088-16.96256-16.96768 26.95168-68.59776-6.76352-12.41088c-6.24128-11.43808-11.3152-23.81824-15.08864-36.84864l-4.02432-13.53216-67.74784-29.53216 0-24.04864 67.74272-29.51168 4.0448-13.57824c4.02432-13.29152 9.09824-25.69216 15.07328-36.82816l6.77888-12.43136-26.9568-68.58752 16.96256-16.95744 68.58752 27.11552 12.42624-6.76864c11.61216-6.33856 23.98208-11.40224 36.8384-15.06816l13.54752-4.03456 29.52192-67.74272 24.04864 0 29.5168 67.74272 13.54752 4.03456c13.60384 4.06016 26.16832 9.25184 37.36064 15.43168l12.58496 6.92224 68.0704-27.47392 16.80384 16.81408-27.45344 68.08064 6.92224 12.59008c6.25664 11.18208 11.49952 23.97184 15.60576 38.0416l4.03456 13.71136 67.56352 28.83072L949.81632 714.0096z" p-id="18744"></path><path d="M691.85536 570.48064c-72.78592 0-131.99872 59.20768-131.99872 131.98848 0 72.79104 59.2128 131.99872 131.99872 131.99872s131.99872-59.20768 131.99872-131.99872C823.85408 629.68832 764.64128 570.48064 691.85536 570.48064zM691.85536 764.73856c-34.33472 0-62.26432-27.9296-62.26432-62.26944 0-34.3296 27.9296-62.2592 62.26432-62.2592s62.26432 27.9296 62.26432 62.2592C754.11968 736.80896 726.19008 764.73856 691.85536 764.73856z" p-id="18745"></path></svg>