<?xml version="1.0" standalone="no"?><!DOCTYPE svg PUBLIC "-//W3C//DTD SVG 1.1//EN" "http://www.w3.org/Graphics/SVG/1.1/DTD/svg11.dtd"><svg t="1603334629181" class="icon" viewBox="0 0 1137 1024" version="1.1" xmlns="http://www.w3.org/2000/svg" p-id="24226" xmlns:xlink="http://www.w3.org/1999/xlink" width="142.125" height="128"><defs><style type="text/css"></style></defs><path d="M447.608889 456.391111a121.315556 121.315556 0 1 0 121.315555-121.315555 121.315556 121.315556 0 0 0-121.351111 121.315555z" p-id="24227"></path><path d="M1137.777778 910.222222V0H0v910.222222h512v56.888889h-284.444444v56.888889h682.666666v-56.888889h-284.444444v-56.888889z m-684.337778-259.306666l-45.511111 45.511111-80.355556-80.426667 45.511111-45.511111a226.026667 226.026667 0 0 1-24.284444-58.417778H284.444444v-113.777778h64.355556a225.564444 225.564444 0 0 1 24.284444-58.488889l-45.511111-45.511111 80.426667-80.426666 45.511111 45.511111a225.706667 225.706667 0 0 1 58.488889-24.284445V170.666667h113.777778v64.355555a226.133333 226.133333 0 0 1 58.417778 24.284445l45.511111-45.511111 80.426666 80.426666-45.511111 45.511111a227.555556 227.555556 0 0 1 24.248889 58.488889h64.391111v113.777778h-64.355555a227.555556 227.555556 0 0 1-24.248889 58.417778l45.511111 45.511111-80.426667 80.426667-45.511111-45.511112a227.555556 227.555556 0 0 1-58.417778 24.248889V739.555556h-113.777777v-64.391112a227.555556 227.555556 0 0 1-58.488889-24z" p-id="24228"></path></svg>