<?xml version="1.0" standalone="no"?><!DOCTYPE svg PUBLIC "-//W3C//DTD SVG 1.1//EN" "http://www.w3.org/Graphics/SVG/1.1/DTD/svg11.dtd"><svg t="1603335153318" class="icon" viewBox="0 0 1228 1024" version="1.1" xmlns="http://www.w3.org/2000/svg" p-id="35800" xmlns:xlink="http://www.w3.org/1999/xlink" width="153.5" height="128"><defs><style type="text/css"></style></defs><path d="M1148.055878 364.749789a599.039101 599.039101 0 0 0-125.491012-190.463714A587.672718 587.672718 0 0 0 834.558748 47.207865 571.595943 571.595943 0 0 0 605.848691 0.001536a572.261542 572.261542 0 0 0-228.710057 47.206329 592.383111 592.383111 0 0 0-187.954918 127.07821 597.656704 597.656704 0 0 0-125.337412 190.463714 590.437514 590.437514 0 0 0-46.79673 231.782052c0 82.585476 15.871976 160.767759 47.359929 234.342049A598.066303 598.066303 0 0 0 195.890906 1024h820.01797a597.247104 597.247104 0 0 0 131.481403-193.12611c31.590353-73.932689 47.667128-153.753369 47.257529-234.342049a592.075912 592.075912 0 0 0-46.59193-231.782052zM575.743136 127.745344h60.41591v109.260636h-60.41591V127.745344z m-324.658713 444.824933l-106.39344-19.81437 10.495984-59.90391 106.49584 19.81437-10.598384 59.90391z m102.502247-231.679652l-69.631896-83.967874 46.028731-38.502343 69.529496 83.865475-45.926331 38.604742z m340.991488 369.509845a91.238263 91.238263 0 0 1-40.08954 57.241515c-20.991969 13.721579-43.827134 17.766373-68.403097 12.031981a86.78387 86.78387 0 0 1-56.422315-40.652739 89.599866 89.599866 0 0 1-1.331198-94.412658L427.109759 394.138545l181.350128 205.055692c32.460751 0.921599 57.446314 15.155177 74.956688 42.495936 13.10718 21.299168 16.895975 44.236734 11.161583 68.710297z m163.686155-369.509845l-46.079931-38.604742 69.734295-83.865475 45.926331 38.502343-69.580695 83.967874z m102.451046 231.679652l-10.393584-59.90391 106.39344-19.96797 10.495984 59.90391-106.49584 19.96797z" p-id="35801"></path></svg>