<?xml version="1.0" standalone="no"?><!DOCTYPE svg PUBLIC "-//W3C//DTD SVG 1.1//EN" "http://www.w3.org/Graphics/SVG/1.1/DTD/svg11.dtd"><svg t="1603336574542" class="icon" viewBox="0 0 1035 1024" version="1.1" xmlns="http://www.w3.org/2000/svg" p-id="5799" xmlns:xlink="http://www.w3.org/1999/xlink" width="129.375" height="128"><defs><style type="text/css"></style></defs><path d="M539.254 149.529h444.596a51.782 51.782 0 0 1 51.782 51.782v724.94a51.782 51.782 0 0 1-51.782 51.783H51.782a51.782 51.782 0 0 1-51.782-51.782V97.748a51.782 51.782 0 0 1 51.782-51.782h383.908L539.254 149.53zM341.292 605.673l-51.314 29.618 51.78 89.634 51.316-29.618c20.35 19.211 45.153 33.813 72.754 41.995v59.29h103.51V737.25a180.976 180.976 0 0 0 72.701-41.996l51.316 29.62 51.782-89.583-51.316-29.67a181.65 181.65 0 0 0 0-83.99l51.264-29.67-51.73-89.582-51.366 29.619a180.976 180.976 0 0 0-72.702-42.047v-59.186H465.776v59.237a180.976 180.976 0 0 0-72.702 42.048l-51.316-29.671-51.78 89.685 51.314 29.62a181.65 181.65 0 0 0 0 83.989z m176.265 35.626a77.672 77.672 0 1 1 0-155.242 77.672 77.672 0 0 1 0 155.242z" p-id="5800"></path></svg>