<?xml version="1.0" standalone="no"?><!DOCTYPE svg PUBLIC "-//W3C//DTD SVG 1.1//EN" "http://www.w3.org/Graphics/SVG/1.1/DTD/svg11.dtd"><svg t="1603332732420" class="icon" viewBox="0 0 1024 1024" version="1.1" xmlns="http://www.w3.org/2000/svg" p-id="7279" xmlns:xlink="http://www.w3.org/1999/xlink" width="128" height="128"><defs><style type="text/css"></style></defs><path d="M511.744 841.216L179.2 680.192c1.152 0.768-29.44-13.824-51.2-26.88 0 19.584 4.672 55.232 21.952 64.896l325.632 153.728c28.8 14.208 41.088 14.208 72.32 0l325.632-153.728c16-7.872 21.888-44.864 21.888-64.832-20.928 11.008-50.56 26.688-51.2 26.88l-332.48 160.96zM149.952 557.12l325.632 153.728c28.8 14.272 41.088 14.272 72.32 0l325.632-153.728c16-7.872 21.888-44.8 21.888-64.768-20.928 11.008-50.56 26.688-51.2 26.88l-332.48 160.96L179.2 519.168c1.152 0.768-29.44-13.76-51.2-26.816 0 19.456 4.672 55.168 21.952 64.768z m0-160.96L475.52 549.76c28.8 14.272 41.088 14.272 72.32 0L873.6 396.16c23.936-11.712 24.768-61.632 0-75.84L547.84 139.648c-25.6-15.936-43.52-15.104-72.32 0L149.952 320.192c-24.768 16.768-25.6 61.632 0 75.904zM511.68 170.24c0.384 0.128 0.64 0.32 0.96 0.512l331.648 187.328-332.544 147.2-332.544-147.2 332.48-187.84z" p-id="7280"></path></svg>