<?xml version="1.0" standalone="no"?><!DOCTYPE svg PUBLIC "-//W3C//DTD SVG 1.1//EN" "http://www.w3.org/Graphics/SVG/1.1/DTD/svg11.dtd"><svg t="1590132204361" class="icon" viewBox="0 0 1024 1024" version="1.1" xmlns="http://www.w3.org/2000/svg" p-id="14838" width="250" height="250" xmlns:xlink="http://www.w3.org/1999/xlink"><defs><style type="text/css"></style></defs><path d="M503.2 408.8c-99.6 0-193.6-13.9-264.6-39.2-78.4-27.9-119.8-66-119.8-110.2s41.4-82.3 119.8-110.2c71-25.3 164.9-39.2 264.6-39.2s193.6 13.9 264.6 39.2c78.4 27.9 119.8 66 119.8 110.2s-41.4 82.3-119.8 110.2c-71 25.3-164.9 39.2-264.6 39.2z m0-259.7c-95.3 0-184.6 13.1-251.5 36.9-58.8 20.9-93.9 48.4-93.9 73.5s35.1 52.5 93.9 73.5c66.9 23.8 156.2 36.9 251.5 36.9s184.6-13.1 251.5-36.9c58.8-20.9 93.9-48.4 93.9-73.5S813.5 207 754.7 186c-66.8-23.8-156.2-36.9-251.5-36.9zM503.2 581.9c-99.6 0-193.6-13.9-264.6-39.2-78.4-27.9-119.8-66-119.8-110.2h39c0 25.1 35.1 52.5 93.9 73.5 66.9 23.8 156.2 36.9 251.5 36.9s184.6-13.1 251.5-36.9c58.8-20.9 93.9-48.4 93.9-73.5h39c0 44.2-41.4 82.3-119.8 110.2-71 25.3-164.9 39.2-264.6 39.2zM503.2 755.1c-99.6 0-193.6-13.9-264.6-39.2-78.4-27.9-119.8-66-119.8-110.2h39c0 25.1 35.1 52.5 93.9 73.5 66.9 23.8 156.2 36.9 251.5 36.9s184.6-13.1 251.5-36.9c58.8-20.9 93.9-48.4 93.9-73.5h39c0 44.2-41.4 82.3-119.8 110.2-71 25.3-164.9 39.2-264.6 39.2zM503.2 928.3c-99.6 0-193.6-13.9-264.6-39.2-78.4-27.9-119.8-66-119.8-110.2h39c0 25.1 35.1 52.5 93.9 73.5 66.9 23.8 156.2 36.9 251.5 36.9s184.6-13.1 251.5-36.9c58.8-20.9 93.9-48.4 93.9-73.5h39c0 44.2-41.4 82.3-119.8 110.2-71 25.2-164.9 39.2-264.6 39.2z" fill="#515151" p-id="14839"></path><path d="M118.8 245h39v548.3h-39zM848.7 245h39v548.3h-39z" fill="#515151" p-id="14840"></path></svg>