<?xml version="1.0" standalone="no"?><!DOCTYPE svg PUBLIC "-//W3C//DTD SVG 1.1//EN" "http://www.w3.org/Graphics/SVG/1.1/DTD/svg11.dtd"><svg t="1603332691396" class="icon" viewBox="0 0 1117 1024" version="1.1" xmlns="http://www.w3.org/2000/svg" p-id="5709" xmlns:xlink="http://www.w3.org/1999/xlink" width="139.625" height="128"><defs><style type="text/css"></style></defs><path d="M633.018182 302.545455s4.654545-107.054545-46.545455-172.218182S460.8 41.890909 414.254545 41.890909 311.854545 74.472727 302.545455 93.090909c-4.654545 9.309091 0 13.963636 0 13.963636s-51.2 0-69.818182 37.236364l-23.272728 46.545455c-4.654545 9.309091-13.963636 41.890909-13.963636 69.818181s4.654545 41.890909 4.654546 41.89091-27.927273 9.309091-13.963637 51.2 18.618182 55.854545 32.581818 65.163636c13.963636 4.654545 27.927273 4.654545 27.927273 4.654545s-4.654545 74.472727 18.618182 116.363637c4.654545 9.309091 27.927273 23.272727 37.236364 32.581818l41.890909 41.890909s-4.654545 51.2-23.272728 69.818182c-18.618182 18.618182-46.545455 37.236364-93.090909 46.545454s-153.6 27.927273-190.836363 111.709091-37.236364 121.018182-37.236364 121.018182h325.818182s0-79.127273 51.2-111.709091c51.2-27.927273 121.018182-46.545455 121.018182-46.545454s79.127273-27.927273 93.090909-37.236364 18.618182-9.309091 18.618182-13.963636-4.654545-9.309091-18.618182-9.309091c-13.963636 0-46.545455-4.654545-60.509091-13.963637-18.618182-4.654545-69.818182-32.581818-69.818182-83.781818s46.545455-83.781818 46.545455-83.781818 9.309091-9.309091 13.963636-27.927273c4.654545-18.618182 27.927273-102.4 37.236364-121.018182 9.309091-23.272727 32.581818-83.781818 74.472727-111.70909z" fill="" p-id="5710"></path><path d="M377.018182 963.490909H1117.090909s-9.309091-83.781818-69.818182-107.054545c-60.509091-23.272727-158.254545-32.581818-181.527272-51.2-23.272727-13.963636-46.545455-41.890909-41.89091-65.163637s18.618182-37.236364 55.854546-46.545454c37.236364-9.309091 65.163636 4.654545 88.436364-13.963637 18.618182-23.272727 4.654545-60.509091-4.654546-69.818181l-4.654545-4.654546s-18.618182-23.272727-32.581819-69.818182c-13.963636-46.545455-32.581818-139.636364-55.854545-162.909091s-46.545455-60.509091-107.054545-60.509091c-60.509091 0-97.745455 13.963636-125.672728 51.2s-60.509091 153.6-60.509091 153.6-13.963636 60.509091-23.272727 69.818182c-9.309091 9.309091-46.545455 37.236364-37.236364 65.163637 9.309091 27.927273 37.236364 41.890909 55.854546 41.890909 18.618182 0 79.127273 4.654545 83.781818 37.236363s4.654545 51.2-13.963636 65.163637c-18.618182 13.963636-83.781818 46.545455-116.363637 55.854545s-88.436364 23.272727-107.054545 37.236364c-46.545455 23.272727-41.890909 74.472727-41.890909 74.472727z" fill="" p-id="5711"></path></svg>