<?xml version="1.0" standalone="no"?><!DOCTYPE svg PUBLIC "-//W3C//DTD SVG 1.1//EN" "http://www.w3.org/Graphics/SVG/1.1/DTD/svg11.dtd"><svg t="1603346125262" class="icon" viewBox="0 0 1024 1024" version="1.1" xmlns="http://www.w3.org/2000/svg" p-id="10254" xmlns:xlink="http://www.w3.org/1999/xlink" width="128" height="128"><defs><style type="text/css"></style></defs><path d="M981.333333 490.666667h-64v-128c0-12.8-8.533333-21.333333-21.333333-21.333334H533.333333v-85.333333h320c23.466667 0 42.666667-19.2 42.666667-42.666667V106.666667c0-23.466667-19.2-42.666667-42.666667-42.666667H170.666667c-23.466667 0-42.666667 19.2-42.666667 42.666667v106.666666c0 23.466667 19.2 42.666667 42.666667 42.666667h320v85.333333H128c-12.8 0-21.333333 8.533333-21.333333 21.333334v128H42.666667c-23.466667 0-42.666667 19.2-42.666667 42.666666v384c0 23.466667 19.2 42.666667 42.666667 42.666667h170.666666c23.466667 0 42.666667-19.2 42.666667-42.666667V533.333333c0-23.466667-19.2-42.666667-42.666667-42.666666H149.333333v-106.666667h341.333334v106.666667h-64c-23.466667 0-42.666667 19.2-42.666667 42.666666v384c0 23.466667 19.2 42.666667 42.666667 42.666667h170.666666c23.466667 0 42.666667-19.2 42.666667-42.666667V533.333333c0-23.466667-19.2-42.666667-42.666667-42.666666h-64v-106.666667h341.333334v106.666667h-64c-23.466667 0-42.666667 19.2-42.666667 42.666666v384c0 23.466667 19.2 42.666667 42.666667 42.666667h170.666666c23.466667 0 42.666667-19.2 42.666667-42.666667V533.333333c0-23.466667-19.2-42.666667-42.666667-42.666666zM192 554.666667v341.333333H64V554.666667h128z m384 0v341.333333h-128V554.666667h128zM192 192V128h640v64H192z m768 704h-128V554.666667h128v341.333333z" p-id="10255"></path></svg>