<?xml version="1.0" standalone="no"?><!DOCTYPE svg PUBLIC "-//W3C//DTD SVG 1.1//EN" "http://www.w3.org/Graphics/SVG/1.1/DTD/svg11.dtd"><svg t="1603346679894" class="icon" viewBox="0 0 1024 1024" version="1.1" xmlns="http://www.w3.org/2000/svg" p-id="16257" xmlns:xlink="http://www.w3.org/1999/xlink" width="128" height="128"><defs><style type="text/css"></style></defs><path d="M368 464h-192A48 48 0 0 0 128 512v336c0 26.496 21.504 48 48 48h192a48 48 0 0 0 48-48V512a48 48 0 0 0-48-48z m0 384h-192V512h192v336zM848 128h-192a48 48 0 0 0-48 48V512c0 26.496 21.504 48 48 48h192A48 48 0 0 0 896 512V176a48 48 0 0 0-48-48z m0 384h-192V176h192V512zM176 416H512a48 48 0 0 0 48-48v-192A48 48 0 0 0 512 128H176a48 48 0 0 0-48 48v192c0 26.496 21.504 48 48 48z m0-240H512v192H176v-192z m672 432H512a48 48 0 0 0-48 48v192c0 26.496 21.504 48 48 48h336a48 48 0 0 0 48-48v-192a48 48 0 0 0-48-48z m0 240H512v-192h336v192zM512 464a48 48 0 1 0 0.064 96.064A48 48 0 0 0 512 464z" fill="#666666" p-id="16258"></path></svg>