<?xml version="1.0" standalone="no"?><!DOCTYPE svg PUBLIC "-//W3C//DTD SVG 1.1//EN" "http://www.w3.org/Graphics/SVG/1.1/DTD/svg11.dtd"><svg t="1603336334933" class="icon" viewBox="0 0 1024 1024" version="1.1" xmlns="http://www.w3.org/2000/svg" p-id="4756" xmlns:xlink="http://www.w3.org/1999/xlink" width="128" height="128"><defs><style type="text/css"></style></defs><path d="M921.856 947.48672A86.56896 86.56896 0 0 1 860.672 972.8H168.448A86.4768 86.4768 0 0 1 81.92 886.39488V137.59488A86.46144 86.46144 0 0 1 168.448 51.2h692.224A86.45632 86.45632 0 0 1 947.2 137.59488v748.8a86.28224 86.28224 0 0 1-25.344 61.09184zM745.30816 108.79488H283.82208v201.60512a28.81536 28.81536 0 0 0 28.83584 28.8h403.79904a28.8256 28.8256 0 0 0 28.8512-28.8V108.79488z m144.20992 28.8a28.82048 28.82048 0 0 0-28.84096-28.8h-57.68704v201.60512a86.4768 86.4768 0 0 1-86.528 86.4H312.65792a86.47168 86.47168 0 0 1-86.528-86.4V108.79488H168.448a28.83072 28.83072 0 0 0-28.85632 28.8v748.8a28.83072 28.83072 0 0 0 28.85632 28.8h692.224a28.82048 28.82048 0 0 0 28.84096-28.8V137.59488z m-230.74816 115.2h-115.36384q-28.83584 0-28.83584-28.8t28.83584-28.8h115.36384q28.84608 0 28.84608 28.8t-28.84608 28.8z" p-id="4757"></path></svg>