<?xml version="1.0" standalone="no"?><!DOCTYPE svg PUBLIC "-//W3C//DTD SVG 1.1//EN" "http://www.w3.org/Graphics/SVG/1.1/DTD/svg11.dtd"><svg t="1603333741000" class="icon" viewBox="0 0 1024 1024" version="1.1" xmlns="http://www.w3.org/2000/svg" p-id="17837" xmlns:xlink="http://www.w3.org/1999/xlink" width="128" height="128"><defs><style type="text/css"></style></defs><path d="M44.8 168.96v683.52c0 106.24 229.12 161.92 455.04 161.92s455.04-55.68 455.04-161.92V168.96C954.88-43.52 44.8-43.52 44.8 168.96z m455.04-99.2c256 0 392.32 64 392.32 99.2S753.92 268.8 499.84 268.8s-392.32-64-392.32-99.2 138.88-99.84 392.32-99.84z m0 881.92c-256 0-392.32-64-392.32-99.2V710.4a853.12 853.12 0 0 0 392.32 76.16 853.12 853.12 0 0 0 392.32-76.16v142.08c0 33.92-138.24 99.2-392.32 99.2z m0-228.48c-256 0-392.32-64-392.32-99.2V478.08a853.12 853.12 0 0 0 392.32 76.16 853.12 853.12 0 0 0 392.32-76.16v145.92c0 33.92-138.24 99.84-392.32 99.84z m0-232.32c-256 0-392.32-64-392.32-99.2V256a853.76 853.76 0 0 0 392.32 74.88A853.76 853.76 0 0 0 892.16 256v135.68c0 33.92-138.24 99.84-392.32 99.84z" p-id="17838"></path></svg>