<?xml version="1.0" standalone="no"?><!DOCTYPE svg PUBLIC "-//W3C//DTD SVG 1.1//EN" "http://www.w3.org/Graphics/SVG/1.1/DTD/svg11.dtd"><svg t="1603332906799" class="icon" viewBox="0 0 1024 1024" version="1.1" xmlns="http://www.w3.org/2000/svg" p-id="11532" xmlns:xlink="http://www.w3.org/1999/xlink" width="128" height="128"><defs><style type="text/css"></style></defs><path d="M870.4 0H153.6a153.6 153.6 0 0 0-153.6 153.6v716.8a153.6 153.6 0 0 0 153.6 153.6h716.8a153.6 153.6 0 0 0 153.6-153.6V153.6a153.6 153.6 0 0 0-153.6-153.6z m51.2 870.4a51.2 51.2 0 0 1-51.2 51.2H153.6a51.2 51.2 0 0 1-51.2-51.2V153.6a51.2 51.2 0 0 1 51.2-51.2h716.8a51.2 51.2 0 0 1 51.2 51.2z" p-id="11533"></path><path d="M256 460.8h512a51.2 51.2 0 0 0 40.448-82.944l-120.32-153.6a51.2 51.2 0 1 0-80.384 62.976L663.04 358.4H256a51.2 51.2 0 0 0 0 102.4zM768 563.2H256a51.2 51.2 0 0 0-40.448 82.944l120.32 153.6a51.2 51.2 0 1 0 80.384-62.976L360.96 665.6H768a51.2 51.2 0 0 0 0-102.4z" p-id="11534"></path></svg>