<?xml version="1.0" standalone="no"?><!DOCTYPE svg PUBLIC "-//W3C//DTD SVG 1.1//EN" "http://www.w3.org/Graphics/SVG/1.1/DTD/svg11.dtd"><svg t="1603332190599" class="icon" viewBox="0 0 1024 1024" version="1.1" xmlns="http://www.w3.org/2000/svg" p-id="3145" width="128" height="128" xmlns:xlink="http://www.w3.org/1999/xlink"><defs><style type="text/css"></style></defs><path d="M949 173.6c0-40.5-32.9-73.4-73.4-73.4H148.4c-40.5 0-73.4 32.9-73.4 73.4v168.1c0 16.9 5.7 32.4 15.4 44.8-9.7 12.5-15.4 28-15.4 44.9v168.1c0 15.4 4.7 29.6 12.8 41.4-8.1 11.8-12.8 26-12.8 41.4v168.1c0 40.5 32.9 73.4 73.4 73.4h727.2c40.5 0 73.4-32.9 73.4-73.4V682.3c0-15.4-4.7-29.6-12.8-41.4 8.1-11.8 12.8-26.1 12.8-41.4V431.4c0-16.9-5.7-32.4-15.4-44.8 9.6-12.4 15.4-28 15.4-44.8V173.6z m-810 0c0-5.1 4.3-9.4 9.4-9.4h727.2c5.1 0 9.4 4.3 9.4 9.4v168.1c0 5.1-4.3 9.4-9.4 9.4H148.4c-5.1 0-9.4-4.3-9.4-9.4V173.6z m746 425.9c0 5.1-4.3 9.4-9.4 9.4H148.4c-5.1 0-9.4-4.3-9.4-9.4V431.4c0-5.1 4.3-9.4 9.4-9.4h727.2c5.1 0 9.4 4.3 9.4 9.4v168.1z m0 250.9c0 5.1-4.3 9.4-9.4 9.4H148.4c-5.1 0-9.4-4.3-9.4-9.4V682.3c0-5.1 4.3-9.4 9.4-9.4h727.2c5.1 0 9.4 4.3 9.4 9.4v168.1z" p-id="3146"></path><path d="M229.2 289.7h122c17.7 0 32-14.3 32-32s-14.3-32-32-32h-122c-17.7 0-32 14.3-32 32s14.3 32 32 32zM351.1 483.4h-122c-17.7 0-32 14.3-32 32s14.3 32 32 32h122c17.7 0 32-14.3 32-32 0-17.6-14.3-32-32-32zM351.1 734.3h-122c-17.7 0-32 14.3-32 32s14.3 32 32 32h122c17.7 0 32-14.3 32-32s-14.3-32-32-32z" p-id="3147"></path></svg>