<?xml version="1.0" standalone="no"?><!DOCTYPE svg PUBLIC "-//W3C//DTD SVG 1.1//EN" "http://www.w3.org/Graphics/SVG/1.1/DTD/svg11.dtd"><svg t="1603333757758" class="icon" viewBox="0 0 1024 1024" version="1.1" xmlns="http://www.w3.org/2000/svg" p-id="17989" xmlns:xlink="http://www.w3.org/1999/xlink" width="128" height="128"><defs><style type="text/css"></style></defs><path d="M529.866105 80.842105c106.226526 0 202.832842 15.279158 270.44379 45.810527 74.590316 34.411789 113.178947 73.566316 115.765894 122.044631l0.134737 5.22779V727.309474c0 45.810526-43.466105 91.621053-115.900631 122.179368-67.637895 30.531368-164.217263 45.810526-270.44379 45.810526-54.784 0-106.981053-4.042105-153.950316-12.18021l56.158316-45.433263c31.959579 4.257684 64.862316 6.709895 97.792 6.709894 77.258105 0 169.013895-10.186105 231.801263-35.624421 65.104842-24.522105 103.343158-53.76 106.09179-83.159579l0.161684-3.395368V645.928421c-48.289684 25.438316-82.108632 45.810526-140.072421 61.062737-53.086316 12.934737-109.621895 22.204632-169.633684 24.764631 11.964632-13.958737 19.051789-27.351579 21.288421-40.286315a77.338947 77.338947 0 0 0 1.185684-11.829895c65.859368-4.581053 131.045053-17.515789 180.978526-33.711158 65.212632-19.644632 103.477895-48.747789 106.09179-82.728421l0.161684-3.826526v-76.341895c-48.289684 25.438316-82.108632 45.810526-135.221895 61.062737-62.787368 15.279158-130.425263 25.465263-202.832842 25.465263-21.477053 0-42.549895-0.889263-63.164631-2.56l-74.509474-61.332211c44.112842 8.030316 90.893474 12.988632 137.674105 12.988632 82.081684 0 169.013895-15.279158 231.801263-35.624421 65.104842-24.522105 103.343158-53.76 106.09179-78.605474l0.161684-2.856421v-61.089684c-48.289684 20.372211-82.108632 45.810526-135.221895 55.996632-62.787368 15.279158-130.425263 25.465263-202.832842 25.465263-72.461474 0-140.072421-10.186105-202.859789-25.465263-49.313684-9.431579-82.000842-32.067368-125.089684-51.550316l-10.132211-4.446316v55.996632c0 25.869474 27.755789 51.738947 77.338947 74.536421-14.147368 6.305684-26.273684 19.402105-34.762105 34.654315-10.078316-5.281684-20.372211-10.832842-31.366737-16.707368l-11.210105-5.928421v62.544842H143.494737V253.925053c0-49.152 36.028632-88.818526 108.058947-123.553685l7.841684-3.718736C327.033263 96.121263 423.612632 80.842105 529.866105 80.842105z m-219.297684 417.684211c11.910737 0 23.713684 3.853474 32.525474 10.967579l183.781052 150.366316c8.569263 7.006316 13.419789 16.572632 13.41979 26.624 0 9.970526-4.850526 19.509895-13.41979 26.624l-183.781052 150.366315c-8.811789 7.194947-20.48 10.967579-32.525474 10.967579-5.955368 0-11.910737-0.916211-17.623579-2.856421-17.138526-5.766737-28.321684-19.482947-28.321684-34.735158V799.258947H126.787368c-25.330526 0-45.945263-16.869053-45.945263-37.591579v-150.366315c0-20.749474 20.614737-37.591579 45.945263-37.591579H264.623158v-37.591579c0-15.252211 11.183158-28.968421 28.294737-34.762106 5.739789-1.913263 11.695158-2.829474 17.650526-2.829473z m219.297684-366.753684c-82.108632 0-164.217263 10.159158-227.004631 35.597473-67.610947 25.465263-106.253474 55.996632-106.253474 86.554948 0 30.531368 33.818947 61.089684 106.253474 81.434947 62.787368 25.465263 144.896 35.651368 227.004631 35.651368 77.258105 0 164.190316-10.186105 226.977684-35.651368 72.434526-20.345263 106.253474-50.903579 106.253474-81.434947 0-30.558316-38.642526-61.089684-106.253474-86.554948-62.787368-20.345263-149.719579-35.624421-226.977684-35.624421z" p-id="17990"></path></svg>