<?xml version="1.0" standalone="no"?><!DOCTYPE svg PUBLIC "-//W3C//DTD SVG 1.1//EN" "http://www.w3.org/Graphics/SVG/1.1/DTD/svg11.dtd"><svg t="1603336268014" class="icon" viewBox="0 0 1024 1024" version="1.1" xmlns="http://www.w3.org/2000/svg" p-id="3899" xmlns:xlink="http://www.w3.org/1999/xlink" width="128" height="128"><defs><style type="text/css"></style></defs><path d="M511 453.6c72.2 0 139.7-6.6 202.5-19.7 62.8-13.1 112.3-32.5 148.6-58.1v77.7c0 21-15.7 40.6-47.1 58.5-31.4 18-74 32.3-128 42.8-53.9 10.5-112.6 15.8-176 15.8s-122.1-5.3-176-15.8c-53.9-10.5-96.6-24.8-128-42.8-31.4-18-47.1-37.5-47.1-58.5v-77.7c36.2 25.6 85.8 45 148.6 58.1 62.8 13.1 130.3 19.7 202.5 19.7z m0 351.1c72.2 0 139.7-6.6 202.5-19.7 62.8-13.1 112.3-32.5 148.6-58.1v77.7c0 21-15.7 40.6-47.1 58.5-31.4 18-74 32.3-128 42.8-53.9 10.5-112.6 15.8-176 15.8s-122-5.3-176-15.7c-54-10.5-96.6-24.8-128-42.8-31.4-18-47.1-37.5-47.1-58.5V727c36.2 25.6 85.8 45 148.6 58.1 62.8 13 130.3 19.6 202.5 19.6z m0-175.5c72.2 0 139.7-6.6 202.5-19.7 62.8-13.1 112.3-32.5 148.6-58.1v77.7c0 21-15.7 40.5-47.1 58.5-31.4 18-74 32.2-128 42.8-53.9 10.5-112.6 15.7-176 15.7s-122.1-5.3-176-15.8c-54-10.5-96.6-24.8-128-42.8-31.4-18-47.1-37.5-47.1-58.5v-77.7c36.2 25.6 85.8 45 148.6 58.1 62.8 13.2 130.3 19.8 202.5 19.8z m0-526.7c63.4 0 122.1 5.3 176 15.8 54 10.5 96.6 24.8 128 42.8 31.4 18 47.1 37.5 47.1 58.5v58.5c0 21-15.7 40.5-47.1 58.5-31.4 18-74 32.2-128 42.8-54 10.5-112.6 15.7-176 15.7s-122.1-5.3-176-15.8c-54-10.5-96.6-24.8-128-42.8-31.4-18-47.1-37.5-47.1-58.5v-58.5c0-21 15.7-40.6 47.1-58.5 31.4-18 74-32.3 128-42.8 54-10.4 112.6-15.7 176-15.7z m0 0" p-id="3900"></path></svg>