<?xml version="1.0" standalone="no"?><!DOCTYPE svg PUBLIC "-//W3C//DTD SVG 1.1//EN" "http://www.w3.org/Graphics/SVG/1.1/DTD/svg11.dtd"><svg t="1603336301609" class="icon" viewBox="0 0 1024 1024" version="1.1" xmlns="http://www.w3.org/2000/svg" p-id="4491" xmlns:xlink="http://www.w3.org/1999/xlink" width="128" height="128"><defs><style type="text/css"></style></defs><path d="M961.834667 422.997333h-323.413334c-79.914667 0-144.682667 61.568-144.682666 137.557334v43.946666H108.330667c-36.266667 0-65.664-27.989333-65.664-62.464V417.194667c0-34.474667 29.397333-62.421333 65.664-62.421334h787.84c36.266667 0 65.664 27.946667 65.664 62.421334v5.802666zM493.738667 666.88v249.685333H108.330667c-36.266667 0-65.664-27.946667-65.664-62.421333v-124.842667c0-34.474667 29.397333-62.421333 65.664-62.421333h385.408zM108.330667 42.666667h787.84c36.266667 0 65.664 27.946667 65.664 62.421333v124.842667c0 34.474667-29.44 62.421333-65.706667 62.421333H108.373333C72.064 292.352 42.666667 264.405333 42.666667 229.973333V105.088C42.666667 70.613333 72.064 42.666667 108.330667 42.666667z m0 62.421333v124.842667h131.285333V105.088H108.373333z m0 312.106667v124.842666h131.285333V417.194667H108.373333z m0 312.149333v124.842667h131.285333v-124.842667H108.373333z m872.490666-172.586667h0.426667v16.512c-20.565333 45.397333-108.544 79.488-213.888 79.488-105.088 0-192.853333-33.962667-213.76-79.104v-8.277333a43.605333 43.605333 0 0 1-0.298667-5.12c0-53.461333 95.744-96.810667 213.845334-96.810667 115.498667 0 209.621333 41.472 213.674666 93.312z m-213.461333 138.197334c105.386667 0 193.28-34.090667 213.930667-79.488v63.744c-20.48 45.44-108.501333 79.658667-214.058667 79.658666-104.832 0-192.426667-33.749333-213.632-78.762666v-64.256c20.906667 45.184 108.672 79.104 213.76 79.104z m-0.085333 106.112c105.472 0 193.536-34.218667 214.058666-79.658667v58.282667c-20.565333 45.397333-108.501333 79.530667-213.888 79.530666-105.173333 0-192.981333-33.962667-213.76-79.232V722.346667c21.205333 45.013333 108.8 78.762667 213.589334 78.762666z m0.085333 100.352c105.386667 0 193.365333-34.133333 213.930667-79.530667v59.733333h-0.298667C980.693333 936.618667 885.034667 981.333333 767.146667 981.333333c-118.101333 0-213.845333-44.8-213.845334-100.010666 0-1.792 0.128-3.584 0.298667-5.376v-53.76c20.821333 45.226667 108.629333 79.232 213.76 79.232z" p-id="4492"></path></svg>