<?xml version="1.0" standalone="no"?><!DOCTYPE svg PUBLIC "-//W3C//DTD SVG 1.1//EN" "http://www.w3.org/Graphics/SVG/1.1/DTD/svg11.dtd"><svg t="1603346186504" class="icon" viewBox="0 0 1024 1024" version="1.1" xmlns="http://www.w3.org/2000/svg" p-id="13011" xmlns:xlink="http://www.w3.org/1999/xlink" width="128" height="128"><defs><style type="text/css"></style></defs><path d="M540.912941 82.522353V57.223529H650.541176V0H374.061176v57.223529h109.025883v25.298824c-246.964706 15.058824-442.127059 219.858824-442.127059 470.437647C40.96 813.176471 251.783529 1024 512 1024s471.04-210.823529 471.04-471.04c0-250.578824-195.764706-455.981176-442.127059-470.437647z m248.169412 746.917647c-35.538824 35.538824-77.703529 63.849412-124.687059 83.727059-48.188235 20.48-99.388235 30.72-151.792941 30.72s-104.207059-10.24-151.792941-30.72c-46.983529-19.275294-89.148235-47.585882-124.687059-83.727059-35.538824-35.538824-63.849412-77.703529-83.727059-124.687059-20.48-48.188235-30.72-99.388235-30.72-151.792941s10.24-104.207059 30.72-151.792941c19.877647-46.381176 48.188235-88.545882 83.727059-124.687059S313.223529 212.630588 360.207059 192.752941c48.188235-20.48 99.388235-30.72 151.792941-30.72s104.207059 10.24 151.792941 30.72c46.381176 19.275294 88.545882 47.585882 124.687059 83.727059s63.849412 77.703529 83.727059 124.687059c20.48 48.188235 30.72 99.388235 30.72 151.792941s-10.24 104.207059-30.72 151.792941c-19.275294 46.983529-47.585882 89.148235-83.124706 124.687059zM540.912941 242.748235h-57.223529v-57.825882h57.223529v57.825882z m-57.825882 620.42353h57.223529v57.223529h-57.223529v-57.223529zM144.564706 524.047059h57.223529v57.223529H144.564706V524.047059z m735.472941 0v57.223529h-57.223529V524.047059h57.223529z m-359.604706 33.731765l190.34353 80.112941-22.287059 53.007059-216.847059-90.955295-84.329412-315.030588 55.416471-15.058823 77.703529 287.924706z" p-id="13012"></path></svg>