<?xml version="1.0" standalone="no"?><!DOCTYPE svg PUBLIC "-//W3C//DTD SVG 1.1//EN" "http://www.w3.org/Graphics/SVG/1.1/DTD/svg11.dtd"><svg t="1603334968155" class="icon" viewBox="0 0 1024 1024" version="1.1" xmlns="http://www.w3.org/2000/svg" p-id="32160" xmlns:xlink="http://www.w3.org/1999/xlink" width="128" height="128"><defs><style type="text/css"></style></defs><path d="M508.929835 908.727104c60.196442 0 108.982624-32.548502 108.982624-72.703844 0-0.585142-217.965247 0.219428-217.965247 0 0 40.155343 48.786181 72.703844 108.982623 72.703844z m339.894129-289.645093l153.380243 133.119714a48.639896 48.639896 0 0 1 12.141688 53.686742 49.29818 49.29818 0 0 1-45.860473 30.939363H692.225442c-15.652538 80.968969-85.576959 144.603119-183.295607 144.603118-97.718648 0-166.984785-63.634149-182.637323-144.603118H49.374248a49.29818 49.29818 0 0 1-45.860473-30.939363 48.566753 48.566753 0 0 1 12.141689-53.759884l154.477383-133.119715v-227.473798c0-137.361991 88.502667-252.342316 216.941249-284.37882A122.587166 122.587166 0 0 1 508.929835 0.002194c62.902722 0 114.175755 46.811328 121.855739 107.154056 128.365439 32.109645 218.03839 147.016828 218.03839 284.37882v227.473798z" p-id="32161"></path></svg>