<?xml version="1.0" standalone="no"?><!DOCTYPE svg PUBLIC "-//W3C//DTD SVG 1.1//EN" "http://www.w3.org/Graphics/SVG/1.1/DTD/svg11.dtd"><svg t="1603346111937" class="icon" viewBox="0 0 1214 1024" version="1.1" xmlns="http://www.w3.org/2000/svg" p-id="10112" xmlns:xlink="http://www.w3.org/1999/xlink" width="151.75" height="128"><defs><style type="text/css"></style></defs><path d="M605.715238 524.156961a158.424394 158.424394 0 0 1-69.188036-15.782721L448.741148 642.996584a160.983754 160.983754 0 0 1 52.978755 97.511622l210.55003-0.938432a160.38657 160.38657 0 0 1 52.381571-98.023494L675.15921 507.777056A159.192202 159.192202 0 0 1 605.715238 524.156961z" p-id="10113"></path><path d="M1077.917187 102.374406h-81.899525V51.187203a51.187203 51.187203 0 0 0-51.187203-51.187203H769.258352a51.187203 51.187203 0 0 0-51.187203 51.187203v51.187203h-221.811214V51.187203a51.187203 51.187203 0 0 0-51.187203-51.187203H269.500625a51.187203 51.187203 0 0 0-51.187203 51.187203v51.187203H136.499209A136.499209 136.499209 0 0 0 0 238.873615v648.37124a136.499209 136.499209 0 0 0 136.499209 136.499209h941.417978a136.499209 136.499209 0 0 0 136.499209-136.499209V238.873615a136.499209 136.499209 0 0 0-136.499209-136.499209z m-205.345996 820.957428A161.325002 161.325002 0 0 1 712.525869 784.870449l-210.55003 1.023744a162.09281 162.09281 0 1 1-91.027909-167.808714l88.041989-134.622345a162.09281 162.09281 0 1 1 213.280014-0.938432L801.93285 616.293927a161.495626 161.495626 0 1 1 70.553029 307.123219z" p-id="10114"></path></svg>